<ttFont>
<head>
        <!-- Most of this table will be recalculated by the compiler -->
        <tableVersion value="1.0"/>
        <fontRevision value="1.002"/>
        <checkSumAdjustment value="0x9172e5c2"/>
        <magicNumber value="0x5f0f3cf5"/>
        <flags value="00000000 00000011"/>
        <unitsPerEm value="1000"/>
        <created value="Fri Jan 15 16:16:14 2016"/>
        <modified value="Fri Jan 15 21:16:15 2016"/>
        <xMin value="-1773"/>
        <yMin value="-319"/>
        <xMax value="708"/>
        <yMax value="1270"/>
        <macStyle value="00000000 00000000"/>
        <lowestRecPPEM value="3"/>
        <fontDirectionHint value="2"/>
        <indexToLocFormat value="0"/>
        <glyphDataFormat value="0"/>
    </head>
                    <CharString index="0">
                        rmoveto
156 126 123 199 180 -107 109 -144 -157 -125 -121 -201 -179 105 -110 146 hvcurveto
10 531 rmoveto
101 71 -84 -149 -141 -61 -77 -100 -101 -71 84 149 141 61 77 100 hvcurveto
endchar
                    </CharString>
                    <CharString index="1">
                        rmoveto
60 -53 51 -164 18 vhcurveto
7 91 rlineto
191 hlineto
8 73 rlineto
-264 hlineto
-17 -225 rlineto
157 -12 60 -24 -34 vvcurveto
-41 -61 -22 -166 -15 vhcurveto
5 -77 rlineto
203 16 94 60 81 vvcurveto
return
                    </CharString>
                    <CharString index="2">
                        rmoveto
71 71 61 104 59 hvcurveto
-58 33 rlineto
-74 -46 -38 -41 -50 hhcurveto
-49 -35 35 86 -49 hvcurveto
-71 -46 rlineto
-107 56 68 -51 71 hhcurveto
return
                    </CharString>
                    <CharString index="3">
                        rmoveto
149 91 93 156 hvcurveto
349 -99 -360 vlineto
-112 -40 -42 -90 -88 -52 53 122 vhcurveto
339 -99 -356 vlineto
-156 84 -86 144 vhcurveto
endchar
                    </CharString>
                    <CharString index="4">
                        rmoveto
184 171 -49 49 -128 -117 -131 117 -64 -62 187 -158 rlineto
return
                    </CharString>
                    <CharString index="5">
                        rmoveto
64 63 -187 157 rlineto
-1 hlineto
-184 -171 49 -48 128 117 rlineto
return
                    </CharString>
                    <CharString index="6">
                        rmoveto
10 86 -230 7 -86 41 -14 123 rlinecurve
346 10 rlineto
185 18 -69 122 -143 hhcurveto
-135 -114 -130 -164 -177 89 -103 328 hvcurveto
-188 487 rmoveto
82 35 -59 -96 4 hvcurveto
-254 -7 rlineto
114 6 49 48 78 hhcurveto
endchar
                    </CharString>
                    <CharString index="7">
                        rmoveto
-51 42 -104 98 -54 60 -71 -85 rcurveline
66 -52 116 -73 67 -36 rrcurveto
return
                    </CharString>
                    <CharString index="8">
                        rmoveto
172 140 144 234 211 -118 129 -161 -172 -140 -143 -235 -211 118 -129 161 hvcurveto
10 632 rmoveto
118 84 -102 -179 -171 -72 -94 -117 -118 -83 102 179 171 72 94 116 hvcurveto
endchar
                    </CharString>
                    <CharString index="9">
                        81 callsubr
74 -64 60 -220 -1 vhcurveto
-6 -74 rlineto
164 -6 46 -26 -49 vvcurveto
-63 -79 -62 -147 -102 vhcurveto
8 -67 rlineto
return
                    </CharString>
                    <CharString index="10">
                        rmoveto
113 73 98 140 138 -62 84 -109 -112 -74 -98 -141 -137 62 -84 109 hvcurveto
6 390 rmoveto
64 34 -62 -104 -97 -30 -58 -64 -64 -34 62 105 96 30 58 64 hvcurveto
endchar
                    </CharString>
                    <CharString index="11">
                        -81 callgsubr
hintmask 01011111
152 -69 rmoveto
hintmask 00111111
87 6 rlineto
-92 callsubr
hintmask 10011111
-88 67 -53 92 78 58 36 40 40 vhcurveto
hintmask 01011111
4 -26 5 -34 -6 vvcurveto
endchar
                    </CharString>
                    <CharString index="12">
                        rmoveto
132 76 -364 -76 133 -433 -133 -76 361 hlineto
7 76 rlineto
-136 hlineto
endchar
                    </CharString>
                    <CharString index="13">
                        rmoveto
49 -34 54 58 65 87 36 59 rlinecurve
-100 48 -22 -61 -45 -97 -37 -60 rlinecurve
213 hmoveto
49 -35 55 58 63 86 35 61 rlinecurve
-103 40 -22 -63 -41 -87 -36 -60 rlinecurve
return
                    </CharString>
                    <CharString index="14">
                        7 70 rlineto
-113 384 hlineto
-79 -6 rlineto
-64 vlineto
-116 -14 2 -58 114 3 rlineto
-245 -125 -70 vlineto
return
                    </CharString>
                    <CharString index="15">
                        -4 76 -5 81 111 vvcurveto
211 -81 71 -301 5 vhcurveto
-11 -87 224 -8 64 -29 8 -119 rlinecurve
-225 12 -100 -90 -109 vvcurveto
return
                    </CharString>
                    <CharString index="16">
                        rmoveto
hintmask 00111100
102 8 -70 229 -73 227 -79 230 rlinecurve
-136 hlineto
hintmask 01011100
-80 callsubr
hintmask 10011100
21 -71 21 -71 21 -70 rrcurveto
hintmask 00111100
-82 callgsubr
                    </CharString>
                    <CharString index="17">
                        47 129 63 125 79 122 rrcurveto
71 -312 vlineto
-7 -73 rlineto
233 hlineto
3 -6 -79 -118 -62 -116 -48 -124 rlinecurve
return
                    </CharString>
                    <CharString index="18">
                        -98 callsubr
endchar
                    </CharString>
                    <CharString index="19">
                        113 hlineto
23 130 32 262 17 296 rrcurveto
-94 hlineto
-6 -83 -31 -438 -7 -41 rrcurveto
-5 hlineto
-24 76 -77 214 -26 77 rrcurveto
-69 hlineto
-26 -77 -77 -213 -23 -77 rrcurveto
-6 hlineto
-7 41 -32 438 -5 83 rrcurveto
-101 hlineto
18 -296 30 -262 24 -130 rrcurveto
110 hlineto
123 339 rlineto
endchar
                    </CharString>
                    <CharString index="20">
                        rmoveto
6 70 -56 -1 1 145 -77 -6 1 -140 -137 2 2 21 58 229 9 34 rlinecurve
29 callsubr
                    </CharString>
                    <CharString index="21">
                        rmoveto
299 17 71 130 190 vvcurveto
104 -1 218 -2 70 vhcurveto
16 -55 -49 8 -49 hhcurveto
-158 -135 -110 -175 -142 89 -88 115 61 50 22 27 37 hvcurveto
-3 -150 -33 -20 -248 -23 rrcurveto
173 226 rmoveto
-81 -65 58 119 112 64 58 91 33 34 -6 -10 35 hvcurveto
-301 vlineto
-18 -34 -40 -12 -37 hhcurveto
endchar
                    </CharString>
                    <CharString index="22">
                        rmoveto
hintmask 00111100
100 6 -61 195 -65 193 -68 195 rlinecurve
-133 hlineto
hintmask 01011100
-70 -194 -64 -197 -61 -195 rrcurveto
96 hlineto
17 57 18 58 18 57 rrcurveto
219 hlineto
hintmask 10011100
19 -59 18 -58 17 -58 rrcurveto
hintmask 00111100
-167 504 rmoveto
8 hlineto
28 -86 28 -86 27 -86 rrcurveto
-174 hlineto
27 86 28 86 28 86 rrcurveto
endchar
                    </CharString>
                    <CharString index="23">
                        rmoveto
167 61 82 101 125 vvcurveto
118 -68 62 -97 -90 -76 -62 -92 -131 149 -34 100 86 vhcurveto
-13 -70 -49 -44 -133 -47 rrcurveto
23 246 rmoveto
49 34 29 47 53 40 -36 -83 1 vhcurveto
-90 -54 -85 19 76 vvcurveto
endchar
                    </CharString>
                    <CharString index="24">
                        17 18 -21 24 -21 24 -21 169 71 258 85 return
                    </CharString>
                    <CharString index="25">
                        rmoveto
-81 -51 -50 -66 -63 53 -49 79 82 52 49 67 61 -55 51 -79 hvcurveto
return
                    </CharString>
                    <CharString index="26">
                        -72 callgsubr
-76 -5 callsubr
return
                    </CharString>
                    <CharString index="27">
                        -79 -231 -73 -230 -69 -229 rrcurveto
98 hlineto
21 69 20 70 21 69 rrcurveto
254 hlineto
return
                    </CharString>
                    <CharString index="28">
                        1 -428 rlineto
-6 hlineto
-245 428 rlineto
-125 -585 91 hlineto
-2 453 rlineto
7 hlineto
return
                    </CharString>
                    <CharString index="29">
                        79 rmoveto
-100 callgsubr
return
                    </CharString>
                    <CharString index="30">
                        8 85 -315 -2 307 420 rlineto
82 -403 vlineto
-8 -85 307 2 -309 -420 rlineto
-82 vlineto
endchar
                    </CharString>
                    <CharString index="31">
                        rmoveto
167 61 82 101 125 vvcurveto
118 -68 62 -97 -90 -76 -62 -92 vhcurveto
hintmask 01111000
-131 149 -34 100 86 vhcurveto
-13 -70 -49 -44 -133 -47 rrcurveto
hintmask 10111000
23 246 rmoveto
49 34 29 47 53 40 -36 -83 1 vhcurveto
-90 -54 -85 19 76 vvcurveto
endchar
                    </CharString>
                    <CharString index="32">
                        rmoveto
200 vlineto
hintmask 11011000
207 385 rlineto
-102 hlineto
-150 -303 rlineto
hintmask 10111000
-156 306 -107 -5 209 -386 rlineto
-197 vlineto
endchar
                    </CharString>
                    <CharString index="33">
                        -308 218 262 78 -262 213 303 89 -403 -688 398 hlineto
endchar
                    </CharString>
                    <CharString index="34">
                        rmoveto
-168 86 -120 288 15 vhcurveto
11 87 rlineto
-211 -5 -79 63 144 vvcurveto
116 45 63 238 2 vhcurveto
-7 100 rlineto
-276 -14 -95 -130 -153 vvcurveto
return
                    </CharString>
                    <CharString index="35">
                        rmoveto
150 83 -400 -83 150 -522 -150 -83 397 hlineto
8 83 rlineto
-155 hlineto
endchar
                    </CharString>
                    <CharString index="36">
                        rmoveto
-259 -5 -95 80 191 vvcurveto
157 55 87 292 4 vhcurveto
-7 104 rlineto
-329 -17 -114 -161 -189 vvcurveto
-209 104 -151 343 19 vhcurveto
return
                    </CharString>
                    <CharString index="37">
                        rmoveto
hintmask 01011100
228 -145 95 -329 -40 vhcurveto
-586 vlineto
hintmask 10101100
305 -41 169 122 222 vvcurveto
-99 -15 rmoveto
-158 -81 -77 -195 24 vhcurveto
434 vlineto
202 20 74 -81 -162 vvcurveto
endchar
                    </CharString>
                    <CharString index="38">
                        -83 callsubr
87 148 hstemhm
141 101 121 -71 callgsubr
hintmask 00111111
463 673 -102 callgsubr
hintmask 10011111
325 -676 rmoveto
hintmask 00111111
100 6 -61 195 -65 193 -68 195 rlinecurve
-133 hlineto
hintmask 01011111
-70 -194 -64 -197 -61 -195 rrcurveto
96 hlineto
17 57 18 58 18 57 rrcurveto
219 hlineto
hintmask 10011111
19 -59 18 -58 17 -58 rrcurveto
hintmask 00111111
-167 504 rmoveto
8 hlineto
28 -86 28 -86 27 -86 rrcurveto
-174 hlineto
27 86 28 86 28 86 rrcurveto
endchar
                    </CharString>
                    <CharString index="39">
                        78 -78 callsubr
return
                    </CharString>
                    <CharString index="40">
                        rmoveto
168 24 54 48 79 226 rrcurveto
hintmask 11011000
63 173 50 156 37 118 rrcurveto
-93 hlineto
-16 -47 -86 -279 -32 -92 rrcurveto
-9 hlineto
hintmask 10111000
-56 142 -54 138 -49 142 -99 -8 rcurveline
45 -129 105 -258 57 -135 16 -4 rcurveline
-29 -84 -35 -15 -127 -21 rrcurveto
endchar
                    </CharString>
                    <CharString index="41">
                        107 65 60 64 50 -47 34 -52 29 hvcurveto
return
                    </CharString>
                    <CharString index="42">
                        17 21 86 callsubr
343 87 hintmask 01111000
542 -236 rmoveto
9 80 rlineto
-81 11 -40 15 28 vvcurveto
24 26 32 109 49 vhcurveto
-61 195 -65 193 -68 195 rrcurveto
-133 hlineto
hintmask 10111000
-70 -194 -64 -197 -61 -195 rrcurveto
96 hlineto
17 57 18 58 18 57 rrcurveto
219 hlineto
17 -54 17 -54 16 -53 rrcurveto
-88 -49 -30 -44 -42 vvcurveto
hintmask 01111000
-55 51 -42 148 -15 vhcurveto
-244 737 rmoveto
8 hlineto
28 -86 28 -86 27 -86 rrcurveto
-174 hlineto
27 86 28 86 28 86 rrcurveto
endchar
                    </CharString>
                    <CharString index="43">
                        rmoveto
171 72 94 116 46 40 -15 -30 33 vhcurveto
-271 -394 rlineto
-23 45 -13 58 71 vvcurveto
201 -281 rmoveto
-46 -40 15 30 -33 hvcurveto
272 394 rlineto
23 -45 13 -58 -71 vvcurveto
-171 -72 -94 -117 vhcurveto
-23 -86 rmoveto
172 140 144 234 hvcurveto
hintmask 10011100
100 -27 82 -45 58 vhcurveto
55 81 rlineto
hintmask 01101100
-61 42 -48 -71 rlineto
31 -43 -52 17 -58 hhcurveto
-172 -140 -143 -235 -101 27 -81 45 -59 hvcurveto
-55 -80 rlineto
hintmask 10101100
62 -42 48 70 rlineto
-31 43 52 -16 57 hhcurveto
endchar
                    </CharString>
                    <CharString index="44">
                        -45 callsubr
84 85 -46 -20 84 85 -42 callsubr
hintmask 01110011
415 -10 callsubr
hintmask 01101111
-85 callgsubr
hintmask 01110011
19 callgsubr
42 -669 rmoveto
17 callgsubr
hintmask 10110011
-79 callsubr
endchar
                    </CharString>
                    <CharString index="45">
                        -4 -8 78 -49 -21 256 72 185 81 28 callsubr
200 98 -76 99 hintmask 10110101
523 171 rmoveto
81 -51 39 -81 18 vhcurveto
hintmask 01101110
65 26 44 46 68 vvcurveto
133 -164 30 -233 -27 vhcurveto
-585 vlineto
hintmask 10110101
232 -30 188 48 153 vvcurveto
-321 339 rmoveto
hintmask 10110110
124 13 76 -24 -74 vvcurveto
-72 -46 -29 -154 4 vhcurveto
hintmask 10110101
-251 vmoveto
179 vlineto
148 7 74 -17 -80 vvcurveto
-86 -74 -23 -148 20 vhcurveto
endchar
                    </CharString>
                    <CharString index="46">
                        29 -9 76 433 95 hstem
64 100 122 105 47 -23 callsubr
-271 -309 -103 callgsubr
                    </CharString>
                    <CharString index="47">
                        234 vlineto
hintmask 11010000
234 454 rlineto
-103 hlineto
-176 -361 rlineto
hintmask 10110000
-181 364 -109 -5 235 -453 rlineto
-233 vlineto
endchar
                    </CharString>
                    <CharString index="48">
                        -7 -13 79 -48 -21 27 -21 240 72 156 87 return
                    </CharString>
                    <CharString index="49">
                        69 -12 79 -55 -21 25 -21 523 80 hstemhm
64 100 333 100 hintmask 00111100
528 -148 rmoveto
hintmask 01011100
32 88 -179 51 1 4 rlineto
123 30 92 114 170 vvcurveto
180 -107 109 -144 -157 -125 -121 -201 vhcurveto
hintmask 10011100
-169 94 -107 133 -12 vhcurveto
-23 -57 rlineto
57 587 rmoveto
101 71 -84 -149 -142 -61 -76 -100 -101 -71 84 149 141 61 77 100 hvcurveto
endchar
                    </CharString>
                    <CharString index="50">
                        50 -14 84 -52 -21 27 -21 540 53 callsubr
return
                    </CharString>
                    <CharString index="51">
                        -83 callgsubr
endchar
                    </CharString>
                    <CharString index="52">
                        -18 callgsubr
107 148 hstemhm
132 101 11 99 11 -71 callgsubr
hintmask 10111110
454 675 -102 callgsubr
hintmask 11010100
212 -675 rmoveto
200 vlineto
207 385 rlineto
-102 hlineto
-150 -303 rlineto
hintmask 10110100
-156 306 -107 -5 209 -386 rlineto
-197 vlineto
endchar
                    </CharString>
                    <CharString index="53">
                        14 12 -21 30 -21 27 -21 201 70 237 80 -9 -20 return
                    </CharString>
                    <CharString index="54">
                        -71 10 callsubr
33 105 40 -12 callgsubr
111 -380 -103 callgsubr
                    </CharString>
                    <CharString index="55">
                        -45 callsubr
121 -20 -42 callsubr
hintmask 01111100
222 706 -107 callgsubr
235 -706 rmoveto
12 callgsubr
endchar
                    </CharString>
                    <CharString index="56">
                        286 0 83 177 70 172 83 hstem
63 99 276.5 95.5 vstem
162 298 rmoveto
151 87 54 189 vhcurveto
1 -420 rlineto
-191 -86 62 153 hvcurveto
642 -215 58 callsubr
-314 hlineto
-275 -148 -101 -201 -207 132 -76 289 hvcurveto
311 hlineto
endchar
                    </CharString>
                    <CharString index="57">
                        67 -12 83 514 -20 hstem
95 99 36 87 147 99 vstem
429 -240 rmoveto
9 80 rlineto
-81 14 -40 15 31 vvcurveto
20 18 29 74 39 vhcurveto
90 49 64 64 134 vvcurveto
350 -99 -361 vlineto
-110 -40 -43 -90 -88 -52 53 122 vhcurveto
339 -99 -357 vlineto
-145 75 -85 129 -10 vhcurveto
-50 -38 -19 -37 -34 vvcurveto
-59 52 -44 147 -16 vhcurveto
endchar
                    </CharString>
                    <CharString index="58">
                        rmoveto
-93 callsubr
endchar
                    </CharString>
                    <CharString index="59">
                        rmoveto
70 43 -34 -106 hvcurveto
-336 98 368 vlineto
137 -69 56 -102 -82 -59 -35 -39 -47 vhcurveto
return
                    </CharString>
                    <CharString index="60">
                        81 -74 83 149 79 -76 84 return
                    </CharString>
                    <CharString index="61">
                        148 rlineto
return
                    </CharString>
                    <CharString index="62">
                        82 0 157 -136 -21 453 132 return
                    </CharString>
                    <CharString index="63">
                        319 -84.5 84.5 return
                    </CharString>
                    <CharString index="64">
                        0 0 88 494 7 -4 -20 24 -20 hstemhm
44 503 hintmask 10011000
224 hmoveto
142 hlineto
hintmask 10101000
67 194 61 197 53 194 rrcurveto
-96 hlineto
-45 -165 -49 -167 -53 -165 rrcurveto
-13 hlineto
hintmask 10011000
-52 166 -49 170 -44 165 rrcurveto
hintmask 11001000
-102 -7 rlineto
hintmask 10011000
53 -194 61 -193 66 -195 rrcurveto
endchar
                    </CharString>
                    <CharString index="65">
                        hstemhm
103 90 285.5 91.5 return
                    </CharString>
                    <CharString index="66">
                        8 91 -314 -4 304 374 rlineto
86 -403 vlineto
-9 -92 306 4 -306 -373 rlineto
-86 vlineto
endchar
                    </CharString>
                    <CharString index="67">
                        72 vstem
838 349 rmoveto
232 -173 142 -211 -211 -164 -158 -227 -229 151 -143 213 210 185 151 232 vhcurveto
-686 -8 rmoveto
191 126 123 173 166 149 -119 -192 -193 -150 -118 -170 -166 -128 121 187 vhcurveto
return
                    </CharString>
                    <CharString index="68">
                        hstem
95 99 270 99 vstem
return
                    </CharString>
                    <CharString index="69">
                        -18 21 -21 181 81 249 83 28 callsubr
218 100 hintmask 11101100
202 hmoveto
181 vlineto
186 15 132 66 143 vvcurveto
hintmask 11011100
146 -143 70 -274 -36 vhcurveto
-585 vlineto
hintmask 11101100
317 385 rmoveto
-101 -72 -32 -146 13 vhcurveto
246 vlineto
145 14 73 -46 -94 vvcurveto
endchar
                    </CharString>
                    <CharString index="70">
                        -62 -27 -35 -37 -53 vvcurveto
-64 58 -48 96 vhcurveto
return
                    </CharString>
                    <CharString index="71">
                        rmoveto
225 235 6 115 -225 233 -70 -69 226 return
                    </CharString>
                    <CharString index="72">
                        2 21 58 229 9 34 return
                    </CharString>
                    <CharString index="73">
                        rmoveto
8 -324 -189 hlineto
60 108 60 109 61 107 rrcurveto
8 -599 rmoveto
398 hlineto
10 90 58 callgsubr
-456 hlineto
-135 -228 -128 -231 -123 -229 rrcurveto
102 hlineto
35 65 35 66 36 66 rrcurveto
231 hlineto
endchar
                    </CharString>
                    <CharString index="74">
                        69 -13 80 451 80 return
                    </CharString>
                    <CharString index="75">
                        107 14 -214 292 199 286 rlineto
-108 hlineto
-165 -247 rlineto
-75 247 -99 hlineto
return
                    </CharString>
                    <CharString index="76">
                        -81 12 -40 14 29 vvcurveto
24 27 32 108 49 vhcurveto
return
                    </CharString>
                    <CharString index="77">
                        461 rmoveto
90 76 63 92 hvcurveto
hintmask 10111000
-37 callgsubr
hintmask 11011000
-118 68 -63 97 vhcurveto
8 70 rmoveto
-53 -41 37 83 -1 hvcurveto
91 54 85 -20 -75 vvcurveto
-50 -34 -29 -47 vhcurveto
endchar
                    </CharString>
                    <CharString index="78">
                        -1 -86 rlineto
77 hlineto
-1 86 rlineto
endchar
                    </CharString>
                    <CharString index="79">
                        -18 rmoveto
428 687 return
                    </CharString>
                    <CharString index="80">
                        rmoveto
hintmask 00101011
89 6 rlineto
-7 126 -4 170 248 vvcurveto
-97 hlineto
hintmask 10000111
-188 3 -142 3 -103 vhcurveto
-27 -42 -45 -17 -54 hhcurveto
-70 -42 34 107 hvcurveto
339 vlineto
hintmask 10010011
-98 -7 rlineto
-365 vlineto
-137 69 -55 101 81 60 34 39 46 vhcurveto
endchar
                    </CharString>
                    <CharString index="81">
                        -89 -6 rlineto
7 -125 4 -171 -247 vvcurveto
97 hlineto
return
                    </CharString>
                    <CharString index="82">
                        -79 0 76 433 76 return
                    </CharString>
                    <CharString index="83">
                        -48 callsubr
hintmask 10101110
-7 62 rlineto
hintmask 10011110
-26 callsubr
hintmask 11001110
-8 callgsubr
return
                    </CharString>
                    <CharString index="84">
                        96 vstem
536 7 -96 callgsubr
return
                    </CharString>
                    <CharString index="85">
                        85 rmoveto
hintmask 10110000
6 70 -56 -1 1 145 -77 -6 1 -140 70 callgsubr
rlineto
hintmask 01110000
-46 callgsubr
205 1 rcurveline
hintmask 10010000
-1 -86 rlineto
77 hlineto
hintmask 01010000
-1 86 rlineto
endchar
                    </CharString>
                    <CharString index="86">
                        -57 37 -429 -687 rlineto
return
                    </CharString>
                    <CharString index="87">
                        152 0 170 -149 -21 550 138 51 callgsubr
return
                    </CharString>
                    <CharString index="88">
                        140.5 -6 -20 hstemhm
234 79 return
                    </CharString>
                    <CharString index="89">
                        124 0 118 467 -20 return
                    </CharString>
                    <CharString index="90">
                        -74 0 83 502 -20 141 54 callgsubr
158 706 -107 callgsubr
304 -706 rmoveto
14 callgsubr
                    </CharString>
                    <CharString index="91">
                        83 86 -80 callgsubr
return
                    </CharString>
                    <CharString index="92">
                        hintmask 11011000
421 -8 rmoveto
10 86 rlineto
-144 3 -47 20 89 vvcurveto
277 182 80 -182 160 vlineto
hintmask 11101000
-98 -9 rlineto
-151 -88 vlineto
-10 -80 rlineto
98 -294 hlineto
hintmask 11011000
-133 70 -52 209 4 vhcurveto
return
                    </CharString>
                    <CharString index="93">
                        rmoveto
hintmask 01011100
267 -162 112 -364 -47 vhcurveto
-689 vlineto
hintmask 10101100
332 -48 194 143 262 vvcurveto
-100 -19 rmoveto
-190 -96 -95 -230 30 vhcurveto
525 vlineto
236 24 90 -99 -195 vvcurveto
endchar
                    </CharString>
                    <CharString index="94">
                        617 -106 callsubr
return
                    </CharString>
                    <CharString index="95">
                        -21 callsubr
-204 219 rmoveto
219 7 80 60 73 vvcurveto
52 -47 43 -127 22 vhcurveto
return
                    </CharString>
                    <CharString index="96">
                        -72 52 callsubr
229 hlineto
142 75 -17 73 -125 -66 rlineto
191 -99 -244 vlineto
-86 -45 17 -73 69 37 rlineto
-260 vlineto
endchar
                    </CharString>
                    <CharString index="97">
                        669 -78 callgsubr
return
                    </CharString>
                    <CharString index="98">
                        140 -15 86 546 86 hstem
70 101 390 100 vstem
return
                    </CharString>
                    <CharString index="99">
                        -22 772 -20 33 -20 hstemhm
98 372 hintmask 01100000
286 614 rmoveto
184 171 rlineto
hintmask 10100000
-49 49 -128 -117 -131 117 -64 -62 rlineto
hintmask 01100000
187 -158 rlineto
endchar
                    </CharString>
                    <CharString index="100">
                        rmoveto
-206 -197 -83 -161 -160 vvcurveto
-157 82 -158 203 -195 vhcurveto
67 67 rlineto
-189 172 -66 138 138 vvcurveto
136 64 136 194 175 vhcurveto
endchar
                    </CharString>
                    <CharString index="101">
                        -8 81 -52 -21 514 81 28 callsubr
276 99 hintmask 10101100
return
                    </CharString>
                    <CharString index="102">
                        -168 -39 callgsubr
return
                    </CharString>
                    <CharString index="103">
                        -28 callsubr
-21 callsubr
return
                    </CharString>
                    <CharString index="104">
                        vstem
476 75 -92 callgsubr
return
                    </CharString>
                    <CharString index="105">
                        79 21 -21 259 74 252 -20 hstem
103 99 266 99 vstem
468 hmoveto
99 585 -99 -252 -266 252 -99 -585 99 259 266 hlineto
endchar
                    </CharString>
                    <CharString index="106">
                        191 0 126 562 -20 hstem
83 101 421 94 vstem
return
                    </CharString>
                    <CharString index="107">
                        -3 6 callsubr
return
                    </CharString>
                    <CharString index="108">
                        -71 callgsubr
vstem
return
                    </CharString>
                    <CharString index="109">
                        -20 -39 callsubr
return
                    </CharString>
                    <CharString index="110">
                        -65 21 -21 248 73 180 84 hstem
103 99 vstem
430 248 rmoveto
73 -228 180 265 84 -364 -585 99 248 vlineto
endchar
                    </CharString>
                    <CharString index="111">
                        412 rmoveto
2 135 rlineto
-136 hlineto
-2 -135 rlineto
return
                    </CharString>
                    <CharString index="112">
                        9 83 rlineto
-270 177 228 70 -228 172 return
                    </CharString>
                    <CharString index="113">
                        -244 64 186 -21 29 -21 159 64 return
                    </CharString>
                    <CharString index="114">
                        -183 rmoveto
hintmask 10100000
53 -15 79 82 55 144 -44 113 rlinecurve
-125 -6 rlineto
hintmask 01100000
49 1 callgsubr
rrcurveto
endchar
                    </CharString>
                    <CharString index="115">
                        21 0 91.5 505.5 91 return
                    </CharString>
                    <CharString index="116">
                        21 -21 476 85 -12 -20 32 -20 return
                    </CharString>
                    <CharString index="117">
                        -8 84 433 84 hstem
75 102 return
                    </CharString>
                    <CharString index="118">
                        -688 100 245 vlineto
109 4 rlineto
-109 358 rmoveto
143 21 56 -53 -98 vvcurveto
-65 -29 -51 -44 -35 vhcurveto
-126 -3 rlineto
return
                    </CharString>
                    <CharString index="119">
                        -14 rmoveto
157 103 148 222 217 -82 129 -159 -158 -102 -147 -223 -216 82 -130 159 hvcurveto
return
                    </CharString>
                    <CharString index="120">
                        rmoveto
-85 -67 69 138 131 68 68 100 29 32 -5 -10 33 hvcurveto
return
                    </CharString>
                    <CharString index="121">
                        145 -8 rlineto
-616 -143 -78 vlineto
return
                    </CharString>
                    <CharString index="122">
                        68.5 return
                    </CharString>
                    <CharString index="123">
                        hmoveto
6 17 callsubr
-6 -134 rlineto
return
                    </CharString>
                    <CharString index="124">
                        134 rlineto
-136 hlineto
return
                    </CharString>
                    <CharString index="125">
                        -53 16 -79 -83 -55 -144 45 -114 rlinecurve
124 8 -49 107 return
                    </CharString>
                    <CharString index="126">
                        322 -13 79 -79 86 168 72 -66 67 157 87 -84 87 40 callsubr
95 255 96 hintmask 0101011110000000
return
                    </CharString>
                    <CharString index="127">
                        31 55 31 56 32 56 rrcurveto
204 hlineto
endchar
                    </CharString>
                    <CharString index="128">
                        15 callgsubr
hintmask 10110000
-8 -73 rlineto
hintmask 11010000
14 callsubr
return
                    </CharString>
                    <CharString index="129">
                        335 476 rmoveto
69 44 -34 -106 hvcurveto
-336 97 368 vlineto
137 -69 56 -102 -75 -56 -29 -35 -45 vhcurveto
return
                    </CharString>
                    <CharString index="130">
                        -103 -8 86 389 80 151 57 callsubr
142 98 return
                    </CharString>
                    <CharString index="131">
                        34 callsubr
rlineto
return
                    </CharString>
                    <CharString index="132">
                        -55 52 -42 147 -15 vhcurveto
return
                    </CharString>
                    <CharString index="133">
                        37 -14 82 410 83 return
                    </CharString>
                    <CharString index="134">
                        108 16 -247 344 230 336 rlineto
-109 hlineto
-197 -294 rlineto
-85 294 -100 hlineto
return
                    </CharString>
                    <CharString index="135">
                        -9 37 callsubr
return
                    </CharString>
                    <CharString index="136">
                        -89 6 -46 callgsubr
rlinecurve
205 1 -29 callsubr
                    </CharString>
                    <CharString index="137">
                        40 callsubr
96 return
                    </CharString>
                    <CharString index="138">
                        -44 -7 82 425 95 return
                    </CharString>
                    <CharString index="139">
                        -22 666 88 hstem
111 347 vstem
458 754 -61 callgsubr
endchar
                    </CharString>
                    <CharString index="140">
                        60 150 70 hstem
89 77 175 79 vstem
171 return
                    </CharString>
                    <CharString index="141">
                        376 -28 callsubr
return
                    </CharString>
                    <CharString index="142">
                        hstem
66 96 254 96 vstem
return
                    </CharString>
                    <CharString index="143">
                        hstem
66 96 303 96 vstem
return
                    </CharString>
                    <CharString index="144">
                        -20 hstemhm
103 99 return
                    </CharString>
                    <CharString index="145">
                        33 -14 81 -49 -21 27 -21 470 88 210 57 callsubr
66 95 262 97 return
                    </CharString>
                    <CharString index="146">
                        -74 2 callgsubr
return
                    </CharString>
                    <CharString index="147">
                        hstemhm
72 96 230 return
                    </CharString>
                    <CharString index="148">
                        118 -9 87 -57 -21 611 88 -10 -20 hstemhm
113 100 326 100 hintmask 10101100
return
                    </CharString>
                    <CharString index="149">
                        533 0 154 -151 -21 39 -21 85.5 15 callsubr
return
                    </CharString>
                    <CharString index="150">
                        rmoveto
317 hlineto
10 85 rlineto
-232 794 227 85 -322 hlineto
endchar
                    </CharString>
                    <CharString index="151">
                        0 11 -3 4 -5 -5 -3 -4 0 hflex1
return
                    </CharString>
                    <CharString index="152">
                        10 callsubr
178 102 return
                    </CharString>
                    <CharString index="153">
                        83 192 82 vstem
return
                    </CharString>
                    <CharString index="154">
                        hstem
113 100 return
                    </CharString>
                    <CharString index="155">
                        73 0 -20 38 -20 hstemhm
77 callgsubr
return
                    </CharString>
                    <CharString index="156">
                        rmoveto
-7 -84 rlineto
325 963 -321 -84 226 -795 hlineto
endchar
                    </CharString>
                    <CharString index="157">
                        -3 1 -21 152 73 99 69 return
                    </CharString>
                    <CharString index="158">
                        hstemhm
43 522 return
                    </CharString>
                    <CharString index="159">
                        2 callgsubr
vstem
462 hmoveto
8 83 rlineto
-268 return
                    </CharString>
                    <CharString index="160">
                        -20 24 -20 23 -20 return
                    </CharString>
                    <CharString index="161">
                        hstem
224 98 vstem
return
                    </CharString>
                    <CharString index="162">
                        64 hstemhm
341 85 callgsubr
495 return
                    </CharString>
                    <CharString index="163">
                        337 0 90 107 78 33 78 213 89 hstem
446 100 vstem
return
                    </CharString>
                    <CharString index="164">
                        -20 29 -20 hstemhm
return
                    </CharString>
                    <CharString index="165">
                        rmoveto
-270 177 228 70 -228 172 266 83 return
                    </CharString>
                    <CharString index="166">
                        -99 9 -49 -82 -53 -77 -59 -74 rlinecurve
-71 -1 rlineto
473 vlineto
return
                    </CharString>
                    <CharString index="167">
                        0 90 598 74 callsubr
return
                    </CharString>
                    <CharString index="168">
                        -75 -8 87 389 87 hstem
80 98 return
                    </CharString>
                    <CharString index="169">
                        90 514 104 hstem
70 103 return
                    </CharString>
                    <CharString index="170">
                        57 callgsubr
hstem
return
                    </CharString>
                    <CharString index="171">
                        -45 callsubr
hstemhm
103 90 return
                    </CharString>
                    <CharString index="172">
                        688 rmoveto
-3 -126 rlineto
128 hlineto
3 126 rlineto
return
                    </CharString>
                    <CharString index="173">
                        779 rmoveto
-979 91 vlineto
hintmask 01100000
988 vlineto
endchar
                    </CharString>
                    <CharString index="174">
                        rmoveto
3 126 rlineto
-128 hlineto
-3 -126 rlineto
endchar
                    </CharString>
                    <CharString index="175">
                        73 302 74 return
                    </CharString>
                    <CharString index="176">
                        -71 45 callsubr
vstem
return
                    </CharString>
                    <CharString index="177">
                        40 callgsubr
218 103 vstem
return
                    </CharString>
                    <CharString index="178">
                        7 callgsubr
endchar
                    </CharString>
                    <CharString index="179">
                        87 hstem
89 445 vstem
534 return
                    </CharString>
                    <CharString index="180">
                        hstem
234 100 vstem
return
                    </CharString>
                    <CharString index="181">
                        -20 47 callsubr
return
                    </CharString>
                    <CharString index="182">
                        78 176 77 return
                    </CharString>
                    <CharString index="183">
                        -21 32 -21 28 -21 240 77.5 return
                    </CharString>
                    <CharString index="184">
                        -97 -9 rlineto
-779 97 240 vlineto
73 2 rlineto
return
                    </CharString>
                    <CharString index="185">
                        -29 0 89 368 90 return
                    </CharString>
                    <CharString index="186">
                        533 -11 64 -50 -21 return
                    </CharString>
                    <CharString index="187">
                        136 -129.5 136 hintmask 11010000
return
                    </CharString>
                    <CharString index="188">
                        55 callgsubr
127 91 70 70 82 vvcurveto
return
                    </CharString>
                    <CharString index="189">
                        8 21 -21 599 89 hstem
251 100 vstem
return
                    </CharString>
                    <CharString index="190">
                        -20 hstemhm
38 494 hintmask 10111000
return
                    </CharString>
                    <CharString index="191">
                        134 hstem
118 136 return
                    </CharString>
                    <CharString index="192">
                        84 795 84 hstem
289 95 vstem
66 return
                    </CharString>
                    <CharString index="193">
                        -21 24 -21 169 71 258 85 hstemhm
return
                    </CharString>
                    <CharString index="194">
                        12 -9 62 callsubr
vstem
return
                    </CharString>
                    <CharString index="195">
                        -20 hstemhm
197 return
                    </CharString>
                <CharString name=".notdef">
                    -91 -200 50 900 50 hstem
0 50 400 50 vstem
-200 vmoveto
500 1000 -500 hlineto
71 -50 rmoveto
358 hlineto
-179 -390 rlineto
200 316 rmoveto
-752 vlineto
-172 376 rlineto
-228 -376 rmoveto
752 vlineto
172 -376 rlineto
28 -60 rmoveto
179 -390 rlineto
-358 hlineto
endchar
                </CharString>
                <CharString name="A">
                    -59 callgsubr
hstemhm
44 579 hintmask 10011100
521 -4 -91 callsubr
                </CharString>
                <CharString name="A.sc">
                    -83 callsubr
51 callsubr
hintmask 10011100
465 -3 -85 callsubr
                </CharString>
                <CharString name="AE">
                    56 callsubr
438 599 -34 callsubr
                </CharString>
                <CharString name="AE.sc">
                    24 callgsubr
hstemhm
404 99 hintmask 10111000
396 504 rmoveto
8 hlineto
hintmask 11111000
-266 -164 vlineto
hintmask 10111000
-69 callgsubr
hintmask 11111000
20 callsubr
                </CharString>
                <CharString name="AEacute">
                    56 callsubr
432 809 -107 callgsubr
6 -210 -34 callsubr
                </CharString>
                <CharString name="AEacute.sc">
                    24 callgsubr
121 -20 hstemhm
404 99 hintmask 10111100
389 706 -107 callgsubr
7 -202 rmoveto
8 hlineto
hintmask 11111100
-266 -164 vlineto
hintmask 10111100
-69 callgsubr
hintmask 11111100
20 callsubr
                </CharString>
                <CharString name="Aacute">
                    -59 callgsubr
hstemhm
44 579 hintmask 00111100
216 809 -107 callgsubr
hintmask 10011100
305 -813 -91 callsubr
                </CharString>
                <CharString name="Aacute.sc">
                    -83 callsubr
120 -20 6 callgsubr
186 706 -107 callgsubr
hintmask 10011110
279 -709 -106 callgsubr
                </CharString>
                <CharString name="Abreve">
                    -59 callgsubr
78 83 hstemhm
44 579 hintmask 00111110
332 768 -105 callsubr
hintmask 10011110
189 -772 rmoveto
hintmask 00111110
102 8 -70 229 -73 227 -79 230 rlinecurve
-136 hlineto
hintmask 01011110
-80 callsubr
hintmask 10011110
21 -71 21 -71 21 -70 rrcurveto
hintmask 00111110
-82 callgsubr
                </CharString>
                <CharString name="Abreve.sc">
                    -83 callsubr
79 83 6 callgsubr
303 665 -105 callsubr
hintmask 10011110
162 -668 -106 callgsubr
                </CharString>
                <CharString name="Acircumflex">
                    -59 callgsubr
hstemhm
44 579 hintmask 00111100
459 765 -102 callsubr
hintmask 10011100
193 -887 -91 callsubr
                </CharString>
                <CharString name="Acircumflex.sc">
                    -83 callsubr
125 -20 6 callgsubr
430 662 -102 callsubr
hintmask 10011110
166 -783 -106 callgsubr
                </CharString>
                <CharString name="Adieresis">
                    -59 callgsubr
86 148 hstemhm
171 101 121 -71 callgsubr
hintmask 00111111
493 776 -102 callgsubr
hintmask 10011111
351 -780 rmoveto
hintmask 00111111
102 8 -70 229 -73 227 -79 230 rlinecurve
-136 hlineto
hintmask 01011111
-80 callsubr
hintmask 10011111
21 -71 21 -71 21 -70 rrcurveto
hintmask 00111111
-82 callgsubr
                </CharString>
                <CharString name="Adieresis.sc">
                    -69 callsubr
                </CharString>
                <CharString name="Agrave">
                    -59 callgsubr
hstemhm
44 579 hintmask 00111100
439 804 -100 callsubr
hintmask 10011100
113 -762 -91 callsubr
                </CharString>
                <CharString name="Agrave.sc">
                    -83 callsubr
115 -20 6 callgsubr
410 701 -100 callsubr
hintmask 10011110
86 -658 -106 callgsubr
                </CharString>
                <CharString name="Amacron">
                    -59 callgsubr
118 88 hstemhm
44 579 hintmask 00111110
504 896 -61 callgsubr
hintmask 10011110
17 -812 rmoveto
hintmask 00111110
102 8 -70 229 -73 227 -79 230 rlinecurve
-136 hlineto
hintmask 01011110
-80 callsubr
hintmask 10011110
21 -71 21 -71 21 -70 rrcurveto
hintmask 00111110
-82 callgsubr
                </CharString>
                <CharString name="Amacron.sc">
                    -83 callsubr
119 88 6 callgsubr
474 793 -61 callgsubr
hintmask 10011110
-9 -708 -106 callgsubr
                </CharString>
                <CharString name="Aogonek">
                    76 21 -21 25 -21 204 78 311 93 hstemhm
401 87 hintmask 01111000
600 -236 rmoveto
9 81 rlineto
-81 11 -40 15 28 vvcurveto
24 26 32 109 49 vhcurveto
-70 229 -73 227 -79 230 rrcurveto
-136 hlineto
hintmask 10111000
-80 callsubr
20 -66 20 -66 19 -65 rrcurveto
-86 -48 -30 -44 -42 vvcurveto
hintmask 01111000
-55 51 -43 148 -15 vhcurveto
-273 833 rmoveto
8 hlineto
34 -103 33 -104 32 -104 rrcurveto
-206 hlineto
32 104 33 103 34 104 rrcurveto
endchar
                </CharString>
                <CharString name="Aogonek.sc">
                    -65 callsubr
                </CharString>
                <CharString name="Aring">
                    -59 callgsubr
62 228 hstemhm
44 579 hintmask 00111110
329 980 -82 callsubr
hintmask 10011110
192 -984 rmoveto
hintmask 00111110
102 8 -70 229 -73 227 -79 230 rlinecurve
-136 hlineto
hintmask 01011110
-80 callsubr
hintmask 10011110
21 -71 21 -71 21 -70 rrcurveto
hintmask 00111110
-82 callgsubr
                </CharString>
                <CharString name="Aring.sc">
                    -83 callsubr
63 228 6 callgsubr
299 877 -82 callsubr
hintmask 10011110
166 -880 -106 callgsubr
                </CharString>
                <CharString name="Aringacute">
                    -59 callgsubr
hstemhm
44 579 hintmask 00111100
216 1067 -107 callgsubr
113 -87 -82 callsubr
hintmask 10011100
192 -984 -91 callsubr
                </CharString>
                <CharString name="Aringacute.sc">
                    -83 callsubr
51 callsubr
hintmask 00111100
186 964 -107 callgsubr
113 -87 -82 callsubr
hintmask 10011100
166 -880 -85 callsubr
                </CharString>
                <CharString name="Atilde">
                    -59 callgsubr
82 85 18 85 hstemhm
44 579 hintmask 00111101
408 772 -78 callgsubr
hintmask 00111111
-85 callgsubr
hintmask 00111101
19 callgsubr
hintmask 10011101
113 -776 rmoveto
hintmask 00111101
102 8 -70 229 -73 227 -79 230 rlinecurve
-136 hlineto
hintmask 01011101
-80 callsubr
hintmask 10011101
21 -71 21 -71 21 -70 rrcurveto
hintmask 00111101
-82 callgsubr
                </CharString>
                <CharString name="Atilde.sc">
                    -74 callgsubr
                </CharString>
                <CharString name="B">
                    49 -10 84 -53 -21 305 79 228 86 -10 -20 hstemhm
113 100 238 97 -74 100 hintmask 10110101
574 201 rmoveto
87 -53 53 -93 24 vhcurveto
hintmask 01101110
71 30 49 54 80 vvcurveto
154 -181 36 -254 -31 vhcurveto
-688 vlineto
hintmask 10110101
251 -35 210 56 180 vvcurveto
-361 408 rmoveto
hintmask 10110110
150 15 88 -31 -90 vvcurveto
-88 -57 -36 -181 5 vhcurveto
hintmask 10110101
-303 vmoveto
224 vlineto
172 8 89 -21 -100 vvcurveto
-104 -89 -29 -172 22 vhcurveto
endchar
                </CharString>
                <CharString name="B.sc">
                    -62 callsubr
                </CharString>
                <CharString name="C">
                    87 callsubr
527 81 -71 callsubr
endchar
                </CharString>
                <CharString name="C.sc">
                    -44 -7 82 425 95 hstem
64 100 -3 callsubr
endchar
                </CharString>
                <CharString name="Cacute">
                    87 callsubr
222 816 -107 callgsubr
305 -735 -71 callsubr
endchar
                </CharString>
                <CharString name="Cacute.sc">
                    31 callsubr
118 -20 hstem
64 100 vstem
190 713 -107 callgsubr
286 -638 -92 callgsubr
endchar
                </CharString>
                <CharString name="Ccaron">
                    87 callsubr
345 763 -103 callsubr
183 -682 -71 callsubr
endchar
                </CharString>
                <CharString name="Ccaron.sc">
                    86 callgsubr
313 660 -103 callsubr
164 -585 -92 callgsubr
endchar
                </CharString>
                <CharString name="Ccedilla">
                    12 -253 80 164 62 callsubr
184 75 vstem
527 81 -71 callsubr
-264 -75 rmoveto
-86 callgsubr
                </CharString>
                <CharString name="Ccedilla.sc">
                    -54 callgsubr
                </CharString>
                <CharString name="Cdotaccent">
                    12 -9 90 514 104 84 148 hstem
70 103 118.5 1 callsubr
391 783 -77 callgsubr
237 -702 -71 callsubr
endchar
                </CharString>
                <CharString name="Cdotaccent.sc">
                    31 callsubr
85 148 hstem
64 100 95.5 1 callsubr
359 680 -77 callgsubr
218 -605 -92 callgsubr
endchar
                </CharString>
                <CharString name="D">
                    41 callsubr
639 357 -14 callsubr
                </CharString>
                <CharString name="D.sc">
                    48 callgsubr
577 303 -70 callsubr
                </CharString>
                <CharString name="Dcaron">
                    41 callsubr
347 765 -103 callsubr
293 -408 -14 callsubr
                </CharString>
                <CharString name="Dcaron.sc">
                    48 callgsubr
316 661 -103 callsubr
262 -358 -70 callsubr
                </CharString>
                <CharString name="Dcroat">
                    -56 callgsubr
                </CharString>
                <CharString name="Dcroat.sc">
                    -87 callgsubr
                </CharString>
                <CharString name="E">
                    -27 callgsubr
47 callsubr
vstem
521 90 rmoveto
-74 callsubr
                </CharString>
                <CharString name="E.sc">
                    -66 callgsubr
hstem
103 99 vstem
472 83 rmoveto
-93 callgsubr
                </CharString>
                <CharString name="Eacute">
                    -27 callgsubr
47 callsubr
vstem
197 809 -107 callgsubr
324 -719 rmoveto
-74 callsubr
                </CharString>
                <CharString name="Eacute.sc">
                    -66 callgsubr
121 54 callgsubr
167 706 -107 callgsubr
305 -623 rmoveto
-93 callgsubr
                </CharString>
                <CharString name="Ebreve">
                    -27 callgsubr
80 83 47 callsubr
vstem
314 768 -105 callsubr
207 -678 rmoveto
-74 callsubr
                </CharString>
                <CharString name="Ebreve.sc">
                    -66 callgsubr
80 83 hstem
103 99 vstem
283 665 -105 callsubr
189 -582 rmoveto
-93 callgsubr
                </CharString>
                <CharString name="Ecaron">
                    -27 callgsubr
47 callsubr
vstem
320 756 -103 callsubr
202 -666 rmoveto
-74 callsubr
                </CharString>
                <CharString name="Ecaron.sc">
                    -66 callgsubr
hstem
103 99 vstem
290 653 -103 callsubr
183 -570 rmoveto
-93 callgsubr
                </CharString>
                <CharString name="Ecircumflex">
                    -27 callgsubr
47 callsubr
vstem
441 765 -102 callsubr
211 -793 rmoveto
-74 callsubr
                </CharString>
                <CharString name="Ecircumflex.sc">
                    -66 callgsubr
126 54 callgsubr
411 662 -102 callsubr
192 -697 rmoveto
-93 callgsubr
                </CharString>
                <CharString name="Edieresis">
                    -27 callgsubr
88 148 hstemhm
113 100 -61 101 121 -71 callgsubr
hintmask 11111010
474 776 rmoveto
3 -46 callsubr
-102 hlineto
-2 -148 rlineto
hintmask 11110110
-121 hmoveto
2 -46 callsubr
-101 hlineto
-2 -148 rlineto
370 -686 rmoveto
hintmask 11111010
-74 callsubr
                </CharString>
                <CharString name="Edieresis.sc">
                    -48 callgsubr
                </CharString>
                <CharString name="Edotaccent">
                    -27 callgsubr
88 148 47 callsubr
53.5 1 callsubr
366 776 -77 callgsubr
256 -686 rmoveto
-74 callsubr
                </CharString>
                <CharString name="Edotaccent.sc">
                    -66 callgsubr
88 148 hstem
103 99 34.5 1 callsubr
336 673 -77 callgsubr
237 -590 rmoveto
-93 callgsubr
                </CharString>
                <CharString name="Egrave">
                    -27 callgsubr
47 callsubr
vstem
421 804 -100 callsubr
131 -668 rmoveto
-74 callsubr
                </CharString>
                <CharString name="Egrave.sc">
                    -66 callgsubr
116 54 callgsubr
390 701 -100 callsubr
113 -572 rmoveto
-93 callgsubr
                </CharString>
                <CharString name="Emacron">
                    -27 callgsubr
120 88 47 callsubr
vstem
485 896 -61 callgsubr
36 -718 rmoveto
-74 callsubr
                </CharString>
                <CharString name="Emacron.sc">
                    -66 callgsubr
120 88 hstem
103 99 vstem
455 793 -61 callgsubr
17 -622 rmoveto
-93 callgsubr
                </CharString>
                <CharString name="Eogonek">
                    -27 callgsubr
47 callsubr
77 87 vstem
498 -160 rmoveto
-31 callsubr
-1 2 10 88 58 callgsubr
-403 -688 282 hlineto
-78 -46 -27 -42 -40 vvcurveto
25 callsubr
endchar
                </CharString>
                <CharString name="Eogonek.sc">
                    -36 callgsubr
                </CharString>
                <CharString name="Eth">
                    -56 callgsubr
                </CharString>
                <CharString name="Eth.sc">
                    -87 callgsubr
                </CharString>
                <CharString name="Euro">
                    33 -3 -21 227 85 -75 77 94 77 253 -20 hstemhm
136 94 hintmask 11011100
544 60 rmoveto
hintmask 10111100
-184 28 -79 47 -31 78 rrcurveto
230 hlineto
4 77 rlineto
-252 hlineto
-1 18 -1 19 21 vvcurveto
13 0 12 1 11 vhcurveto
256 hlineto
4 77 rlineto
-249 hlineto
25 85 73 38 195 29 -17 101 rcurveline
-236 -46 -97 -84 -34 -115 rrcurveto
-82 -85 68 hlineto
hintmask 11011100
-1 -13 0 -13 -14 vvcurveto
-19 1 -19 1 -18 vhcurveto
-69 -85 85 hlineto
39 -124 105 -78 231 -25 rrcurveto
endchar
                </CharString>
                <CharString name="F">
                    -13 21 -21 297 78 224 89 47 callsubr
vstem
475 297 rmoveto
78 -262 224 303 89 -403 -688 100 297 vlineto
endchar
                </CharString>
                <CharString name="F.sc">
                    3 callsubr
                </CharString>
                <CharString name="G">
                    78 callgsubr
hstem
70 102 322 100 vstem
595 8 -73 callgsubr
endchar
                </CharString>
                <CharString name="G.sc">
                    29 -9 76 433 95 hstem
64 100 274 -23 callsubr
endchar
                </CharString>
                <CharString name="Gbreve">
                    78 callgsubr
76 83 hstem
70 102 322 100 vstem
366 775 -105 callsubr
229 -767 -73 callgsubr
endchar
                </CharString>
                <CharString name="Gbreve.sc">
                    29 -9 76 433 95 77 83 hstem
64 100 274 96 vstem
333 672 -105 callsubr
203 -665 -96 callgsubr
endchar
                </CharString>
                <CharString name="Gcommaaccent">
                    78 callgsubr
hstem
70 102 146 105 71 100 vstem
595 8 -73 callgsubr
-298 -311 -103 callgsubr
                </CharString>
                <CharString name="Gcommaaccent.sc">
                    -61 callsubr
                </CharString>
                <CharString name="Gdotaccent">
                    78 callgsubr
84 148 hstem
70 102 146.5 -71 callgsubr
74 100 vstem
418 783 -77 callgsubr
278 -775 -73 callgsubr
endchar
                </CharString>
                <CharString name="Gdotaccent.sc">
                    29 -9 76 433 95 85 148 hstem
64 100 121.5 -71 callgsubr
51 96 vstem
385 680 -77 callgsubr
252 -673 -96 callgsubr
endchar
                </CharString>
                <CharString name="H">
                    147 21 -21 308 78 302 74 callsubr
312 100 vstem
525 hmoveto
100 688 -100 -302 -312 302 -100 -688 100 308 312 hlineto
endchar
                </CharString>
                <CharString name="H.sc">
                    -2 callsubr
                </CharString>
                <CharString name="Hbar">
                    178 21 -21 290 78 117 78 -74 70 -70 199 hstemhm
129 99 313 100 hintmask 11010110
541 368 rmoveto
-313 121 313 hlineto
-489 vmoveto
100 hlineto
hintmask 11100110
485 76 78 -76 vlineto
hintmask 11001110
125 -100 vlineto
hintmask 11010110
-129 -313 vlineto
hintmask 11001110
129 -99 vlineto
hintmask 11100110
-125 -76 -78 76 -485 99 290 313 vlineto
endchar
                </CharString>
                <CharString name="Hbar.sc">
                    -40 callgsubr
                </CharString>
                <CharString name="I">
                    26 callgsubr
73 callsubr
334 605 -72 callsubr
                </CharString>
                <CharString name="I.sc">
                    -25 callsubr
27 callgsubr
305 509 -95 callsubr
                </CharString>
                <CharString name="Iacute">
                    26 callgsubr
73 callsubr
172 809 -107 callgsubr
162 -204 -72 callsubr
                </CharString>
                <CharString name="Iacute.sc">
                    -25 callsubr
121 -20 27 callgsubr
143 706 -107 callgsubr
162 -197 -95 callsubr
                </CharString>
                <CharString name="Ibreve">
                    26 callgsubr
80 83 73 callsubr
288 768 -105 callsubr
46 -163 -72 callsubr
                </CharString>
                <CharString name="Ibreve.sc">
                    -25 callsubr
80 83 27 callgsubr
259 665 -105 callsubr
46 -156 -95 callsubr
                </CharString>
                <CharString name="Icircumflex">
                    26 callgsubr
73 callsubr
416 765 -102 callsubr
49 -278 -72 callsubr
                </CharString>
                <CharString name="Icircumflex.sc">
                    -25 callsubr
126 -20 27 callgsubr
386 662 -102 callsubr
50 -271 -95 callsubr
                </CharString>
                <CharString name="Idieresis">
                    26 callgsubr
88 148 hstemhm
127 101 6 100 15 -71 callgsubr
hintmask 11110100
449 776 -102 callgsubr
hintmask 11101000
208 -171 -72 callsubr
                </CharString>
                <CharString name="Idieresis.sc">
                    -25 callsubr
88 148 hstemhm
97 101 8 99 14 -71 callgsubr
vstemhm
419 673 -102 callgsubr
hintmask 11101000
209 -164 -95 callsubr
                </CharString>
                <CharString name="Idotaccent">
                    26 callgsubr
88 148 hstemhm
234 100 -93.5 -71 callgsubr
hintmask 11101000
340 776 -77 callgsubr
hintmask 11110000
95 -171 -72 callsubr
                </CharString>
                <CharString name="Idotaccent.sc">
                    -25 callsubr
88 148 hstemhm
206 99 -93.5 -71 callgsubr
hintmask 11101000
311 673 -77 callgsubr
hintmask 11110000
95 -164 -95 callsubr
                </CharString>
                <CharString name="Igrave">
                    26 callgsubr
73 callsubr
395 804 -100 callsubr
-30 -153 -72 callsubr
                </CharString>
                <CharString name="Igrave.sc">
                    -25 callsubr
116 -20 27 callgsubr
366 701 -100 callsubr
-30 -146 -95 callsubr
                </CharString>
                <CharString name="Imacron">
                    26 callgsubr
120 88 73 callsubr
460 896 -61 callgsubr
-126 -203 -72 callsubr
                </CharString>
                <CharString name="Imacron.sc">
                    -25 callsubr
120 88 27 callgsubr
430 793 -61 callgsubr
-125 -196 -95 callsubr
                </CharString>
                <CharString name="Iogonek">
                    26 callgsubr
hstemhm
155 86 -7 100 hintmask 11010000
372 -160 rmoveto
hintmask 11100000
-86 15 -45 16 35 vvcurveto
21 21 31 71 42 vhcurveto
148 hlineto
8 83 rlineto
hintmask 11010000
-155 522 150 83 -400 -83 150 -522 hlineto
hintmask 11100000
-150 -83 153 hlineto
-59 -41 -23 -37 -38 37 callgsubr
                </CharString>
                <CharString name="Iogonek.sc">
                    -42 callgsubr
                </CharString>
                <CharString name="J">
                    -86 -11 92 524 83 hstem
302 100 vstem
104 688 rmoveto
-83 198 -376 vlineto
-131 -21 -26 -214 12 vhcurveto
-95 vlineto
252 -8 83 92 157 vvcurveto
458 vlineto
endchar
                </CharString>
                <CharString name="J.sc">
                    -6 callgsubr
                </CharString>
                <CharString name="K">
                    52 callgsubr
hintmask 10011100
513 -8 rmoveto
hintmask 00111100
27 callsubr
hintmask 01011100
-688 100 304 78 vlineto
endchar
                </CharString>
                <CharString name="K.sc">
                    -23 callgsubr
                </CharString>
                <CharString name="Kcommaaccent">
                    52 callgsubr
76 105 hintmask 10011110
513 -8 rmoveto
hintmask 00111110
27 callsubr
hintmask 01011110
-688 100 304 78 vlineto
-23 -604 -103 callgsubr
                </CharString>
                <CharString name="Kcommaaccent.sc">
                    -50 callgsubr
                </CharString>
                <CharString name="L">
                    87 callgsubr
vstem
509 hmoveto
71 callsubr
                </CharString>
                <CharString name="L.sc">
                    -74 52 callsubr
502 -99 -585 hlineto
endchar
                </CharString>
                <CharString name="Lacute">
                    87 callgsubr
vstem
194 809 -107 callgsubr
315 -809 68 callgsubr
                </CharString>
                <CharString name="Lacute.sc">
                    -17 callsubr
                </CharString>
                <CharString name="Lcaron">
                    -23 0 90 598 -20 110 74 callsubr
177 99 vstem
371 515 -65 callgsubr
138 -515 68 callgsubr
                </CharString>
                <CharString name="Lcaron.sc">
                    -17 callgsubr
                </CharString>
                <CharString name="Lcommaaccent">
                    87 callgsubr
50 105 vstem
509 hmoveto
7 callgsubr
129 -292 -103 callgsubr
                </CharString>
                <CharString name="Lcommaaccent.sc">
                    39 callsubr
32 105 vstem
462 hmoveto
-44 callgsubr
110 -292 -103 callgsubr
                </CharString>
                <CharString name="Ldot">
                    -21 0 90 197 128 273 74 callsubr
173.5 109 vstem
509 hmoveto
7 callgsubr
379 287 rmoveto
7 128 rlineto
-109 hlineto
-7 -128 rlineto
endchar
                </CharString>
                <CharString name="Ldot.sc">
                    -15 callgsubr
                </CharString>
                <CharString name="Lslash">
                    -21 60 callsubr
vstem
509 hmoveto
10 90 rlineto
-306 284 hlineto
144 76 -17 74 -127 -67 rlineto
231 -100 -284 vlineto
-87 -46 17 -74 70 37 rlineto
-321 vlineto
endchar
                </CharString>
                <CharString name="Lslash.sc">
                    -11 callsubr
                </CharString>
                <CharString name="M">
                    284 21 -21 61.5 144.5 349 133 hstem
36 callgsubr
457 99.5 vstem
619 688 rmoveto
0 -160 -446 -14 -36 vhcurveto
-8 hlineto
-14 36 -159 446 0 vvcurveto
-151 -688 94 hlineto
-3 555 rlineto
7 hlineto
181 -494 83 1 181 493 rlineto
8 hlineto
-3 -555 rlineto
101 688 hlineto
endchar
                </CharString>
                <CharString name="M.sc">
                    -49 callgsubr
                </CharString>
                <CharString name="N">
                    -20 callsubr
331.5 93 hintmask 01111000
513 hmoveto
117 688 -94 hlineto
hintmask 10111000
-47 callgsubr
endchar
                </CharString>
                <CharString name="N.sc">
                    64 callsubr
285.5 91.5 hintmask 01111000
457 hmoveto
17 callgsubr
hintmask 10111000
-79 callsubr
endchar
                </CharString>
                <CharString name="NUL">
                    -587 endchar
                </CharString>
                <CharString name="Nacute">
                    -20 callsubr
331.5 93 hintmask 01111000
257 809 -107 callgsubr
256 -809 rmoveto
117 688 -94 hlineto
hintmask 10111000
-47 callgsubr
endchar
                </CharString>
                <CharString name="Nacute.sc">
                    -52 callsubr
                </CharString>
                <CharString name="Ncaron">
                    -20 callsubr
331.5 93 hintmask 01111000
380 756 -103 callsubr
134 -756 rmoveto
117 688 -94 hlineto
hintmask 10111000
-47 callgsubr
endchar
                </CharString>
                <CharString name="Ncaron.sc">
                    64 callsubr
285.5 91.5 hintmask 01111000
345 653 -103 callsubr
113 -653 rmoveto
17 callgsubr
hintmask 10111000
-79 callsubr
endchar
                </CharString>
                <CharString name="Ncommaaccent">
                    -20 callsubr
120.5 105 106 93 hintmask 01111100
513 hmoveto
117 688 -94 hlineto
hintmask 10111100
-47 callgsubr
93 -842 -103 callgsubr
                </CharString>
                <CharString name="Ncommaaccent.sc">
                    -51 callgsubr
                </CharString>
                <CharString name="Ntilde">
                    152 0 170 -149 -21 550 138 84 85 18 85 51 callgsubr
331.5 93 hintmask 01110110
450 772 -78 callgsubr
hintmask 01111110
-85 callgsubr
hintmask 01110110
19 callgsubr
63 -772 rmoveto
117 688 -94 hlineto
hintmask 10110110
-47 callgsubr
endchar
                </CharString>
                <CharString name="Ntilde.sc">
                    -63 callsubr
                </CharString>
                <CharString name="O">
                    -9 callsubr
349 -15 -99 callsubr
                </CharString>
                <CharString name="O.sc">
                    -33 callsubr
-30 callgsubr
315 -13 -107 callsubr
                </CharString>
                <CharString name="OE">
                    378 0 90 218 78 213 89 hstem
70 100 318 100 vstem
170 351 rmoveto
179 98 65 220 2 vhcurveto
-507 vlineto
-222 3 -96 77 181 vvcurveto
726 -261 rmoveto
-308 218 261 78 -261 213 302 89 -354 hlineto
-301 -165 -129 -226 -233 144 -100 317 hvcurveto
355 hlineto
endchar
                </CharString>
                <CharString name="OE.sc">
                    -51 callsubr
                </CharString>
                <CharString name="Oacute">
                    -9 callsubr
256 821 -107 callgsubr
93 -836 -99 callsubr
                </CharString>
                <CharString name="Oacute.sc">
                    -33 callsubr
-30 callgsubr
220 717 -107 callgsubr
95 -730 -107 callsubr
                </CharString>
                <CharString name="Obreve">
                    140 -15 86 546 86 77 83 hstem
70 101 390 100 vstem
372 780 -105 callsubr
-23 -795 -99 callsubr
                </CharString>
                <CharString name="Obreve.sc">
                    -33 callsubr
78 83 -30 callgsubr
337 676 -105 callsubr
-22 -689 -107 callsubr
                </CharString>
                <CharString name="Ocircumflex">
                    -9 callsubr
499 777 -102 callsubr
-19 -910 -99 callsubr
                </CharString>
                <CharString name="Ocircumflex.sc">
                    -33 callsubr
-30 callgsubr
464 673 -102 callsubr
-18 -804 -107 callsubr
                </CharString>
                <CharString name="Odieresis">
                    140 -15 86 546 86 85 148 hstemhm
70 101 40 101 121 -71 callgsubr
26.5 100 vstemhm
533 788 -102 callgsubr
139 -803 rmoveto
hintmask 11111010
172 140 144 234 211 -118 129 -161 -172 -140 -143 -235 hvcurveto
hintmask 11111110
-211 118 -129 161 vhcurveto
hintmask 11111010
10 632 rmoveto
118 84 -102 -179 -171 -72 -94 -117 -118 -83 102 179 171 72 94 116 hvcurveto
endchar
                </CharString>
                <CharString name="Odieresis.sc">
                    -33 callsubr
86 148 hstemhm
64 100 11 101 121 -71 callgsubr
-1.5 100 hintmask 11101100
497 684 -102 callgsubr
hintmask 11111010
141 -697 -107 callsubr
                </CharString>
                <CharString name="Ograve">
                    -9 callsubr
479 816 -100 callsubr
-99 -785 -99 callsubr
                </CharString>
                <CharString name="Ograve.sc">
                    -33 callsubr
114 -20 -30 callgsubr
443 712 -100 callsubr
-97 -679 -107 callsubr
                </CharString>
                <CharString name="Ohungarumlaut">
                    -9 callsubr
213 814 -94 callsubr
-77 -829 -99 callsubr
                </CharString>
                <CharString name="Ohungarumlaut.sc">
                    -33 callsubr
112 -20 -30 callgsubr
177 710 -94 callsubr
-75 -723 -107 callsubr
                </CharString>
                <CharString name="Omacron">
                    140 -15 86 546 86 117 88 hstem
70 101 390 100 vstem
544 908 -61 callgsubr
-195 -835 -99 callsubr
                </CharString>
                <CharString name="Omacron.sc">
                    -33 callsubr
118 88 -30 callgsubr
508 804 -61 callgsubr
-193 -729 -107 callsubr
                </CharString>
                <CharString name="Omega">
                    121 0 90 520 94 hstem
100 91 329 92 vstem
302 6 rmoveto
-73 162 -38 143 97 vvcurveto
134 70 68 96 96 67 -68 -134 -97 -38 -144 -73 -161 vhcurveto
3 -6 rlineto
231 90 -130 hlineto
59 120 40 120 100 vvcurveto
173 -106 101 -141 -140 -125 -101 -180 -94 34 -119 61 -120 vhcurveto
-126 -90 230 hlineto
endchar
                </CharString>
                <CharString name="Oslash">
                    43 callgsubr
171 352 -64 callsubr
                </CharString>
                <CharString name="Oslash.sc">
                    -20 callgsubr
163 300 -95 callgsubr
                </CharString>
                <CharString name="Oslashacute">
                    43 callgsubr
251 819 -107 callgsubr
-80 -467 -64 callsubr
                </CharString>
                <CharString name="Oslashacute.sc">
                    -20 callgsubr
215 715 -107 callgsubr
-52 -415 -95 callgsubr
                </CharString>
                <CharString name="Otilde">
                    140 -15 86 546 86 81 85 18 85 hstemhm
70 101 390 100 hintmask 11101100
448 784 -78 callgsubr
hintmask 11111100
-85 callgsubr
hintmask 11101100
19 callgsubr
-99 -799 -99 callsubr
                </CharString>
                <CharString name="Otilde.sc">
                    -33 callsubr
82 85 18 85 hstemhm
64 100 333 100 hintmask 11101100
413 680 -78 callgsubr
hintmask 11111100
-85 callgsubr
hintmask 11101100
19 callgsubr
-98 -693 -107 callsubr
                </CharString>
                <CharString name="P">
                    36 21 -21 217 90 304 88 -11 -20 hstemhm
113 100 258 101 hintmask 11101100
213 hmoveto
217 vlineto
210 16 149 76 168 vvcurveto
hintmask 11011100
171 -160 83 -299 -43 vhcurveto
-688 vlineto
hintmask 11101100
358 455 rmoveto
-121 -87 -39 -171 15 vhcurveto
298 vlineto
172 18 86 -57 -114 vvcurveto
endchar
                </CharString>
                <CharString name="P.sc">
                    -38 callsubr
                </CharString>
                <CharString name="Q">
                    140 -6 77 -64 -21 26 -21 24 -21 623 86 hstemhm
70 101 390 100 hintmask 00011110
585 -158 rmoveto
hintmask 00101110
34 92 -198 57 1 3 rlineto
137 35 102 134 200 vvcurveto
211 -118 129 -161 -172 -140 -143 -235 vhcurveto
hintmask 01001110
-198 104 -126 147 -15 vhcurveto
-23 -56 rlineto
61 687 rmoveto
118 84 -102 -179 hvcurveto
hintmask 10001110
-172 -72 -93 -117 -118 -83 102 179 vhcurveto
hintmask 01001110
171 72 94 116 vhcurveto
endchar
                </CharString>
                <CharString name="Q.sc">
                    -58 callsubr
                </CharString>
                <CharString name="R">
                    65 10 -21 32 -21 247 -5 callgsubr
250 100 hintmask 10101110
511 -11 -31 callgsubr
hintmask 01110110
-52 callgsubr
endchar
                </CharString>
                <CharString name="R.sc">
                    -54 callsubr
hstemhm
103 99 211 100 hintmask 10011011
455 -9 -76 callgsubr
                </CharString>
                <CharString name="R_p">
                    473 62 callgsubr
87 -63 76 callsubr
154.5 82 -12 -20 32 -20 70 88 -11 -20 hstemhm
106 100 199 100 91 98 209 96 hintmask 0101001100101111
433 -11 rmoveto
hintmask 0100011100011111
38 callgsubr
hintmask 0100101100101111
11 callsubr
hintmask 0110001100101111
567 -250 rmoveto
-27 -25 5 10 -27 hvcurveto
-1 170 -1 96 -2 87 rrcurveto
23 28 33 15 32 hhcurveto
71 49 -71 -140 -136 -52 -59 -78 hvcurveto
-79 -256 rmoveto
170 vlineto
-1 9 8 0 9 hhcurveto
160 119 106 205 163 -74 101 -106 -57 -45 -28 -33 -34 hvcurveto
hintmask 0110001010101111
-6 49 rlineto
hintmask 1010001001101111
-89 -6 rlineto
7 -111 1 88 callgsubr
                </CharString>
                <CharString name="Racute">
                    65 10 -21 32 -21 28 -21 240 -5 callgsubr
250 100 hintmask 00111011
199 817 -107 callgsubr
hintmask 10010111
312 -828 -31 callgsubr
hintmask 01011011
-52 callgsubr
endchar
                </CharString>
                <CharString name="Racute.sc">
                    -54 callsubr
148 37 callsubr
211 100 hintmask 0011101110000000
170 713 -107 callgsubr
hintmask 1001101110000000
285 -722 rmoveto
hintmask 0011011110000000
107 15 -159 249 rlineto
63 40 47 52 77 vvcurveto
120 -110 77 -300 -36 vhcurveto
hintmask 0101101110000000
-56 callsubr
                </CharString>
                <CharString name="Rcaron">
                    65 10 -21 32 -21 28 -21 240 -5 callgsubr
250 100 hintmask 00111011
321 764 -103 callsubr
hintmask 10010111
191 -775 -31 callgsubr
hintmask 01011011
-52 callgsubr
endchar
                </CharString>
                <CharString name="Rcaron.sc">
                    -54 callsubr
hstemhm
103 99 211 100 hintmask 00111011
293 660 -103 callsubr
hintmask 10011011
163 -669 -76 callgsubr
                </CharString>
                <CharString name="Rcommaaccent">
                    65 10 -21 32 -21 247 -5 callgsubr
88 105 57 100 hintmask 10101111
511 -11 -31 callgsubr
hintmask 01110111
-52 callgsubr
67 -626 -103 callgsubr
                </CharString>
                <CharString name="Rcommaaccent.sc">
                    -54 callsubr
hstemhm
103 99 63 105 43 100 hintmask 1001101110000000
455 -9 rmoveto
hintmask 0011011110000000
107 15 -159 249 rlineto
63 40 47 52 77 vvcurveto
120 -110 77 -300 -36 vhcurveto
hintmask 0101101110000000
-83 callgsubr
42 -577 -103 callgsubr
                </CharString>
                <CharString name="S">
                    70 callsubr
-16 callsubr
endchar
                </CharString>
                <CharString name="S.sc">
                    -71 -8 84 433 84 hstem
75 102 178 -12 callgsubr
endchar
                </CharString>
                <CharString name="Sacute">
                    70 callsubr
183 817 -107 callgsubr
-100 -731 -80 callgsubr
endchar
                </CharString>
                <CharString name="Sacute.sc">
                    -71 -8 84 433 84 120 -20 hstem
75 102 178 102 vstem
157 713 -107 callgsubr
-79 -634 rmoveto
-100 callgsubr
endchar
                </CharString>
                <CharString name="Scaron">
                    70 callsubr
305 764 -103 callsubr
-221 -678 -80 callgsubr
endchar
                </CharString>
                <CharString name="Scaron.sc">
                    69 callsubr
279 660 -103 callsubr
-200 -581 rmoveto
-100 callgsubr
endchar
                </CharString>
                <CharString name="Scedilla">
                    -23 -257 80 167 92 523 93 hstemhm
79 102 128 75 15 103 hintmask 11110100
-16 callsubr
122 -174 rmoveto
hintmask 11111100
-86 callgsubr
                </CharString>
                <CharString name="Scedilla.sc">
                    -71 -255 80 167 84 433 84 hstemhm
75 102 99 75 4 102 hintmask 11110100
-68 callsubr
94 -165 rmoveto
hintmask 11111000
-86 callgsubr
                </CharString>
                <CharString name="Scommaaccent">
                    40 callgsubr
51 105 62 103 vstem
-16 callsubr
128 -389 -103 callgsubr
                </CharString>
                <CharString name="Scommaaccent.sc">
                    -53 callsubr
                </CharString>
                <CharString name="T">
                    82 callsubr
351 599 18 callgsubr
endchar
                </CharString>
                <CharString name="T.sc">
                    -50 21 -21 503 82 hstem
222 99 vstem
321 503 49 callgsubr
                </CharString>
                <CharString name="Tcaron">
                    82 callsubr
304 756 -103 callsubr
48 -157 18 callgsubr
endchar
                </CharString>
                <CharString name="Tcaron.sc">
                    -21 callgsubr
                </CharString>
                <CharString name="Tcommaaccent">
                    8 21 -21 599 89 hstemhm
250 105 -104 100 hintmask 11010000
351 599 18 callgsubr
-122 -292 rmoveto
hintmask 11100000
53 -15 51 61 27 95 -5 75 rlinecurve
hintmask 11010000
-3 -115 -6 -1 -3 hvcurveto
20 -60 4 -78 -29 -71 rrcurveto
endchar
                </CharString>
                <CharString name="Tcommaaccent.sc">
                    -32 callgsubr
                </CharString>
                <CharString name="Thorn">
                    34 0 205 -90 90 288 87 -87 195 hstemhm
113 100 258 101 hintmask 10011100
213 hmoveto
hintmask 01101100
115 vlineto
210 15 149 75 162 vvcurveto
146 -125 78 -234 -11 vhcurveto
hintmask 10011100
108 -100 -688 vlineto
358 345 rmoveto
-113 -87 -38 -171 14 vhcurveto
282 vlineto
172 16 86 -53 -108 vvcurveto
endchar
                </CharString>
                <CharString name="Thorn.sc">
                    -38 callgsubr
                </CharString>
                <CharString name="U">
                    -9 callgsubr
356 -15 -90 callgsubr
                </CharString>
                <CharString name="U.sc">
                    67 -13 84 514 2 callsubr
323 -13 -104 callsubr
                </CharString>
                <CharString name="Uacute">
                    -9 callgsubr
248 809 -107 callgsubr
108 -824 -90 callgsubr
                </CharString>
                <CharString name="Uacute.sc">
                    -33 callgsubr
141 2 callsubr
215 706 -107 callgsubr
108 -719 -104 callsubr
                </CharString>
                <CharString name="Ubreve">
                    134 -15 91 612 -20 100 83 hstem
103 100 319 100 vstem
364 768 -105 callsubr
-8 -783 -90 callgsubr
                </CharString>
                <CharString name="Ubreve.sc">
                    -33 callgsubr
100 83 -39 callsubr
331 665 -105 callsubr
-8 -678 -104 callsubr
                </CharString>
                <CharString name="Ucircumflex">
                    -9 callgsubr
492 765 -102 callsubr
-5 -898 -90 callgsubr
                </CharString>
                <CharString name="Ucircumflex.sc">
                    -33 callgsubr
146 2 callsubr
458 662 -102 callsubr
-4 -793 -104 callsubr
                </CharString>
                <CharString name="Udieresis">
                    134 -15 91 612 -20 108 148 hstemhm
103 100 0 101 121 -71 callgsubr
-4.5 100 hintmask 11101100
525 776 -102 callgsubr
hintmask 11110010
154 -791 -90 callgsubr
                </CharString>
                <CharString name="Udieresis.sc">
                    -33 callgsubr
108 148 hstemhm
95 99 -24 101 121 -71 callgsubr
-29.5 99 hintmask 11101100
492 673 -102 callgsubr
hintmask 11110010
154 -686 -104 callsubr
                </CharString>
                <CharString name="Ugrave">
                    -9 callgsubr
471 804 -100 callsubr
-84 -773 -90 callgsubr
                </CharString>
                <CharString name="Ugrave.sc">
                    -33 callgsubr
136 2 callsubr
438 701 -100 callsubr
-84 -668 -104 callsubr
                </CharString>
                <CharString name="Uhungarumlaut">
                    -9 callgsubr
205 802 -94 callsubr
-62 -817 -90 callgsubr
                </CharString>
                <CharString name="Uhungarumlaut.sc">
                    -33 callgsubr
134 2 callsubr
172 699 -94 callsubr
-62 -712 -104 callsubr
                </CharString>
                <CharString name="Umacron">
                    134 -15 91 612 -20 140 88 hstem
103 100 319 100 vstem
536 896 -61 callgsubr
-180 -823 -90 callgsubr
                </CharString>
                <CharString name="Umacron.sc">
                    -33 callgsubr
140 88 -39 callsubr
503 793 -61 callgsubr
-180 -718 -104 callsubr
                </CharString>
                <CharString name="Uogonek">
                    134 -14 90 612 -20 hstem
103 100 62 86 171 100 vstem
464 -240 rmoveto
9 80 rlineto
-81 14 -41 15 33 vvcurveto
23 19 31 90 45 vhcurveto
111 56 51 73 146 vvcurveto
412 -100 -425 vlineto
-134 -48 -53 -105 -104 -62 66 148 vhcurveto
398 -100 -419 vlineto
-172 83 -100 145 -11 vhcurveto
-48 -37 -18 -35 -34 vvcurveto
-59 51 -45 148 -16 vhcurveto
endchar
                </CharString>
                <CharString name="Uogonek.sc">
                    -50 callsubr
                </CharString>
                <CharString name="Uring">
                    134 -15 91 612 -20 84 228 hstem
103 100 319 100 vstem
361 980 -82 callsubr
-5 -995 -90 callgsubr
                </CharString>
                <CharString name="Uring.sc">
                    -33 callgsubr
84 228 -39 callsubr
328 877 -82 callsubr
-5 -890 -104 callsubr
                </CharString>
                <CharString name="V">
                    55 -1 91 598 -20 24 -20 hstemhm
44 558 hintmask 10110000
396 -1 rmoveto
hintmask 11010000
76 231 68 229 62 229 rrcurveto
-98 hlineto
-53 -199 -57 -199 -62 -200 rrcurveto
-12 hlineto
hintmask 10110000
-62 201 -58 201 -53 200 -103 -8 rcurveline
62 -229 68 -226 76 -230 rrcurveto
endchar
                </CharString>
                <CharString name="V.sc">
                    -43 callsubr
                </CharString>
                <CharString name="W">
                    -1 callsubr
514 hmoveto
-88 callsubr
                </CharString>
                <CharString name="W.sc">
                    124 0 118 467 21 callgsubr
463 hmoveto
-101 callgsubr
                </CharString>
                <CharString name="Wacute">
                    -1 callsubr
284 809 -107 callgsubr
230 -809 rmoveto
-88 callsubr
                </CharString>
                <CharString name="Wacute.sc">
                    -18 callsubr
141 21 callgsubr
250 706 -107 callgsubr
213 -706 rmoveto
-101 callgsubr
                </CharString>
                <CharString name="Wcircumflex">
                    -1 callsubr
527 765 -102 callsubr
118 -883 rmoveto
-88 callsubr
                </CharString>
                <CharString name="Wcircumflex.sc">
                    -18 callsubr
146 21 callgsubr
494 662 -102 callsubr
100 -780 rmoveto
-101 callgsubr
                </CharString>
                <CharString name="Wdieresis">
                    191 0 126 562 -20 108 148 hstem
83 101 55 101 121 -71 callgsubr
42.5 94 vstem
561 776 -102 callgsubr
276 -776 rmoveto
-88 callsubr
                </CharString>
                <CharString name="Wdieresis.sc">
                    -68 callgsubr
                </CharString>
                <CharString name="Wgrave">
                    -1 callsubr
507 804 -100 callsubr
38 -758 rmoveto
-88 callsubr
                </CharString>
                <CharString name="Wgrave.sc">
                    -18 callsubr
136 21 callgsubr
473 701 -100 callsubr
21 -655 rmoveto
-101 callgsubr
                </CharString>
                <CharString name="X">
                    58 18 -21 24 -21 24 -21 685 -20 24 -20 hstemhm
44 565 hintmask 10001100
498 -3 rmoveto
hintmask 00110100
110 6 -221 342 222 343 rlineto
-110 hlineto
-168 -276 rlineto
hintmask 01001100
-177 280 -110 -7 222 -344 -220 -341 rlineto
108 hlineto
168 274 rlineto
endchar
                </CharString>
                <CharString name="X.sc">
                    -34 callgsubr
                </CharString>
                <CharString name="Y">
                    4 callgsubr
365 hmoveto
-60 callsubr
                </CharString>
                <CharString name="Y.sc">
                    -14 callgsubr
                </CharString>
                <CharString name="Yacute">
                    4 callgsubr
204 811 -107 callgsubr
161 -811 rmoveto
-60 callsubr
                </CharString>
                <CharString name="Yacute.sc">
                    -18 callgsubr
140 34 callgsubr
177 708 -107 callgsubr
166 -708 -75 callsubr
                </CharString>
                <CharString name="Ycircumflex">
                    4 callgsubr
447 767 -102 callsubr
49 -885 rmoveto
-60 callsubr
                </CharString>
                <CharString name="Ycircumflex.sc">
                    -18 callgsubr
145 34 callgsubr
421 664 -102 callsubr
53 -782 -75 callsubr
                </CharString>
                <CharString name="Ydieresis">
                    38 21 -21 688 -20 23 -20 107 148 hstemhm
159 101 5 100 16 -71 callgsubr
hintmask 10111010
481 778 -102 callgsubr
hintmask 11010100
207 -778 rmoveto
234 vlineto
234 454 rlineto
-103 hlineto
-176 -361 rlineto
hintmask 10110100
-181 364 -109 -5 235 -453 rlineto
-233 vlineto
endchar
                </CharString>
                <CharString name="Ydieresis.sc">
                    -55 callsubr
                </CharString>
                <CharString name="Ygrave">
                    4 callgsubr
427 806 -100 callsubr
-31 -760 rmoveto
-60 callsubr
                </CharString>
                <CharString name="Ygrave.sc">
                    -18 callgsubr
135 34 callgsubr
400 703 -100 callsubr
-26 -657 -75 callsubr
                </CharString>
                <CharString name="Z">
                    8 callsubr
hstem
77 466 vstem
534 hmoveto
-41 callgsubr
                </CharString>
                <CharString name="Z.sc">
                    31 callgsubr
hstem
69 421 vstem
482 hmoveto
-77 callsubr
                </CharString>
                <CharString name="Zacute">
                    8 callsubr
hstem
77 466 vstem
204 809 -107 callgsubr
330 -809 rmoveto
-41 callgsubr
                </CharString>
                <CharString name="Zacute.sc">
                    31 callgsubr
121 -20 hstem
69 421 vstem
166 706 -107 callgsubr
316 -706 rmoveto
-77 callsubr
                </CharString>
                <CharString name="Zcaron">
                    8 callsubr
hstem
77 466 vstem
327 756 -103 callsubr
208 -756 rmoveto
-41 callgsubr
                </CharString>
                <CharString name="Zcaron.sc">
                    31 callgsubr
hstem
69 421 vstem
288 653 -103 callsubr
195 -653 rmoveto
-77 callsubr
                </CharString>
                <CharString name="Zdotaccent">
                    8 callsubr
88 148 hstem
273.5 1 callsubr
373 776 -77 callgsubr
262 -776 rmoveto
-41 callgsubr
                </CharString>
                <CharString name="Zdotaccent.sc">
                    31 callgsubr
88 148 hstem
234.5 1 callsubr
334 673 -77 callgsubr
249 -673 rmoveto
-77 callsubr
                </CharString>
                <CharString name="a">
                    -59 callsubr
30 callsubr
hintmask 10011110
264 66 -81 callgsubr
hintmask 01011110
152 -69 rmoveto
hintmask 00111110
87 6 rlineto
-92 callsubr
hintmask 10011110
-88 67 -53 92 78 58 36 40 40 vhcurveto
hintmask 01011110
4 -26 5 -34 -6 vvcurveto
endchar
                </CharString>
                <CharString name="a.sc">
                    -83 callsubr
51 callsubr
hintmask 10011100
465 -3 -85 callsubr
                </CharString>
                <CharString name="aacute">
                    -59 callsubr
30 callsubr
hintmask 10011110
174 676 -107 callgsubr
90 -610 -81 callgsubr
hintmask 01011110
152 -69 rmoveto
hintmask 00111110
87 6 rlineto
-92 callsubr
hintmask 10011110
-88 67 -53 92 78 58 36 40 40 vhcurveto
hintmask 01011110
4 -26 5 -34 -6 vvcurveto
endchar
                </CharString>
                <CharString name="aacute.sc">
                    -83 callsubr
120 -20 6 callgsubr
186 706 -107 callgsubr
hintmask 10011110
279 -709 -106 callgsubr
                </CharString>
                <CharString name="abreve">
                    -59 callsubr
77 83 30 callsubr
hintmask 10011111
290 635 -105 callsubr
-26 -569 -96 callsubr
                </CharString>
                <CharString name="abreve.sc">
                    -83 callsubr
79 83 6 callgsubr
303 665 -105 callsubr
hintmask 10011110
162 -668 -106 callgsubr
                </CharString>
                <CharString name="acircumflex">
                    -59 callsubr
137 -20 30 callsubr
hintmask 10011111
418 632 -102 callsubr
-23 -684 -96 callsubr
                </CharString>
                <CharString name="acircumflex.sc">
                    -83 callsubr
125 -20 6 callgsubr
430 662 -102 callsubr
hintmask 10011110
166 -783 -106 callgsubr
                </CharString>
                <CharString name="acute">
                    -22 785 -20 hstem
160 280 vstem
160 667 -107 callgsubr
endchar
                </CharString>
                <CharString name="acute.cap">
                    -22 785 -20 hstem
160 280 vstem
160 667 -107 callgsubr
endchar
                </CharString>
                <CharString name="adieresis">
                    -59 callsubr
85 148 hstemhm
72 96 -39 101 121 -71 callgsubr
-54.5 96 hintmask 1001110110000000
451 643 -102 callgsubr
hintmask 1001111001000000
136 -577 -81 callgsubr
hintmask 0101110101000000
152 -69 rmoveto
hintmask 0011111001000000
87 6 rlineto
-92 callsubr
hintmask 1001111001000000
-88 67 -53 92 78 58 36 40 40 vhcurveto
hintmask 0101110101000000
4 -26 5 -34 -6 vvcurveto
endchar
                </CharString>
                <CharString name="adieresis.sc">
                    -69 callsubr
                </CharString>
                <CharString name="ae">
                    19 callsubr
814 -13 -67 callgsubr
                </CharString>
                <CharString name="ae.sc">
                    24 callgsubr
hstemhm
404 99 hintmask 10111000
396 504 rmoveto
8 hlineto
hintmask 11111000
-266 -164 vlineto
hintmask 10111000
-69 callgsubr
hintmask 11111000
20 callsubr
                </CharString>
                <CharString name="aeacute">
                    19 callsubr
343 678 -107 callgsubr
471 -691 -67 callgsubr
                </CharString>
                <CharString name="aeacute.sc">
                    24 callgsubr
121 -20 hstemhm
404 99 hintmask 10111100
389 706 -107 callgsubr
7 -202 rmoveto
8 hlineto
hintmask 11111100
-266 -164 vlineto
hintmask 10111100
-69 callgsubr
hintmask 11111100
20 callsubr
                </CharString>
                <CharString name="agrave">
                    -59 callsubr
228 -20 30 callsubr
hintmask 10011111
397 671 -100 callsubr
-102 -559 -96 callsubr
                </CharString>
                <CharString name="agrave.sc">
                    -83 callsubr
115 -20 6 callgsubr
410 701 -100 callsubr
hintmask 10011110
86 -658 -106 callgsubr
                </CharString>
                <CharString name="amacron">
                    -59 callsubr
117 88 30 callsubr
hintmask 10011111
462 763 -61 callgsubr
-198 -609 -96 callsubr
                </CharString>
                <CharString name="amacron.sc">
                    -83 callsubr
119 88 6 callgsubr
474 793 -61 callgsubr
hintmask 10011110
-9 -708 -106 callgsubr
                </CharString>
                <CharString name="ampersand">
                    141 -14 85 536 95 hstemhm
59 97 -9 97 hintmask 11010000
684 58 rmoveto
-52 49 -47 43 -41 39 42 69 39 83 32 100 -93 12 rcurveline
-18 -71 -29 -77 -32 -62 rrcurveto
-171 157 -70 62 54 vvcurveto
59 56 39 227 -7 vhcurveto
-10 95 rlineto
-281 5 -89 -104 -97 vvcurveto
-47 26 -44 52 -57 vhcurveto
hintmask 11100000
-106 -60 -60 -66 -86 vvcurveto
-91 69 -69 114 79 85 35 86 78 vhcurveto
37 -36 41 -41 44 -44 rrcurveto
-339 85 rmoveto
-69 -42 42 55 51 39 49 75 44 hvcurveto
41 -42 53 -48 63 -61 rrcurveto
-62 -54 -52 -28 -54 hhcurveto
endchar
                </CharString>
                <CharString name="ampersand.sc">
                    67 -12 79 442 88 hstemhm
52 96 -15 96 hintmask 11010000
615 51 rmoveto
-46 42 -41 37 -37 33 38 57 34 71 29 83 -90 10 rcurveline
-15 -58 -25 -62 -27 -51 rrcurveto
-145 128 -61 52 43 vvcurveto
48 47 31 197 -6 vhcurveto
-9 88 rlineto
-253 4 -78 -89 -81 vvcurveto
-40 23 -37 45 -48 vhcurveto
hintmask 11100000
-95 -51 -54 -57 -74 vvcurveto
-77 62 -59 103 71 75 29 72 70 vhcurveto
32 -31 35 -33 38 -37 rrcurveto
-296 79 rmoveto
-58 -36 34 45 40 32 41 65 36 hvcurveto
36 -34 44 -40 53 -49 rrcurveto
-50 -47 -44 -23 -45 hhcurveto
endchar
                </CharString>
                <CharString name="aogonek">
                    -7 -13 82 -45 -21 240 72 156 87 hstemhm
72 96 113 87 30 96 hintmask 01111110
480 -237 rmoveto
9 80 rlineto
-31 callsubr
hintmask 10111010
-92 callsubr
-88 61 -53 82 82 61 44 52 46 vhcurveto
3 -18 4 -28 3 -19 rrcurveto
hintmask 10111110
-99 -51 -34 -48 -44 vvcurveto
hintmask 01111110
25 callsubr
hintmask 10111010
-225 306 rmoveto
-52 -35 32 50 66 45 40 185 -18 hvcurveto
1 -37 1 -31 1 -29 rrcurveto
-44 -46 -52 -29 -48 hhcurveto
endchar
                </CharString>
                <CharString name="aogonek.sc">
                    -65 callsubr
                </CharString>
                <CharString name="approxequal">
                    33 111 85 30 85 37 85 31 84 -6 -20 hstemhm
64 487 hintmask 01110100
405 348 rmoveto
66 37 53 116 43 hvcurveto
hintmask 01101100
-64 25 rlineto
-63 -28 -23 -46 -28 hhcurveto
hintmask 01110100
-48 -47 115 -90 hhcurveto
-70 -46 -59 -117 -43 hvcurveto
64 -25 rlineto
67 29 25 50 30 51 51 -116 91 hhcurveto
hintmask 11110100
-237 vmoveto
66 37 53 116 43 hvcurveto
-64 25 rlineto
-63 -28 -23 -46 -28 -48 -47 115 -90 hhcurveto
hintmask 01110100
-70 -46 -59 -118 -43 hvcurveto
64 -25 rlineto
68 29 25 49 30 hhcurveto
hintmask 11110100
51 51 -115 91 hhcurveto
endchar
                </CharString>
                <CharString name="aring">
                    -59 callsubr
61 228 30 callsubr
hintmask 10011111
287 847 -82 callsubr
-23 -781 -96 callsubr
                </CharString>
                <CharString name="aring.sc">
                    -83 callsubr
63 228 6 callgsubr
299 877 -82 callsubr
hintmask 10011110
166 -880 -106 callgsubr
                </CharString>
                <CharString name="aringacute">
                    -59 callsubr
30 callsubr
hintmask 10011110
174 949 -107 callgsubr
113 -102 -82 callsubr
-23 -781 -81 callgsubr
hintmask 01011110
152 -69 rmoveto
hintmask 00111110
87 6 rlineto
-92 callsubr
hintmask 10011110
-88 67 -53 92 78 58 36 40 40 vhcurveto
hintmask 01011110
4 -26 5 -34 -6 vvcurveto
endchar
                </CharString>
                <CharString name="aringacute.sc">
                    -83 callsubr
51 callsubr
hintmask 00111100
186 964 -107 callgsubr
113 -87 -82 callsubr
hintmask 10011100
166 -880 -85 callsubr
                </CharString>
                <CharString name="arrow.1_E">
                    111 291 83 181 -20 hstem
51 616 vstem
300 40 rmoveto
367 295 -367 293 -56 -73 251 -183 -103 2 rlineto
-341 -83 341 hlineto
103 2 -251 -180 rlineto
endchar
                </CharString>
                <CharString name="arrow.1_N">
                    111 21 -21 695 -20 hstem
308 87 vstem
395 397 rmoveto
-4 121 174 -251 71 55 -283 373 -287 -373 72 -55 174 252 -4 -123 rlineto
-396 87 vlineto
endchar
                </CharString>
                <CharString name="arrow.1_S">
                    111 14 -21 695 -20 hstem
307 87 vstem
349 -7 rmoveto
287 373 -71 55 -175 -252 4 123 rlineto
396 -87 -397 vlineto
4 -120 -174 250 -71 -55 rlineto
endchar
                </CharString>
                <CharString name="arrow.1_W">
                    111 291 83 178 -20 hstem
35 616 vstem
458 109 rmoveto
-251 184 103 -2 rlineto
341 83 -341 hlineto
-102 -2 250 180 -56 73 -367 -294 367 -295 rlineto
endchar
                </CharString>
                <CharString name="asciicircum">
                    33 551 -20 hstem
61 507 vstem
488 165 rmoveto
80 55 -249 331 -20 -3 -238 -329 71 -54 175 246 rlineto
endchar
                </CharString>
                <CharString name="asciitilde">
                    33 214 97 55 97 hstem
37 549 vstem
423 214 rmoveto
71 47 77 137 45 hvcurveto
-71 27 rlineto
-84 -30 -28 -60 -31 -52 -80 152 -91 hhcurveto
-70 -53 -81 -133 -43 hvcurveto
71 -27 rlineto
84 28 28 60 31 53 84 -152 91 hhcurveto
endchar
                </CharString>
                <CharString name="asterisk">
                    17 584 -20 29 -20 25 -20 hstemhm
64 490 hintmask 00110000
403 283 rmoveto
57 34 -66 156 160 62 -16 63 rlineto
hintmask 10010000
-169 -14 -9 171 -67 5 rlineto
hintmask 01010000
-40 -167 rlineto
hintmask 00110000
-162 45 -27 -61 147 -89 -92 -141 49 -43 129 110 rlineto
endchar
                </CharString>
                <CharString name="asterisk.alt">
                    30 594 -20 136 -20 hstem
64 497 vstem
357 596 rmoveto
45 154 -93 18 -8 -161 rlineto
-37 -13 rmoveto
-111 116 -62 -72 135 -88 rlineto
180 -34 rmoveto
155 39 -31 89 -143 -74 rlineto
-168 -58 rmoveto
-155 -39 31 -89 143 74 rlineto
123 -24 rmoveto
111 -116 63 72 -136 88 rlineto
-131 -46 rmoveto
-45 -154 94 -18 7 161 rlineto
endchar
                </CharString>
                <CharString name="at">
                    266 -174 86 152 84 296 88 141 86 hstem
95 91 153 93 222 92 vstem
689 -169 rmoveto
85 vlineto
-399 -31 -104 137 264 vvcurveto
264 138 123 161 106 51 -48 -93 10 vhcurveto
-184 -4 -129 -79 -177 vvcurveto
-123 73 -85 97 53 53 24 41 46 vhcurveto
3 -21 4 -31 1 -6 86 11 rcurveline
-5 90 -4 88 216 vvcurveto
182 -75 101 -172 -230 -174 -193 -295 -289 136 -193 458 42 vhcurveto
-136 317 rmoveto
-71 -50 49 96 104 61 62 161 -18 hvcurveto
-74 0 -126 1 -60 vhcurveto
-20 -33 -36 -13 -33 hhcurveto
endchar
                </CharString>
                <CharString name="atilde">
                    -59 callsubr
81 85 18 85 -39 -20 30 callsubr
hintmask 1001110111000000
366 639 -78 callgsubr
hintmask 1001111011000000
-85 callgsubr
hintmask 1001110111000000
19 callgsubr
-102 -573 -81 callgsubr
hintmask 0101110111000000
152 -69 rmoveto
hintmask 0011110111000000
87 6 rlineto
-92 callsubr
hintmask 1001110111000000
-88 67 -53 92 78 58 36 40 40 vhcurveto
hintmask 0101110111000000
4 -26 5 -34 -6 vvcurveto
endchar
                </CharString>
                <CharString name="atilde.sc">
                    -74 callgsubr
                </CharString>
                <CharString name="b">
                    33 -14 87 406 82 218 57 callsubr
101 97 264 96 hintmask 11011100
254 -14 rmoveto
32 callgsubr
hintmask 11101100
-97 -9 rlineto
-767 vlineto
hintmask 11011100
-17 44 48 -9 61 hhcurveto
46 87 rmoveto
-30 -35 29 callgsubr
endchar
                </CharString>
                <CharString name="b.sc">
                    -62 callsubr
                </CharString>
                <CharString name="backslash">
                    -81 -162 -21 hstem
-15 539 vstem
68 793 rmoveto
-83 -27 453 -967 86 18 rlineto
endchar
                </CharString>
                <CharString name="backslash.tab">
                    33 -162 -21 hstem
25 591 vstem
25 765 rmoveto
501 -964 90 16 -508 976 rlineto
endchar
                </CharString>
                <CharString name="bar">
                    -232 779 57 callsubr
135 91 hintmask 10100000
135 66 callsubr
                </CharString>
                <CharString name="bar.tab">
                    -145 779 57 callsubr
177 91 hintmask 10100000
177 66 callsubr
                </CharString>
                <CharString name="braceleft">
                    -98 -235 56 callgsubr
-235 -55 callgsubr
                </CharString>
                <CharString name="braceleft.cap">
                    -98 -180 56 callgsubr
-180 -55 callgsubr
                </CharString>
                <CharString name="braceright">
                    -98 -234 1040 69 callgsubr
-234 -53 callgsubr
                </CharString>
                <CharString name="braceright.cap">
                    -98 777 -20 69 callgsubr
-179 -53 callgsubr
                </CharString>
                <CharString name="bracketleft">
                    -103 -198 85 794 85 hstem
104 95 vstem
104 -198 43 callsubr
                </CharString>
                <CharString name="bracketleft.cap">
                    -103 -143 85 794 85 hstem
104 95 vstem
104 -143 43 callsubr
                </CharString>
                <CharString name="bracketright">
                    -103 -197 85 callsubr
-113 49 callsubr
                </CharString>
                <CharString name="bracketright.cap">
                    -103 -142 85 callsubr
-58 49 callsubr
                </CharString>
                <CharString name="breve">
                    -22 626 83 82 -20 hstem
87 396 vstem
282 626 -105 callsubr
endchar
                </CharString>
                <CharString name="breve.cap">
                    -22 626 83 82 -20 hstem
87 396 vstem
282 626 -105 callsubr
endchar
                </CharString>
                <CharString name="bullet">
                    -39 182 294 hstem
138 276 vstem
414 332 rmoveto
85 -58 59 -78 -77 -63 -58 -90 -86 58 -60 78 77 63 58 92 vhcurveto
endchar
                </CharString>
                <CharString name="bullet.alt">
                    -39 206 251 hstem
151 250 vstem
400 206 rmoveto
2 251 rlineto
-250 hlineto
-2 -251 rlineto
endchar
                </CharString>
                <CharString name="c">
                    79 callgsubr
hstem
68 95 vstem
68 263 -73 callsubr
endchar
                </CharString>
                <CharString name="c.sc">
                    -44 -7 82 425 95 hstem
64 100 -3 callsubr
endchar
                </CharString>
                <CharString name="cacute">
                    79 callgsubr
hstem
68 95 vstem
166 677 -107 callgsubr
-98 -414 -73 callsubr
endchar
                </CharString>
                <CharString name="cacute.sc">
                    31 callsubr
118 -20 hstem
64 100 vstem
190 713 -107 callgsubr
286 -638 -92 callgsubr
endchar
                </CharString>
                <CharString name="caron">
                    -8 callsubr
                </CharString>
                <CharString name="caron.alt">
                    -22 614 278 hstem
226 99 vstem
207 629 -65 callgsubr
endchar
                </CharString>
                <CharString name="caron.alt.cap">
                    -22 614 278 hstem
226 99 vstem
207 629 -65 callgsubr
endchar
                </CharString>
                <CharString name="caron.cap">
                    -8 callsubr
                </CharString>
                <CharString name="ccaron">
                    79 callgsubr
222 -20 hstem
68 95 vstem
289 624 -103 callsubr
-220 -361 -73 callsubr
endchar
                </CharString>
                <CharString name="ccaron.sc">
                    86 callgsubr
313 660 -103 callsubr
164 -585 -92 callgsubr
endchar
                </CharString>
                <CharString name="ccedilla">
                    -67 -254 80 164 87 383 100 hstem
68 95 160 75 vstem
68 263 -73 callsubr
151 -348 rmoveto
-86 callgsubr
                </CharString>
                <CharString name="ccedilla.sc">
                    -54 callgsubr
                </CharString>
                <CharString name="cdotaccent">
                    79 callgsubr
84 148 hstem
68 95 71.5 1 callsubr
334 644 -77 callgsubr
-165 -381 -73 callsubr
endchar
                </CharString>
                <CharString name="cdotaccent.sc">
                    31 callsubr
85 148 hstem
64 100 95.5 1 callsubr
359 680 -77 callgsubr
218 -605 -92 callgsubr
endchar
                </CharString>
                <CharString name="cedilla">
                    -22 -246 80 hstem
332 75 vstem
228 -77 rmoveto
-86 callgsubr
                </CharString>
                <CharString name="cedilla.cap">
                    -22 -246 80 hstem
332 75 vstem
228 -77 rmoveto
-86 callgsubr
                </CharString>
                <CharString name="cent">
                    33 37 86 325 90 150 -20 hstem
85 92 vstem
177 309 rmoveto
61 29 58 130 16 vhcurveto
-38 -286 rlineto
-85 31 -36 50 70 vvcurveto
328 -272 rmoveto
10 86 -55 3 -48 5 -41 8 rlinecurve
40 309 rlineto
34 39 -2 -4 44 hvcurveto
12 96 -40 2 -37 0 -34 -1 rlinecurve
22 149 rlineto
-93 hlineto
-18 -158 rlineto
-198 -32 -57 -105 -100 vvcurveto
-100 53 -81 142 -43 vhcurveto
-23 -163 rlineto
92 hlineto
16 144 41 -7 47 -4 52 -2 rlinecurve
endchar
                </CharString>
                <CharString name="check.1">
                    34 1 -21 hstem
78 500 vstem
578 725 rmoveto
-99 38 -73 -188 -64 -216 -49 -241 rlinecurve
-5 hlineto
-123 281 -87 -44 178 -380 81 5 65 268 81 254 95 223 rlinecurve
endchar
                </CharString>
                <CharString name="check.2">
                    34 4 -21 28 -21 41 -21 hstemhm
99 463 hintmask 01010000
396 -10 rmoveto
97 25 -149 289 218 420 -99 41 -172 -381 -93 190 -92 -38 129 -247 rlineto
hintmask 00110000
-136 -279 rlineto
hintmask 10010000
66 -27 121 231 rlineto
endchar
                </CharString>
                <CharString name="circumflex">
                    -22 686 -20 hstem
98 372 vstem
406 623 -102 callsubr
endchar
                </CharString>
                <CharString name="circumflex.cap">
                    -22 686 -20 hstem
98 372 vstem
406 623 -102 callsubr
endchar
                </CharString>
                <CharString name="colon">
                    -214 0 134 278 135 hstemhm
118.5 80 callsubr
260 4 callsubr
hintmask 11100000
128 -412 rmoveto
5 17 callsubr
-5 -134 rlineto
endchar
                </CharString>
                <CharString name="colon.alt">
                    -144 62 134 279 134 hstemhm
155 135.5 -130.5 136 hintmask 11010000
295 475 rmoveto
2 17 callsubr
-2 -134 rlineto
hintmask 11100000
130 -413 rmoveto
3 17 callsubr
-2 -134 rlineto
endchar
                </CharString>
                <CharString name="colon.tab">
                    -145 0 134 278 135 hstemhm
152.5 80 callsubr
294 4 callsubr
hintmask 11100000
128 -412 rmoveto
5 17 callsubr
-5 -134 rlineto
endchar
                </CharString>
                <CharString name="colonmonetary">
                    33 34 89 450 92 hstemhm
69 86 114 80 8 78 -13 79.5 hintmask 01110100
374 135 rmoveto
-27 6 -25 7 -23 7 36 391 rcurveline
23 6 26 5 29 4 rrcurveto
-258 -213 rmoveto
77 27 58 80 38 vhcurveto
-30 -334 rlineto
-53 36 -24 50 75 vvcurveto
hintmask 11111000
196 -430 rmoveto
79 hlineto
10 116 rlineto
hintmask 11110100
25 -3 26 -3 28 -3 22 86 rcurveline
-35 4 -33 4 -30 4 40 445 rcurveline
27 3 30 1 32 1 -7 92 rcurveline
-24 -1 -23 -1 -22 -2 11 108 rcurveline
-80 hlineto
-10 -118 -26 -4 -25 -5 -23 -6 rlinecurve
12 133 rlineto
-80 hlineto
-12 -160 rlineto
-144 -60 -50 -102 -114 vvcurveto
-118 48 -75 98 -47 vhcurveto
-17 -175 rlineto
hintmask 01111000
80 hlineto
13 146 23 -6 24 -6 25 -5 rlinecurve
endchar
                </CharString>
                <CharString name="comma">
                    -220 75 callgsubr
hstemhm
144 110 hintmask 01100000
95 7 callsubr
                </CharString>
                <CharString name="comma.tab">
                    -145 75 callgsubr
hstemhm
181 110 hintmask 01100000
132 7 callsubr
                </CharString>
                <CharString name="commaaccent">
                    -22 -307 231 hstem
236 105 vstem
215 -292 -103 callgsubr
                </CharString>
                <CharString name="commaaccent.cap">
                    -22 -307 231 hstem
236 105 vstem
215 -292 -103 callgsubr
                </CharString>
                <CharString name="commaaccent.rot">
                    -22 628 231 hstem
225 105 vstem
350 844 42 callgsubr
endchar
                </CharString>
                <CharString name="copyright">
                    331 -34 67 116 75 239 82 110 68 hstem
79 74 142 83 391 74 vstem
843 349 rmoveto
229 -159 145 -209 -216 -180 -157 -226 -230 168 -144 220 207 169 151 232 vhcurveto
-690 -5 rmoveto
189 141 122 179 164 132 -122 -189 -192 -132 -119 -166 -176 -142 121 190 vhcurveto
434 -120 rmoveto
-156 -4 -53 38 94 vvcurveto
71 30 40 175 vhcurveto
-8 82 rlineto
-207 -11 -73 -87 -103 vvcurveto
-118 73 -87 209 10 vhcurveto
endchar
                </CharString>
                <CharString name="d">
                    38 callsubr
hintmask 10010111
313 67 13 callsubr
-148 1 -105 3 -97 vhcurveto
-24 -35 -41 -17 -38 hhcurveto
hintmask 01010111
127 -70 rmoveto
hintmask 00110111
39 callgsubr
236 vlineto
hintmask 10011011
-97 -9 rlineto
-211 -16 callgsubr
                </CharString>
                <CharString name="d.sc">
                    49 -6 callsubr
577 303 -70 callsubr
                </CharString>
                <CharString name="dagger">
                    -66 518.5 83 -79 84 63 callgsubr
-20 hstemhm
220 81.5 -81.5 93 hintmask 10110000
293 145 rmoveto
17 375 154 -3 5 83 rlineto
hintmask 10101000
-157 3 2 170 -94 1 rlineto
hintmask 01101000
-169 vlineto
-154 3 -4 -84 rlineto
hintmask 01110000
158 -3 rlineto
-399 vlineto
16 -9 rlineto
endchar
                </CharString>
                <CharString name="daggerdbl">
                    -66 296.5 83 -79 84 134 83 -79 84 63 callgsubr
-20 hstemhm
220 78 -78 93 hintmask 01101100
294 89 rmoveto
hintmask 10101100
8 209 155 -3 5 83 -157 3 5 139 154 -3 5 83 rlineto
hintmask 01101010
-157 3 2 170 -94 1 rlineto
hintmask 01011010
-169 vlineto
-154 3 -4 -84 rlineto
hintmask 01011100
158 -3 rlineto
-138 vlineto
-160 3 -5 -84 165 -3 rlineto
-234 vlineto
17 -9 rlineto
endchar
                </CharString>
                <CharString name="dcaron">
                    38 callsubr
107 99 hintmask 1001011110000000
608 629 -65 callgsubr
-295 -562 13 callsubr
-148 1 -105 3 -97 vhcurveto
-24 -35 -41 -17 -38 hhcurveto
hintmask 0101011110000000
127 -70 rmoveto
hintmask 0011011110000000
39 callgsubr
236 vlineto
hintmask 1001101110000000
-97 -9 rlineto
-211 -16 callgsubr
                </CharString>
                <CharString name="dcaron.sc">
                    48 callgsubr
316 661 -103 callsubr
262 -358 -70 callsubr
                </CharString>
                <CharString name="dcroat">
                    33 -14 81 -49 -21 27 -21 470 88 75 70 65 57 callsubr
66 95 262 97 hintmask 1001101110000000
313 67 13 callsubr
1 -148 1 -105 2 -96 rrcurveto
-25 -35 -41 -17 -38 hhcurveto
hintmask 0101101110000000
127 -70 rmoveto
hintmask 0011101110000000
39 callgsubr
92 75 70 -75 74 vlineto
hintmask 1001110110000000
-97 -9 rlineto
-65 -140 -70 140 -76 -16 callgsubr
                </CharString>
                <CharString name="dcroat.sc">
                    -87 callgsubr
                </CharString>
                <CharString name="degree">
                    33 345 78 251 79 hstem
113 83 230 84 vstem
510 553 rmoveto
123 -83 77 -108 -110 -96 -82 -127 -123 83 -76 108 109 97 81 127 vhcurveto
-84 -2 rmoveto
-78 -49 -50 -66 -68 -48 54 71 1 vhcurveto
76 1 49 50 65 hhcurveto
69 47 -53 -70 -1 hvcurveto
endchar
                </CharString>
                <CharString name="dieresis">
                    -22 634 148 hstem
125 101 121 1 callsubr
447 634 -102 callgsubr
endchar
                </CharString>
                <CharString name="dieresis.cap">
                    -22 634 148 hstem
125 101 121 1 callsubr
447 634 -102 callgsubr
endchar
                </CharString>
                <CharString name="divide">
                    33 79 112 93 87 92 113 hstem
257 109 vstem
365 463 rmoveto
2 113 rlineto
-109 hlineto
-2 -113 rlineto
294 -92 rmoveto
-476 -87 475 hlineto
-184 -205 rmoveto
2 112 rlineto
-109 hlineto
-2 -112 rlineto
endchar
                </CharString>
                <CharString name="dollar">
                    37 35 85 -77 80 443 87 123 -20 hstemhm
95 96 254 97 hintmask 10111100
191 513 rmoveto
36 41 20 98 -3 vhcurveto
-31 -154 rlineto
-60 35 -48 33 33 vvcurveto
254 -331 rmoveto
-38 -41 -23 -94 -1 vhcurveto
32 161 rlineto
58 -33 45 -32 -34 vvcurveto
-172 -271 rmoveto
23 124 rlineto
178 13 68 69 75 vvcurveto
74 -89 58 -88 50 vhcurveto
38 187 36 -4 40 -6 45 -8 rlinecurve
13 99 -38 5 -35 4 -32 1 rlinecurve
27 124 rlineto
-93 hlineto
-23 -123 rlineto
-179 -9 -69 -72 -75 vvcurveto
-73 91 -56 89 -49 vhcurveto
hintmask 01111100
-40 -196 -40 3 -47 6 -53 9 rlinecurve
-20 -98 49 -6 44 -3 40 -1 rlinecurve
hintmask 10111100
-27 -122 rlineto
endchar
                </CharString>
                <CharString name="dotaccent">
                    -22 634 148 hstem
233.5 1 callsubr
333 634 -77 callgsubr
endchar
                </CharString>
                <CharString name="dotaccent.cap">
                    -22 634 148 hstem
233.5 1 callsubr
333 634 -77 callgsubr
endchar
                </CharString>
                <CharString name="dotlessi">
                    -58 callgsubr
54 callsubr
478 hmoveto
-70 callgsubr
                </CharString>
                <CharString name="dotlessi.sc">
                    -78 0 76 433 76 27 callgsubr
305 509 -95 callsubr
                </CharString>
                <CharString name="e">
                    -62 callgsubr
35 callsubr
483 -13 -101 callsubr
                </CharString>
                <CharString name="e.sc">
                    -66 callgsubr
hstem
103 99 vstem
472 83 rmoveto
-93 callgsubr
                </CharString>
                <CharString name="eacute">
                    -62 callgsubr
35 callsubr
183 680 -107 callgsubr
300 -693 -101 callsubr
                </CharString>
                <CharString name="eacute.sc">
                    -66 callgsubr
121 54 callgsubr
167 706 -107 callgsubr
305 -623 rmoveto
-93 callgsubr
                </CharString>
                <CharString name="ebreve">
                    -62 callgsubr
78 83 35 callsubr
299 639 -105 callsubr
184 -652 -101 callsubr
                </CharString>
                <CharString name="ebreve.sc">
                    -66 callgsubr
80 83 hstem
103 99 vstem
283 665 -105 callsubr
189 -582 rmoveto
-93 callgsubr
                </CharString>
                <CharString name="ecaron">
                    -62 callgsubr
224 -20 35 callsubr
305 627 -103 callsubr
179 -640 -101 callsubr
                </CharString>
                <CharString name="ecaron.sc">
                    -66 callgsubr
hstem
103 99 vstem
290 653 -103 callsubr
183 -570 rmoveto
-93 callgsubr
                </CharString>
                <CharString name="ecircumflex">
                    -62 callgsubr
124 -20 34 -20 hstemhm
66 96 254 96 hintmask 11101110
427 636 rmoveto
64 63 -187 157 rlineto
-1 hlineto
hintmask 11110110
-184 -171 rlineto
hintmask 11101110
49 -48 128 117 rlineto
187 -767 -101 callsubr
                </CharString>
                <CharString name="ecircumflex.sc">
                    -66 callgsubr
126 54 callgsubr
411 662 -102 callsubr
192 -697 rmoveto
-93 callgsubr
                </CharString>
                <CharString name="edieresis">
                    -62 callgsubr
86 148 hstemhm
66 96 -24 101 121 -71 callgsubr
-45.5 96 hintmask 11110110
460 647 -102 callgsubr
hintmask 11111001
346 -660 -101 callsubr
                </CharString>
                <CharString name="edieresis.sc">
                    -48 callgsubr
                </CharString>
                <CharString name="edotaccent">
                    -62 callgsubr
86 148 hstem
66 96 89.5 -71 callgsubr
63 96 vstem
351 647 -77 callgsubr
233 -660 -101 callsubr
                </CharString>
                <CharString name="edotaccent.sc">
                    -66 callgsubr
88 148 hstem
103 99 34.5 1 callsubr
336 673 -77 callgsubr
237 -590 rmoveto
-93 callgsubr
                </CharString>
                <CharString name="egrave">
                    -62 callgsubr
229 -20 35 callsubr
406 675 -100 callsubr
108 -642 -101 callsubr
                </CharString>
                <CharString name="egrave.sc">
                    -66 callgsubr
116 54 callgsubr
390 701 -100 callsubr
113 -572 rmoveto
-93 callgsubr
                </CharString>
                <CharString name="eight">
                    33 -14 81 554 81 hstemhm
80 98 -87 95 248 97 -83 96 hintmask 11100100
298 -14 rmoveto
150 96 84 105 86 -75 52 -81 46 hvcurveto
hintmask 11011000
89 44 54 54 84 vvcurveto
97 -93 64 -118 -146 -83 -92 -88 -79 64 -52 74 -45 vhcurveto
hintmask 11100100
-92 -48 -57 -63 -82 vvcurveto
-101 93 -66 125 vhcurveto
hintmask 11011000
-112 551 rmoveto
44 42 40 81 84 41 -42 -59 -51 -38 -46 -66 -33 vhcurveto
-76 41 -68 42 64 vvcurveto
hintmask 11100100
127 -470 rmoveto
-91 -44 44 64 55 39 49 68 35 hvcurveto
84 -47 79 -43 -65 vvcurveto
-53 -53 -39 -82 vhcurveto
endchar
                </CharString>
                <CharString name="eight.den">
                    -11 64 332 64 hstemhm
15 -47 callsubr
hintmask 11100100
169 -11 -88 callgsubr
                </CharString>
                <CharString name="eight.den_afrc">
                    0 callsubr
hstemhm
132 85 callgsubr
286 -244 rmoveto
-66 callsubr
hintmask 10110110
-79 callgsubr
vhcurveto
hintmask 11010101
-28 callgsubr
hintmask 10111001
-37 callsubr
hintmask 10110110
-94 callgsubr
hintmask 10111001
-97 callgsubr
                </CharString>
                <CharString name="eight.den_afrc2">
                    416 -244 64 186 -21 29 -21 159 55 callsubr
-244 rmoveto
-66 callsubr
hintmask 10110110
-79 callgsubr
vhcurveto
hintmask 11010101
-28 callgsubr
hintmask 10111001
-37 callsubr
hintmask 10110110
-94 callgsubr
hintmask 10111001
-97 callgsubr
                </CharString>
                <CharString name="eight.inf">
                    -81 -178 64 332 64 hstemhm
93 -47 callsubr
hintmask 11100100
247 -178 -88 callgsubr
                </CharString>
                <CharString name="eight.num">
                    239 64 332 64 hstemhm
93 -47 callsubr
hintmask 11100100
247 239 -88 callgsubr
                </CharString>
                <CharString name="eight.num_afrc">
                    -3 461 64 165 -20 28 -20 179 64 hstemhm
132 85 callgsubr
286 461 rmoveto
-66 callsubr
hintmask 11010110
-79 callgsubr
-28 callgsubr
hintmask 11011001
-62 -27 -35 -37 -53 vvcurveto
hintmask 10111001
-64 58 -48 96 vhcurveto
hintmask 10110110
-94 callgsubr
hintmask 10111001
-97 callgsubr
                </CharString>
                <CharString name="eight.num_afrc2">
                    416 461 64 165 -20 28 -20 179 55 callsubr
461 rmoveto
-66 callsubr
hintmask 11010110
-79 callgsubr
-28 callgsubr
hintmask 11011001
-62 -27 -35 -37 -53 vvcurveto
hintmask 10111001
-64 58 -48 96 vhcurveto
hintmask 10110110
-94 callgsubr
hintmask 10111001
-97 callgsubr
                </CharString>
                <CharString name="eight.small">
                    -11 64 332 64 hstemhm
54 -47 callsubr
hintmask 11100100
208 -11 -88 callgsubr
                </CharString>
                <CharString name="eight.sup">
                    -81 350 64 173 -20 179 64 hstemhm
93 -47 callsubr
hintmask 11110010
247 350 rmoveto
-66 callsubr
hintmask 11101100
-79 callgsubr
-28 callgsubr
hintmask 11110010
-37 callsubr
hintmask 11101100
-94 callgsubr
hintmask 11110010
-97 callgsubr
                </CharString>
                <CharString name="ellipsis">
                    494 0 84 callsubr
221 136 221.5 135.5 vstem
965 hmoveto
6 134 rlineto
-135 hlineto
-7 -134 rlineto
-221 16 callsubr
-221 16 callsubr
endchar
                </CharString>
                <CharString name="emacron">
                    -62 callgsubr
118 88 35 callsubr
471 767 -61 callgsubr
12 -692 -101 callsubr
                </CharString>
                <CharString name="emacron.sc">
                    -66 callgsubr
120 88 hstem
103 99 vstem
455 793 -61 callgsubr
17 -622 rmoveto
-93 callgsubr
                </CharString>
                <CharString name="emdash">
                    240 289 77 hstem
78 680 vstem
758 366 rmoveto
-680 -77 671 hlineto
endchar
                </CharString>
                <CharString name="emspace">
                    403 endchar
                </CharString>
                <CharString name="endash">
                    -16 289 77 hstem
78 424 vstem
502 366 rmoveto
-424 -77 415 hlineto
endchar
                </CharString>
                <CharString name="endash.tab">
                    33 289 77 hstem
77 473 vstem
550 366 rmoveto
-473 -77 465 hlineto
endchar
                </CharString>
                <CharString name="enspace">
                    -92 endchar
                </CharString>
                <CharString name="eogonek">
                    -11 -13 86 -65 -21 25 -21 258 66.5 158.5 87 hstemhm
66 96 96 86 72 96 hintmask 00111111
457 -240 rmoveto
9 80 rlineto
hintmask 01011111
-81 12 -41 13 27 vvcurveto
21 30 30 109 44 vhcurveto
hintmask 10011111
10 86 -230 7 -86 41 -14 123 rlinecurve
346 10 rlineto
185 18 -69 122 -143 hhcurveto
-135 -114 -130 -164 hvcurveto
hintmask 00111111
-154 66 -98 233 -24 vhcurveto
-79 -43 -28 -40 -38 vvcurveto
-54 51 -41 148 -15 vhcurveto
-162 714 rmoveto
82 35 -59 -96 4 hvcurveto
-254 -7 rlineto
114 6 49 48 78 hhcurveto
endchar
                </CharString>
                <CharString name="eogonek.sc">
                    -36 callgsubr
                </CharString>
                <CharString name="equal">
                    33 169 88 151 72 callsubr
495 rmoveto
-445 -87 445 hlineto
-151 vmoveto
-445 -88 445 hlineto
endchar
                </CharString>
                <CharString name="eth">
                    22 -16 83 362 80 182 -20 118 -20 hstem
64 95 292 92 vstem
293 -16 rmoveto
133 117 104 196 135 -47 115 -102 105 hvcurveto
96 45 -25 65 -126 -58 -39 34 -45 32 -51 32 rlinecurve
-51 -69 37 -23 33 -23 30 -23 rlinecurve
-118 -54 26 -66 149 69 31 -29 25 -31 20 -31 rlinecurve
-165 9 -157 -92 -186 vvcurveto
-160 103 -96 126 vhcurveto
15 83 rmoveto
-79 -70 71 117 136 86 75 186 -55 hvcurveto
14 -43 6 -45 -48 vvcurveto
-138 -54 -70 -89 vhcurveto
endchar
                </CharString>
                <CharString name="eth.sc">
                    -87 callgsubr
                </CharString>
                <CharString name="exclam">
                    -216 0 126 hstem
119.5 128 vstem
221 264 rmoveto
2 58 32 366 2 61 rrcurveto
-124 hlineto
1 -61 23 -366 -58 vvcurveto
89 -264 67 callsubr
                </CharString>
                <CharString name="exclamdown">
                    -216 562 126 hstem
127.5 128 vstem
129 65 callsubr
-103 -263 rmoveto
-2 -59 -32 -365 -2 -62 rrcurveto
124 hlineto
-1 62 -23 365 59 vvcurveto
endchar
                </CharString>
                <CharString name="f">
                    -29 callgsubr
                </CharString>
                <CharString name="f.lig">
                    -29 callgsubr
                </CharString>
                <CharString name="f.sc">
                    3 callsubr
                </CharString>
                <CharString name="figurespace">
                    -41 endchar
                </CharString>
                <CharString name="five">
                    33 6 -21 614 89 hstem
444 89 vstem
533 233 rmoveto
88 -74 76 -244 28 vhcurveto
13 174 rlineto
275 hlineto
9 89 rlineto
-367 hlineto
-24 -331 rlineto
239 -23 84 -49 -60 vvcurveto
-78 -86 -41 -255 -25 vhcurveto
8 -96 rlineto
291 25 131 98 125 vvcurveto
endchar
                </CharString>
                <CharString name="five.den">
                    9 -21 377 73 hstem
50.5 -43 callgsubr
vstem
334 145 -104 callgsubr
                </CharString>
                <CharString name="five.den_afrc">
                    -3 1 -21 152 73 65 callgsubr
451 -88 -104 callgsubr
                </CharString>
                <CharString name="five.den_afrc2">
                    416 1 -21 152 73 hstem
376.5 -43 callgsubr
vstem
660 -88 -104 callgsubr
                </CharString>
                <CharString name="five.inf">
                    -81 198 73 hstem
77 callgsubr
vstem
412 -22 -104 callgsubr
                </CharString>
                <CharString name="five.num">
                    615 73 hstem
77 callgsubr
vstem
412 395 -104 callgsubr
                </CharString>
                <CharString name="five.num_afrc">
                    -3 837 73 65 callgsubr
-60 callgsubr
endchar
                </CharString>
                <CharString name="five.num_afrc2">
                    416 837 73 hstem
376.5 -43 callgsubr
vstem
660 -13 callsubr
endchar
                </CharString>
                <CharString name="five.small">
                    9 -21 377 73 hstem
89.5 -43 callgsubr
vstem
373 145 -104 callgsubr
                </CharString>
                <CharString name="five.sup">
                    -81 726 73 hstem
77 callgsubr
vstem
412 506 -104 callgsubr
                </CharString>
                <CharString name="fiveeighths">
                    79 callsubr
403 64 166 48 callsubr
295 -47 callsubr
hintmask 0110101110010000
24 callsubr
hintmask 0110011110010000
-21 callsubr
94 376 rmoveto
hintmask 1011001110010000
60 -53 51 -164 18 vhcurveto
7 91 rlineto
191 hlineto
8 73 rlineto
-264 hlineto
-17 -225 rlineto
157 -12 60 -24 -34 vvcurveto
-41 -61 -22 -166 -15 vhcurveto
5 -77 rlineto
hintmask 0110011110010000
203 16 94 60 81 vvcurveto
hintmask 1011001110010000
449 -406 rmoveto
-66 callsubr
hintmask 1011001101100000
-79 callgsubr
-28 callgsubr
hintmask 1011001110010000
-37 callsubr
hintmask 1011001101100000
-94 callgsubr
hintmask 1011001110010000
-97 callgsubr
                </CharString>
                <CharString name="fiveeighths.afrc">
                    0 callsubr
88 69 464 73 hstemhm
132 81 -74 83 -54.5 70 133.5 79 -76 84 -82 75 hintmask 1011110010010000
-60 callgsubr
-379 -313 -39 callgsubr
hintmask 1011111000100000
214 -617 rmoveto
-66 callsubr
hintmask 1011110101000000
-79 callgsubr
vhcurveto
hintmask 1101110100010000
-28 callgsubr
hintmask 1011111000010000
-62 -27 -35 -37 -53 vvcurveto
hintmask 1011111000100000
-64 58 -48 96 vhcurveto
hintmask 1011110101000000
-94 callgsubr
hintmask 1011111000100000
-97 callgsubr
                </CharString>
                <CharString name="fivesixths">
                    533 -11 70 -56 -21 228 60 345 48 callsubr
292 75 callsubr
hintmask 0110101111000000
384 -28 callsubr
rlineto
hintmask 0110011111000000
-21 callsubr
86 376 rmoveto
hintmask 1011001111000000
60 -53 51 -164 18 vhcurveto
7 91 rlineto
191 hlineto
8 73 rlineto
-264 hlineto
-17 -225 rlineto
157 -12 60 -24 -34 vvcurveto
-41 -61 -22 -166 -15 vhcurveto
5 -77 rlineto
hintmask 0110011111000000
203 16 94 60 81 vvcurveto
hintmask 1011001111000000
457 -406 -99 callgsubr
                </CharString>
                <CharString name="fivesixths.afrc">
                    -3 -244 80 callgsubr
267 69 464 73 hstemhm
129 78 -39.5 -43 callgsubr
-68 77 hintmask 11110110
-60 callgsubr
-379 -313 -39 callgsubr
hintmask 11111001
222 -617 -99 callgsubr
                </CharString>
                <CharString name="four">
                    33 21 -21 135 89 464 -20 28 -20 hstemhm
92 74 233 92 hintmask 11011100
568 135 rmoveto
10 89 rlineto
-87 241 hlineto
-92 -9 rlineto
-232 -233 vlineto
hintmask 11101100
3 38 92 364 16 62 rrcurveto
hintmask 11011100
-108 8 -54 -210 -27 -219 4 -132 rlinecurve
307 -135 92 135 hlineto
endchar
                </CharString>
                <CharString name="four.den">
                    0 154 -68.5 15 callsubr
hstemhm
23 -25 callgsubr
hintmask 01010000
353 -22 callsubr
                </CharString>
                <CharString name="four.den_afrc">
                    -3 -147.5 15 callsubr
hstem
140 -25 callgsubr
vstem
470 -148 -87 callsubr
                </CharString>
                <CharString name="four.den_afrc2">
                    416 -147.5 15 callsubr
hstem
349 -25 callgsubr
vstem
679 -148 -87 callsubr
                </CharString>
                <CharString name="four.inf">
                    -81 -81.5 15 callsubr
22 -21 61 callgsubr
hintmask 10010000
431 -82 rmoveto
6 70 -56 -1 1 145 -77 -6 1 -140 rlineto
hintmask 01110000
70 callgsubr
rlineto
hintmask 10110000
-46 callgsubr
205 1 rcurveline
-29 callsubr
                </CharString>
                <CharString name="four.num">
                    335.5 15 callsubr
145 -20 160 -20 26 -20 61 callgsubr
hintmask 11011100
431 335 rmoveto
6 70 -56 -1 1 145 -77 -6 1 -140 -137 2 rlineto
hintmask 11101100
-35 callsubr
rrcurveto
hintmask 11011100
29 callsubr
                </CharString>
                <CharString name="four.num_afrc">
                    -3 557.5 15 callsubr
145 -20 hstem
140 -25 callgsubr
vstem
470 557 -87 callsubr
                </CharString>
                <CharString name="four.num_afrc2">
                    416 557.5 15 callsubr
145 -20 hstem
349 -25 callgsubr
vstem
679 557 -87 callsubr
                </CharString>
                <CharString name="four.small">
                    0 154 -68.5 15 callsubr
hstemhm
62 -25 callgsubr
hintmask 01010000
392 -22 callsubr
                </CharString>
                <CharString name="four.sup">
                    -81 446.5 15 callsubr
hstem
72 callgsubr
vstem
431 446 -87 callsubr
                </CharString>
                <CharString name="fourfifths">
                    533 3 -21 27 -21 347.5 15 callsubr
-39 73 111 -20 160 -20 26 -20 31 -20 61 callgsubr
361 -43 callgsubr
hintmask 1001110001110000
24 callsubr
hintmask 1001100101110000
-21 callsubr
hintmask 0101100101110000
708 126 -106 callsubr
hintmask 0110110011110000
-595 190 rmoveto
6 70 -56 -1 1 145 -77 -6 1 -140 81 callgsubr
hintmask 0110101011110000
29 callsubr
                </CharString>
                <CharString name="fourfifths.afrc">
                    50 callsubr
184.5 15 callsubr
145 -20 hstemhm
140 68 -40.5 70 107 76 -44.5 75 hintmask 1111101100000000
470 557 rmoveto
6 70 -56 -1 1 145 -77 -6 1 -140 rlineto
hintmask 1111110100000000
70 callgsubr
-46 callgsubr
rlinecurve
205 1 -1 -86 rlineto
77 hlineto
-1 86 rlineto
-348 -254 -39 callgsubr
hintmask 1111101010000000
379 -461 -104 callgsubr
                </CharString>
                <CharString name="fourperemspace">
                    -339 endchar
                </CharString>
                <CharString name="fraction">
                    -304 3 -21 724 -20 hstem
-100 486 vstem
-42 -4 callsubr
endchar
                </CharString>
                <CharString name="fraction.afrc">
                    -3 304 69 hstem
72 444 vstem
72 304 -39 callgsubr
endchar
                </CharString>
                <CharString name="fraction.afrc2">
                    416 304 69 hstem
73 871 vstem
73 304 rmoveto
870 hlineto
1 69 rlineto
-871 hlineto
endchar
                </CharString>
                <CharString name="fraction.tab">
                    -304 3 -21 724 -20 hstem
-100 486 vstem
-42 -4 callsubr
endchar
                </CharString>
                <CharString name="g">
                    30 callgsubr
hstem
66 95 257 97 vstem
145 -194 -86 callsubr
                </CharString>
                <CharString name="g.sc">
                    29 -9 76 433 95 hstem
64 100 274 -23 callsubr
endchar
                </CharString>
                <CharString name="gbreve">
                    30 callgsubr
78 83 hstem
66 95 257 97 vstem
320 637 -105 callsubr
-175 -831 -86 callsubr
                </CharString>
                <CharString name="gbreve.sc">
                    29 -9 76 433 95 77 83 hstem
64 100 274 96 vstem
333 672 -105 callsubr
203 -665 -96 callgsubr
endchar
                </CharString>
                <CharString name="gcommaaccent">
                    30 callgsubr
hstem
66 95 97 105 55 97 vstem
383 855 42 callgsubr
-238 -1049 -86 callsubr
                </CharString>
                <CharString name="gcommaaccent.sc">
                    -61 callsubr
                </CharString>
                <CharString name="gdotaccent">
                    30 callgsubr
86 148 hstem
66 95 111.5 -71 callgsubr
44 97 vstem
372 645 -77 callgsubr
-126 -839 -86 callsubr
                </CharString>
                <CharString name="gdotaccent.sc">
                    29 -9 76 433 95 85 148 hstem
64 100 121.5 -71 callgsubr
51 96 vstem
385 680 -77 callgsubr
252 -673 -96 callgsubr
endchar
                </CharString>
                <CharString name="germandbls">
                    55 -8 88 -59 -21 703 87 hstemhm
98 96 105 97 24 99 -7 98 hintmask 10111010
396 393 rmoveto
hintmask 01110100
58 123 53 128 vvcurveto
76 -52 82 -121 -159 -89 -120 -155 vhcurveto
-515 96 539 vlineto
114 39 50 84 70 33 -45 -47 vhcurveto
-87 -121 -55 -89 vvcurveto
hintmask 10111010
-133 213 -21 -80 vvcurveto
-49 -54 -27 -149 13 vhcurveto
-3 -91 rlineto
228 -9 76 90 84 139 -214 25 72 vvcurveto
endchar
                </CharString>
                <CharString name="germandbls.sc">
                    422 45 callsubr
111 102 178 102 vstem
571 -78 callsubr
-493 hmoveto
-100 callgsubr
endchar
                </CharString>
                <CharString name="grave">
                    -22 777 -20 hstem
140 280 vstem
420 662 -100 callsubr
endchar
                </CharString>
                <CharString name="grave.cap">
                    -22 777 -20 hstem
140 280 vstem
420 662 -100 callsubr
endchar
                </CharString>
                <CharString name="greater">
                    33 590 -20 hstem
443 86 vstem
139 66 rmoveto
390 210 rlineto
104 vlineto
-380 210 -45 -85 339 -172 rlineto
-10 vlineto
-342 -173 rlineto
endchar
                </CharString>
                <CharString name="greaterequal">
                    33 14 88 hstem
426 98 vstem
100 238 rmoveto
28 -79 397 161 -2 96 -386 200 -37 -81 326 -160 rlineto
-7 vlineto
-337 -266 rmoveto
-88 445 88 vlineto
endchar
                </CharString>
                <CharString name="guillemotleft">
                    179 4 -21 583 -20 hstem
76 626 vstem
301 -17 -10 callgsubr
                </CharString>
                <CharString name="guillemotleft.cap">
                    179 563 -20 hstem
76 626 vstem
301 51 -10 callgsubr
                </CharString>
                <CharString name="guillemotright">
                    179 5 -21 583 -20 hstem
68 626 vstem
463 -16 -36 callsubr
-224 -231 -219 rlineto
-258 -71 -36 callsubr
-225 -230 -218 rlineto
endchar
                </CharString>
                <CharString name="guillemotright.cap">
                    179 566 -20 hstem
68 626 vstem
463 52 -36 callsubr
-224 -231 -219 rlineto
-258 -71 -36 callsubr
-225 -230 -218 rlineto
endchar
                </CharString>
                <CharString name="guilsinglleft">
                    -147 4 -21 583 -20 hstem
76 300 vstem
301 -17 -22 callgsubr
endchar
                </CharString>
                <CharString name="guilsinglleft.cap">
                    -147 563 -20 hstem
76 300 vstem
301 51 -22 callgsubr
endchar
                </CharString>
                <CharString name="guilsinglright">
                    -147 5 -21 583 -20 hstem
68 299 vstem
136 -16 -36 callsubr
-225 -230 -218 rlineto
endchar
                </CharString>
                <CharString name="guilsinglright.cap">
                    -147 566 -20 hstem
68 299 vstem
136 52 -36 callsubr
-225 -230 -218 rlineto
endchar
                </CharString>
                <CharString name="h">
                    48 21 -21 476 85 218 57 callsubr
101 97 250 97 hintmask 11011100
22 callsubr
291 vlineto
hintmask 11101100
-97 -9 rlineto
-779 97 436 vlineto
hintmask 11011100
25 41 44 15 52 hhcurveto
endchar
                </CharString>
                <CharString name="h.sc">
                    -2 callsubr
                </CharString>
                <CharString name="hairspace">
                    -513 endchar
                </CharString>
                <CharString name="hbar">
                    48 21 -21 476 85 75 70 73 57 callsubr
101 97 250 97 hintmask 11101110
22 callsubr
139 140 70 -140 82 vlineto
hintmask 11110110
-97 -9 rlineto
-73 -75 -70 75 -636 97 436 vlineto
hintmask 11101110
25 41 44 15 52 hhcurveto
endchar
                </CharString>
                <CharString name="hbar.sc">
                    -40 callgsubr
                </CharString>
                <CharString name="hcoslug">
                    103 -100 100 6 12 -11 11 -11 18 -18 25 -25 41 -36 14 -13 10 -3 14 -11 9 0 16 -9 15 -15 20 -19 34 -19 19 -15 15 7 8 -1 13 -7 12 6 10 -9 43 -42 11 hstemhm
50 82 13 10 -10 22 -5 12 6 9 -2 16 -1 16 -2 9 12 13 -3 14 -14 56 -41 12 -1 9 4 16 -8 14 5 13 -6 7 8 17 -12 14 8 7 -5 15 -13 8 hintmask 001000000000001000001010001000100000100000010000
644 700 rmoveto
-594 hlineto
hintmask 100000000000000000001010000000001000000001000000
-800 594 vlineto
-397 528 rmoveto
-23 15 -14 23 -22 vhcurveto
11 17 7 16 17 vvcurveto
23 -12 15 -17 -16 -11 -12 -17 vhcurveto
65 -86 rmoveto
16 -16 12 -15 13 -15 19 33 5 24 -23 23 -9 -10 -14 -11 -19 -13 rrcurveto
-51 -123 rmoveto
15 12 3 9 11 hvcurveto
-28 35 -28 30 -18 17 rrcurveto
-11 -11 -5 -14 -15 vvcurveto
-31 22 -23 30 vhcurveto
121 45 rmoveto
-29 25 17 -12 20 hhcurveto
21 12 12 17 10 hvcurveto
7 -2 rlineto
-58 -2 -35 -36 -43 hhcurveto
-30 -22 11 34 -33 hvcurveto
-31 -28 -34 -14 -42 hhcurveto
-60 -49 40 53 42 29 31 53 18 hvcurveto
-21 22 -10 18 29 vvcurveto
43 42 42 67 62 33 -39 -35 -13 -3 -11 -6 -10 vhcurveto
27 1 20 -11 2 -27 rrcurveto
24 16 19 14 25 hhcurveto
28 22 -21 -31 -31 -22 -23 -28 -18 -16 10 15 -9 hvcurveto
-15 -9 -16 -13 -15 -20 rrcurveto
hintmask 000000000000000000001000000000000001000000000000
-96 -140 rmoveto
-11 13 -7 vlineto
hintmask 000000000000000000100000000000000001000000000000
-13 -20 hlineto
-3 1 -2 3 2 2 2 5 1 vhcurveto
5 -2 rlineto
hintmask 100000000000000000100000000000000100000000000000
-2 -9 -4 -4 -8 -8 -4 5 0 hflex1
20 -7 7 7 9 vlineto
hintmask 000000000000001000000000010000000000000000000000
-100 -28 rmoveto
hintmask 000000000000000000100000010001000000000000000000
45 callgsubr
hintmask 000000000000001000000000000001000000000000000000
-12 -9 -9 -12 vhcurveto
hintmask 000000000000001000000000010000000000000000000000
-12 -9 8 13 hvcurveto
hintmask 000000000000000000100010000100000000000000100000
29 hmoveto
44 callsubr
44 callgsubr
176 -1 rmoveto
0 8 -2 5 -5 -6 -2 -6 0 hflex1
0 -8 2 -5 6 5 2 5 0 hflex1
-160 -12 rmoveto
6 hlineto
hintmask 000000000000000000100000000001000000000000000000
25 -6 7 vlineto
hintmask 000000000000000000001000000000100000000000000000
17 -10 hlineto
hintmask 000000000000000000001000000000000100000000000000
7 3 4 4 7 hhcurveto
9 3 -6 -8 hvcurveto
hintmask 000000000000000000100000000000000100000000000000
-19 6 -7 vlineto
hintmask 100000000000000000100000000000100000000000000000
-22 7 4 18 hlineto
4 -2 3 -4 -4 -3 -4 -6 vhcurveto
-15 4 -7 vlineto
hintmask 000000000000001000000010000000000000000000000000
-22 hlineto
hintmask 000000000000000010000010000000000000000000000000
-94 7 rmoveto
7 hlineto
hintmask 000000000000000000010010000000000000000000000000
41 -7 7 vlineto
hintmask 000000000000000000001000000100000000000000000000
51 hlineto
hintmask 000000000000000000100000000100000000000000000000
-20 -8 vlineto
hintmask 000000000000000000010001000000000000000000000000
11 -2 -2 2 -7 hhcurveto
-12 -18 4 hlineto
5 0 1 7 1 hvcurveto
7 hlineto
hintmask 000000000000000010000000010000000000000000000000
-23 -7 vlineto
7 -1 0 1 -5 hhcurveto
-4 hlineto
hintmask 000000000000000010000001000000000000000000000000
-16 10 -7 vlineto
hintmask 000000000000001000000010000000000000000000000000
-30 hlineto
hintmask 000000000000000000100000000000000001000000000000
177 14 rmoveto
7 hlineto
hintmask 000000000000000000000100000000000000010000000000
-6 4 3 -3 5 hhcurveto
3 2 2 2 hvcurveto
hintmask 000000000000000000000100000000000001000000000000
8 -24 -5 16 vvcurveto
6 5 6 9 5 4 -2 -3 2 vhcurveto
2 5 rlineto
6 hlineto
hintmask 100000000000000001000000000000000000000100000000
-13 -7 vlineto
4 -3 -3 3 -4 hhcurveto
-3 -2 -2 -2 hvcurveto
-8 24 6 -16 vvcurveto
-7 -5 -6 -9 vhcurveto
hintmask 100000000000000000000000000000000000010000000000
-7 -3 3 2 -3 hvcurveto
-1 -4 rlineto
-7 hlineto
hintmask 000000000000000000000100000000000000000100000000
50 51 rmoveto
-6 7 hlineto
hintmask 000000000000000000001000000000000000000000100000
18 hlineto
hintmask 100000000000000000000100000000000000000000100000
-27 vlineto
6 2 5 3 6 hhcurveto
9 6 -8 -12 -9 -4 -12 -12 -7 -4 3 5 -3 hvcurveto
-4 -8 rlineto
-6 hlineto
53 -8 rmoveto
4 3 3 5 1 hvcurveto
-4 10 -12 23 0 vvcurveto
-5 7 hlineto
hintmask 000000000000000000001000000000000000000000000000
25 -7 -6 hlineto
hintmask 100000000000100000001000000000000000000000100000
9 -20 8 20 rlineto
-5 7 17 -7 -5 hlineto
-13 -31 rlineto
-10 -4 -5 -6 -9 hhcurveto
-7 -4 4 5 4 3 3 4 hvcurveto
hintmask 100000000000000000000100000000000000000000100000
7 1 -7 -3 -3 hvcurveto
hintmask 000000000010000000000000000000000000000000000000
59 -32 rmoveto
-7 -5 vlineto
hintmask 000000100000000000000000000000000000000000000000
-3 -6 -3 -4 -3 -4 rrcurveto
2 -3 2 -2 2 2 1 1 1 hflex1
5 -1 rlineto
84 callgsubr
-7 -2 -3 -5 -8 hhcurveto
-5 0 -3 1 -4 5 -4 -4 -5 -2 -6 flex1
-12 -6 6 8 hvcurveto
hintmask 000010000000000000000000000000000000000000000000
8 6 5 7 2 vhcurveto
-4 4 -2 3 5 vvcurveto
7 7 7 10 9 5 -6 -6 vhcurveto
-6 -4 -3 -7 -3 vhcurveto
hintmask 000000100000000000000000000000000000000000000000
5 -5 3 -4 4 -4 2 2 3 4 1 3 rrcurveto
-6 7 hlineto
hintmask 100000000001000000000000000000000000100000000000
-152 6 rmoveto
14 5 hlineto
-3 -3 2 4 2 1 1 0 hvcurveto
0 -1 1 -2 -3 -3 -2 -10 vhcurveto
175 -15 rmoveto
83 callgsubr
18 13 12 14 vhcurveto
7 5 -3 -4 4 hvcurveto
1 6 rlineto
8 hlineto
-22 -8 vlineto
hintmask 000000000010000000000000000000000000000000000000
12 -4 -3 4 -8 hhcurveto
-8 -6 -6 -16 hvcurveto
hintmask 010000000000000000000000000000000000000000000000
-15 6 -7 10 8 5 7 9 1 vhcurveto
8 hlineto
84 callgsubr
-14 -1 -8 -9 -15 hhcurveto
hintmask 100000000001000000000000000000000000100000000000
-18 -11 11 17 hvcurveto
hintmask 000001000000000000000000000000000000000000000000
-38 6 rmoveto
3 2 2 3 4 vvcurveto
3 -2 3 -4 -3 -2 -2 -3 -3 2 -3 4 -4 vhcurveto
hintmask 001000000000000000000000000000010000000000000000
-184 -15 rmoveto
hintmask 010000000000000000000000000000010000000000000000
76 callgsubr
hintmask 100000000000010000000000000010000010000000000000
59 callgsubr
hintmask 001000000000000000000000000000000010000000000000
14 6 -9 -13 -1 hvcurveto
hintmask 100000000010000000000000001000010000000000000000
-84 2 rmoveto
45 callgsubr
-12 -9 -9 -12 -12 -9 8 13 vhcurveto
336 hmoveto
83 callgsubr
45 callgsubr
84 callgsubr
-12 -9 -9 -12 vhcurveto
hintmask 100000000010000000000000001000010000000000000000
-12 -9 8 13 hvcurveto
hintmask 001000000000000000000000000000000000000010000000
-185 -2 rmoveto
hintmask 010000000000000000000000000000000000000010000000
76 callgsubr
hintmask 100000000000010000000000000000000000001000010000
59 callgsubr
hintmask 001000000000000000000000000000000000000000010000
14 6 -9 -13 -1 hvcurveto
hintmask 000000010000000000000000000000010000000000000000
-119 5 rmoveto
hintmask 000000000100000000000000000000010000000000000000
14 hlineto
hintmask 000000010000000000000000000000010000000000000000
82 callgsubr
hintmask 001000000000000000000000000010000000000000000000
-29 -3 rmoveto
hintmask 000000000010000000000000000010000000000000000000
44 callsubr
hintmask 001000000000000000000000000010000000000000000000
44 callgsubr
46 callgsubr
336 hmoveto
83 callgsubr
44 callsubr
46 callgsubr
44 callgsubr
hintmask 000000010000000000000000000000000000000010000000
-214 3 rmoveto
hintmask 000000000100000000000000000000000000000010000000
14 hlineto
hintmask 000000010000000000000000000000000000000010000000
82 callgsubr
hintmask 001000000000000000000000000000000010000000000000
-64 -16 rmoveto
6 hlineto
hintmask 000000000100000000000000000000000010000000000000
25 -7 7 7 1 vlineto
hintmask 001000000000000100000000000000000010001000000000
13 9 6 10 3 4 -1 -1 2 vhcurveto
10 2 rlineto
-52 6 -7 vlineto
hintmask 100000000000000000000000000000000000100000000000
-23 7 5 hlineto
hintmask 000010000000000000000000000000000000100000000000
25 -14 vlineto
hintmask 001000000000000000000000000000000000100000000000
-25 5 -7 vlineto
hintmask 100000000000000000000000000000000010000000000000
-23 hlineto
hintmask 001000000000000000000000000000000000001000000000
92 7 rmoveto
6 hlineto
hintmask 000000000100000000000000000000000000000000010000
25 -6 7 vlineto
hintmask 000000000000010000000000000000000000000000000000
18 -10 hlineto
8 3 4 3 5 hhcurveto
5 3 -3 -5 -4 -3 -3 -4 -3 -3 2 4 hvcurveto
1 vlineto
-2 -3 -4 -5 -2 hvcurveto
46 callgsubr
-16 8 -7 vlineto
hintmask 100000000000000000000000000000000000001000000000
-26 hlineto
46 callgsubr
69 9 rmoveto
hintmask 000100000000000000000000000000000000000000000000
-5 6 -4 5 -5 5 rrcurveto
-2 -2 -2 -3 -4 vvcurveto
-6 4 -4 6 vhcurveto
46 callgsubr
2 3 1 2 3 hvcurveto
hintmask 001000000000000000000010000000000000000000000000
-313 -2 rmoveto
8 hlineto
hintmask 000000000010000000000010000000000000000000000000
41 -8 7 vlineto
hintmask 000000000000001000000000100000000000000000000000
29 -7 -8 hlineto
hintmask 000000000010000000000000100000000000000000000000
-16 22 16 -8 7 vlineto
hintmask 001000000000001000000000001000000000000000000000
29 -7 -8 -41 8 -7 hlineto
hintmask 100000000000000000000000100000000000000000000000
-29 7 8 hlineto
hintmask 000100000000000000000000100000000000000000000000
18 -22 vlineto
hintmask 001000000000000000000000100000000000000000000000
-18 8 -7 vlineto
hintmask 100000000000000000000010000000000000000000000000
-29 hlineto
459 6 rmoveto
0 -4 -3 -3 -4 -4 -3 3 0 hflex1
0 4 3 3 4 4 3 -3 0 hflex1
endchar
                </CharString>
                <CharString name="hungarumlaut">
                    -22 625 253 hstem
133 415 vstem
133 660 -94 callsubr
endchar
                </CharString>
                <CharString name="hungarumlaut.cap">
                    -22 625 253 hstem
133 415 vstem
133 660 -94 callsubr
endchar
                </CharString>
                <CharString name="hyphen">
                    -131 284 87 hstem
78 309 vstem
387 371 rmoveto
-309 -87 300 hlineto
endchar
                </CharString>
                <CharString name="hyphen.tab">
                    33 284 87 hstem
125 378 vstem
503 371 rmoveto
-378 -87 369 hlineto
endchar
                </CharString>
                <CharString name="i">
                    -58 callgsubr
87 148 54 callsubr
23 callgsubr
260 -634 rmoveto
-70 callgsubr
                </CharString>
                <CharString name="i.dot">
                    -58 callgsubr
87 148 54 callsubr
23 callgsubr
260 -634 rmoveto
-70 callgsubr
                </CharString>
                <CharString name="i.sc">
                    -25 callsubr
27 callgsubr
305 509 -95 callsubr
                </CharString>
                <CharString name="iacute">
                    -58 callgsubr
238 -20 54 callsubr
136 667 -107 callgsubr
342 -667 rmoveto
-70 callgsubr
                </CharString>
                <CharString name="iacute.sc">
                    -25 callsubr
121 -20 27 callgsubr
143 706 -107 callgsubr
162 -197 -95 callsubr
                </CharString>
                <CharString name="ibreve">
                    -58 callgsubr
79 83 82 -20 54 callsubr
252 626 -105 callsubr
226 -626 rmoveto
-70 callgsubr
                </CharString>
                <CharString name="ibreve.sc">
                    -25 callsubr
80 83 27 callgsubr
259 665 -105 callsubr
46 -156 -95 callsubr
                </CharString>
                <CharString name="icircumflex">
                    -58 callgsubr
139 -20 54 callsubr
380 623 -102 callsubr
229 -741 rmoveto
-70 callgsubr
                </CharString>
                <CharString name="icircumflex.sc">
                    -25 callsubr
126 -20 27 callgsubr
386 662 -102 callsubr
50 -271 -95 callsubr
                </CharString>
                <CharString name="idieresis">
                    -58 callgsubr
87 148 hstemhm
91 101 32 98 -9 -71 callgsubr
hintmask 11110100
413 634 -102 callgsubr
388 -634 rmoveto
9 78 rlineto
hintmask 11111000
-165 469 -256 hlineto
-8 -73 166 -9 rlineto
-387 -164 -78 vlineto
endchar
                </CharString>
                <CharString name="idieresis.sc">
                    -25 callsubr
88 148 hstemhm
97 101 8 99 14 -71 callgsubr
vstemhm
419 673 -102 callgsubr
hintmask 11101000
209 -164 -95 callsubr
                </CharString>
                <CharString name="idotaccent.sc">
                    -25 callsubr
88 148 hstemhm
206 99 -93.5 -71 callgsubr
hintmask 11101000
311 673 -77 callgsubr
hintmask 11110000
95 -164 -95 callsubr
                </CharString>
                <CharString name="igrave">
                    -58 callgsubr
230 -20 54 callsubr
359 662 -100 callsubr
150 -616 rmoveto
-70 callgsubr
                </CharString>
                <CharString name="igrave.sc">
                    -25 callsubr
116 -20 27 callgsubr
366 701 -100 callsubr
-30 -146 -95 callsubr
                </CharString>
                <CharString name="imacron">
                    -58 callgsubr
119 88 54 callsubr
424 754 -61 callgsubr
54 -666 rmoveto
-70 callgsubr
                </CharString>
                <CharString name="imacron.sc">
                    -25 callsubr
120 88 27 callgsubr
430 793 -61 callgsubr
-125 -196 -95 callsubr
                </CharString>
                <CharString name="iogonek">
                    -58 callgsubr
87 148 hstemhm
139 86 -1 98 hintmask 11101000
23 callgsubr
137 -794 rmoveto
hintmask 11110000
-85 15 -45 16 35 vvcurveto
21 21 31 70 42 vhcurveto
162 hlineto
9 78 rlineto
hintmask 11101000
-165 469 -256 hlineto
-8 -73 166 -9 rlineto
-387 vlineto
hintmask 11110000
-164 -78 161 hlineto
-59 -41 -23 -37 -38 37 callgsubr
                </CharString>
                <CharString name="iogonek.sc">
                    -42 callgsubr
                </CharString>
                <CharString name="j">
                    -155 -193 100 562.5 77.5 87 148 hstemhm
217 101 -95 96 hintmask 11110000
316 634 -24 callgsubr
-101 hlineto
-4 -148 rlineto
hintmask 11101000
104 -574 rmoveto
487 -253 vlineto
-8 -73 165 -9 rlineto
-431 vlineto
-100 -17 -19 -163 -8 vhcurveto
-3 -100 rlineto
210 12 69 108 133 vvcurveto
endchar
                </CharString>
                <CharString name="j.sc">
                    -6 callgsubr
                </CharString>
                <CharString name="k">
                    16 callgsubr
hintmask 1001010110000000
442 -8 rmoveto
hintmask 0011100110000000
71 callgsubr
hintmask 0011010110000000
59 callsubr
hintmask 0101011010000000
77 callsubr
endchar
                </CharString>
                <CharString name="k.sc">
                    -23 callgsubr
                </CharString>
                <CharString name="kcommaaccent">
                    16 callgsubr
66 105 hintmask 1001010111000000
442 -8 rmoveto
hintmask 0011100111000000
71 callgsubr
hintmask 0011010111000000
59 callsubr
hintmask 0101011011000000
77 callsubr
-28 -542 -103 callgsubr
                </CharString>
                <CharString name="kcommaaccent.sc">
                    -50 callgsubr
                </CharString>
                <CharString name="l">
                    -105 0 78 620 77 -73 -20 hstemhm
197 98 11 callgsubr
endchar
                </CharString>
                <CharString name="l.sc">
                    -74 52 callsubr
502 -99 -585 hlineto
endchar
                </CharString>
                <CharString name="lacute">
                    64 callgsubr
131 896 -107 callgsubr
299 -896 rmoveto
21 callsubr
endchar
                </CharString>
                <CharString name="lacute.sc">
                    -17 callsubr
                </CharString>
                <CharString name="lcaron">
                    0 callgsubr
106 99 hintmask 11011000
382 629 -65 callgsubr
48 -629 rmoveto
15 callgsubr
hintmask 10111000
-8 -73 rlineto
hintmask 11011000
14 callsubr
endchar
                </CharString>
                <CharString name="lcaron.sc">
                    -17 callgsubr
                </CharString>
                <CharString name="lcommaaccent">
                    0 callgsubr
-96 105 11 callgsubr
hintmask 11001000
124 -292 -103 callgsubr
                </CharString>
                <CharString name="lcommaaccent.sc">
                    39 callsubr
32 105 vstem
462 hmoveto
-44 callgsubr
110 -292 -103 callgsubr
                </CharString>
                <CharString name="ldot">
                    -105 0 78 209 128 283 77 -73 88 callsubr
98 131.5 110 hintmask 11101100
430 hmoveto
15 callgsubr
hintmask 11011100
-8 -73 rlineto
hintmask 11101100
14 callsubr
479 287 rmoveto
7 128 rlineto
-110 hlineto
-7 -128 rlineto
endchar
                </CharString>
                <CharString name="ldot.sc">
                    -15 callgsubr
                </CharString>
                <CharString name="less">
                    33 591 -20 hstem
94 86 vstem
483 591 rmoveto
-389 -211 rlineto
-105 vlineto
379 -210 45 86 -338 171 rlineto
11 vlineto
341 174 rlineto
endchar
                </CharString>
                <CharString name="lessequal">
                    33 14 88 hstem
99 98 vstem
100 417 rmoveto
-2 -96 397 -162 29 81 -327 131 rlineto
7 vlineto
326 160 -37 78 rlineto
48 -514 rmoveto
-445 -88 445 hlineto
endchar
                </CharString>
                <CharString name="lslash">
                    64 callgsubr
430 hmoveto
10 78 rlineto
-145 312 hlineto
112 59 -17 73 -95 -50 rlineto
303 -235 vlineto
hintmask 10110000
-8 -73 rlineto
hintmask 11010000
145 -8 rlineto
-274 vlineto
-116 -62 16 -73 100 53 rlineto
-260 -143 -78 vlineto
endchar
                </CharString>
                <CharString name="lslash.sc">
                    -11 callsubr
                </CharString>
                <CharString name="m">
                    322 9 callsubr
hstemhm
104 97 212 97 211 97 hintmask 11001110
318 476 rmoveto
66 29 -32 -96 hvcurveto
-348 97 384 vlineto
19 -1 17 -3 16 vhcurveto
25 36 39 15 46 hhcurveto
65 29 -32 -100 hvcurveto
-344 97 380 vlineto
123 -53 58 -96 -78 -55 -36 -41 -44 vhcurveto
52 -23 -45 25 -64 hhcurveto
-74 -54 -33 -39 -43 hvcurveto
hintmask 10101110
-7 60 rlineto
hintmask 10011110
-26 callsubr
hintmask 11001110
189 -3 143 -3 102 vhcurveto
26 37 40 16 46 hhcurveto
endchar
                </CharString>
                <CharString name="m.sc">
                    -49 callgsubr
                </CharString>
                <CharString name="macron">
                    32 callsubr
                </CharString>
                <CharString name="macron.cap">
                    32 callsubr
                </CharString>
                <CharString name="minus">
                    33 284 72 callsubr
371 rmoveto
-445 -87 445 hlineto
endchar
                </CharString>
                <CharString name="mu">
                    50 62 callgsubr
84 -52 -21 27 -21 25 -21 536 53 callsubr
hstemhm
95 98 247 97 hintmask 0110000011100000
193 -183 rmoveto
hintmask 0100010011100000
-6 190 rlineto
hintmask 0110000011100000
-14 25 30 -7 36 hhcurveto
76 55 33 38 43 hvcurveto
hintmask 0101000011100000
7 -60 rlineto
hintmask 0100100101100000
89 6 rlineto
-7 126 -4 170 248 vvcurveto
-97 hlineto
hintmask 0110000011100000
-188 3 -142 3 -103 vhcurveto
-27 -42 -45 -17 -54 hhcurveto
-69 -43 32 93 hvcurveto
355 vlineto
hintmask 1010001001100000
-98 -7 rlineto
-735 vlineto
endchar
                </CharString>
                <CharString name="multiply">
                    33 549 -20 25 -20 hstemhm
85 453 hintmask 01100000
475 100 rmoveto
63 64 -163 163 rlineto
hintmask 10100000
159 159 -62 63 -159 -159 rlineto
hintmask 01100000
-164 164 -64 -64 164 -164 -159 -159 62 -62 159 159 rlineto
endchar
                </CharString>
                <CharString name="n">
                    51 9 callsubr
hstemhm
104 97 249 98 hintmask 11001100
337 476 -26 callgsubr
                </CharString>
                <CharString name="n.sc">
                    64 callsubr
285.5 91.5 hintmask 01111000
457 hmoveto
17 callgsubr
hintmask 10111000
-79 callsubr
endchar
                </CharString>
                <CharString name="nacute">
                    51 9 callsubr
hstemhm
104 97 249 98 hintmask 11001100
201 681 -107 callgsubr
136 -205 -26 callgsubr
                </CharString>
                <CharString name="nacute.sc">
                    -52 callsubr
                </CharString>
                <CharString name="naira">
                    33 0 168 -147 -21 187 85 -83 74 138 85 25 177 0 -20 hstemhm
108 84.5 255 81.5 hintmask 0101110110000000
192 511 rmoveto
5 hlineto
118 -248 rlineto
-122 hlineto
hintmask 1010101110000000
249 -95 rmoveto
-114 244 rlineto
119 hlineto
1 -244 rlineto
-254 -168 rmoveto
hintmask 0101101110000000
-1 189 rlineto
157 hlineto
90 -189 rlineto
89 hlineto
hintmask 0110101110000000
187 72 85 -72 129 73 85 -73 202 -83 vlineto
1 -202 rlineto
-154 hlineto
-94 202 rlineto
-91 -202 -74 -85 74 -129 -74 -85 74 -187 hlineto
endchar
                </CharString>
                <CharString name="ncaron">
                    51 9 callsubr
245 -20 hstemhm
104 97 249 98 hintmask 11001110
324 628 -103 callsubr
14 -152 -24 callsubr
endchar
                </CharString>
                <CharString name="ncaron.sc">
                    64 callsubr
285.5 91.5 hintmask 01111000
345 653 -103 callsubr
113 -653 rmoveto
17 callgsubr
hintmask 10111000
-79 callsubr
endchar
                </CharString>
                <CharString name="ncommaaccent">
                    51 9 callsubr
hstemhm
104 97 82 105 62 98 hintmask 11001110
337 476 -24 callsubr
-75 -768 -103 callgsubr
                </CharString>
                <CharString name="ncommaaccent.sc">
                    -51 callgsubr
                </CharString>
                <CharString name="nine">
                    33 -3 -21 294 76 271 85 hstem
75 93 285 93 vstem
199 -24 rmoveto
237 112 110 155 192 vvcurveto
174 -94 93 -138 -128 -111 -90 -145 -190 210 -70 159 125 vhcurveto
-25 -105 -78 -86 -185 -77 rrcurveto
12 414 rmoveto
90 57 49 76 86 66 -60 -138 vhcurveto
-6 0 -6 -7 vvcurveto
-148 -97 -137 38 137 vvcurveto
endchar
                </CharString>
                <CharString name="nine.den">
                    1 -21 187 60 150 70 hstem
11 77 175 79 vstem
93 -20 -84 callsubr
                </CharString>
                <CharString name="nine.den_afrc">
                    -3 -66 60 8 -21 163 70 hstemhm
128 77 175 79 hintmask 10111000
210 -253 -76 callsubr
                </CharString>
                <CharString name="nine.den_afrc2">
                    416 -66 60 8 -21 163 70 hstemhm
337 77 175 79 hintmask 10111000
419 -253 -76 callsubr
                </CharString>
                <CharString name="nine.inf">
                    -81 -166 -21 187 33 callsubr
-187 -84 callsubr
                </CharString>
                <CharString name="nine.num">
                    417 33 callsubr
230 -84 callsubr
                </CharString>
                <CharString name="nine.num_afrc">
                    -3 639 60 -13 13 150 70 hstemhm
128 77 175 79 hintmask 10111000
210 452 -76 callsubr
                </CharString>
                <CharString name="nine.num_afrc2">
                    416 639 60 -13 13 150 70 hstemhm
337 77 175 79 hintmask 10111000
419 452 -76 callsubr
                </CharString>
                <CharString name="nine.small">
                    1 -21 187 60 150 70 hstem
50 77 175 79 vstem
132 -20 -84 callsubr
                </CharString>
                <CharString name="nine.sup">
                    -81 528 33 callsubr
341 -84 callsubr
                </CharString>
                <CharString name="notequal">
                    33 25 -21 165 88 151 72 callsubr
169 rmoveto
88 -207 vlineto
57 151 rlineto
150 87 -117 hlineto
53 138 -76 27 -63 -165 rlineto
-242 -87 209 hlineto
-58 -151 rlineto
-151 -88 118 hlineto
-53 -139 76 -26 63 165 rlineto
endchar
                </CharString>
                <CharString name="ntilde">
                    51 9 callsubr
103 85 18 85 hstemhm
104 97 249 98 hintmask 11001011
394 644 -78 callgsubr
hintmask 11001111
-85 callgsubr
hintmask 11001011
19 callgsubr
-57 -168 -48 callsubr
hintmask 10101011
-7 62 rlineto
hintmask 10011011
-26 callsubr
hintmask 11001011
20 callgsubr
                </CharString>
                <CharString name="ntilde.sc">
                    -63 callsubr
                </CharString>
                <CharString name="numbersign">
                    33 21 -21 189 89 135 89 186 -20 hstem
174 74 125 75 vstem
366 278 rmoveto
-125 hlineto
14 135 rlineto
125 hlineto
-42 -413 rmoveto
75 hlineto
19 189 rlineto
109 hlineto
9 89 rlineto
-109 hlineto
14 135 rlineto
108 hlineto
10 89 rlineto
-109 hlineto
19 186 rlineto
-75 hlineto
-19 -186 rlineto
-125 hlineto
19 186 rlineto
-74 hlineto
-19 -186 rlineto
-108 hlineto
-9 -89 rlineto
108 hlineto
-14 -135 rlineto
-107 hlineto
-9 -89 rlineto
107 hlineto
-19 -189 rlineto
74 hlineto
19 189 rlineto
125 hlineto
endchar
                </CharString>
                <CharString name="numero">
                    580 0 93 -83 83 97 82 261 155 -74 84 -10 -20 hstemhm
113 92 284 92 93 96 240 97 hintmask 0110101111000000
875 190 rmoveto
132 100 106 158 153 -81 91 -121 -130 -101 -107 -158 -155 78 -88 123 hvcurveto
17 82 rmoveto
-77 -45 58 122 105 38 57 79 79 44 -56 -122 -105 -40 -59 -78 hvcurveto
hintmask 1010011111000000
-420 -272 rmoveto
109 688 -93 hlineto
2 -500 rlineto
-5 hlineto
-250 500 rlineto
-122 -688 93 hlineto
hintmask 0111001111000000
-2 533 rlineto
5 hlineto
882 -523 rmoveto
83 -401 -83 vlineto
endchar
                </CharString>
                <CharString name="o">
                    26 callsubr
36 callsubr
297 -14 -98 callgsubr
                </CharString>
                <CharString name="o.sc">
                    -33 callsubr
-30 callgsubr
315 -13 -107 callsubr
                </CharString>
                <CharString name="oacute">
                    26 callsubr
36 callsubr
199 680 -107 callgsubr
98 -694 -98 callgsubr
                </CharString>
                <CharString name="oacute.sc">
                    -33 callsubr
-30 callgsubr
220 717 -107 callgsubr
95 -730 -107 callsubr
                </CharString>
                <CharString name="obreve">
                    26 callsubr
78 83 36 callsubr
316 639 -105 callsubr
-19 -653 -98 callgsubr
                </CharString>
                <CharString name="obreve.sc">
                    -33 callsubr
78 83 -30 callgsubr
337 676 -105 callsubr
-22 -689 -107 callsubr
                </CharString>
                <CharString name="ocircumflex">
                    26 callsubr
124 -20 34 -20 hstemhm
66 96 303 96 hintmask 11011100
443 636 rmoveto
64 63 -187 157 rlineto
-1 hlineto
hintmask 11101100
-184 -171 rlineto
hintmask 11011100
49 -48 128 117 rlineto
-15 -768 -98 callgsubr
                </CharString>
                <CharString name="ocircumflex.sc">
                    -33 callsubr
-30 callgsubr
464 673 -102 callsubr
-18 -804 -107 callsubr
                </CharString>
                <CharString name="odieresis">
                    26 callsubr
86 148 hstemhm
66 96 -8 101 121 -71 callgsubr
-12.5 96 hintmask 11101100
476 647 -102 callgsubr
hintmask 11110010
144 -661 -98 callgsubr
                </CharString>
                <CharString name="odieresis.sc">
                    -33 callsubr
86 148 hstemhm
64 100 11 101 121 -71 callgsubr
-1.5 100 hintmask 11101100
497 684 -102 callgsubr
hintmask 11111010
141 -697 -107 callsubr
                </CharString>
                <CharString name="oe">
                    382 -14 82 -81 86 176 66.5 158.5 87 -83 83 hstemhm
66 96 300 96 250 96 hintmask 10101111
317 68 rmoveto
-93 -62 75 139 129 57 67 91 90 62 -75 -139 -129 -56 -67 -89 hvcurveto
hintmask 01110111
370 406 rmoveto
82 35 -59 -96 4 hvcurveto
-250 -7 rlineto
114 6 47 48 76 hhcurveto
187 -487 rmoveto
11 86 -227 7 -85 41 -14 123 rlinecurve
342 10 rlineto
hintmask 10101111
185 18 -68 122 -140 hhcurveto
-80 -71 -47 -74 -44 hvcurveto
78 -38 -68 43 -84 hhcurveto
-139 -121 -121 -179 -173 97 -102 130 87 79 48 80 46 hvcurveto
hintmask 01110111
-82 49 109 -45 211 hhcurveto
endchar
                </CharString>
                <CharString name="oe.sc">
                    -51 callsubr
                </CharString>
                <CharString name="ogonek">
                    -4 callgsubr
                </CharString>
                <CharString name="ogonek.cap">
                    -4 callgsubr
                </CharString>
                <CharString name="ograve">
                    26 callsubr
229 -20 36 callsubr
423 675 -100 callsubr
-95 -643 -98 callgsubr
                </CharString>
                <CharString name="ograve.sc">
                    -33 callsubr
114 -20 -30 callgsubr
443 712 -100 callsubr
-97 -679 -107 callsubr
                </CharString>
                <CharString name="ohungarumlaut">
                    26 callsubr
36 callsubr
156 673 -94 callsubr
-72 -687 -98 callgsubr
                </CharString>
                <CharString name="ohungarumlaut.sc">
                    -33 callsubr
112 -20 -30 callgsubr
177 710 -94 callsubr
-75 -723 -107 callsubr
                </CharString>
                <CharString name="omacron">
                    26 callsubr
118 88 36 callsubr
487 767 -61 callgsubr
-190 -693 -98 callgsubr
                </CharString>
                <CharString name="omacron.sc">
                    -33 callsubr
118 88 -30 callgsubr
508 804 -61 callgsubr
-193 -729 -107 callsubr
                </CharString>
                <CharString name="one">
                    33 0 86 443 185 -8 -20 28 -20 hstemhm
293 97 hintmask 10011000
543 hmoveto
10 86 rlineto
-163 628 hlineto
hintmask 10101000
-97 -8 rlineto
hintmask 11001000
-86 vlineto
-180 -21 2 -72 178 4 rlineto
-445 -184 -86 vlineto
endchar
                </CharString>
                <CharString name="one.den">
                    0 -63 callgsubr
hstem
156 79 vstem
341 13 callgsubr
                </CharString>
                <CharString name="one.den_afrc">
                    -3 -233 -63 callgsubr
hstem
273 79 vstem
458 -233 -49 callsubr
                </CharString>
                <CharString name="one.den_afrc2">
                    416 -233 -63 callgsubr
hstem
482 79 vstem
667 -233 -49 callsubr
                </CharString>
                <CharString name="one.inf">
                    -81 -167 -63 callgsubr
hstem
234 79 vstem
419 -167 -49 callsubr
                </CharString>
                <CharString name="one.num">
                    250 70 243.5 -19 callsubr
hintmask 10110000
419 250 rmoveto
7 70 rlineto
-113 hlineto
hintmask 11010000
384 vlineto
hintmask 10110000
-79 -6 rlineto
hintmask 11010000
-64 vlineto
-116 -14 2 -58 114 3 rlineto
-245 -125 -70 vlineto
endchar
                </CharString>
                <CharString name="one.num_afrc">
                    -3 472 -63 callgsubr
hstem
273 79 vstem
-72 callgsubr
endchar
                </CharString>
                <CharString name="one.num_afrc2">
                    416 472 -63 callgsubr
hstem
482 79 vstem
667 472 -49 callsubr
                </CharString>
                <CharString name="one.small">
                    0 -63 callgsubr
hstem
195 79 vstem
380 13 callgsubr
                </CharString>
                <CharString name="one.sup">
                    -81 361 -63 callgsubr
hstem
234 79 vstem
419 361 -49 callsubr
                </CharString>
                <CharString name="oneeighth">
                    79 callsubr
268 70 65 64 114.5 -19 callsubr
394 -47 callsubr
hintmask 0111101000000000
384 -4 callsubr
93 -3 callgsubr
hintmask 1011011000000000
-79 -6 rlineto
hintmask 1011101100100000
-64 vlineto
-116 -14 2 -58 114 3 rlineto
-245 -125 -70 vlineto
752 -261 rmoveto
-66 callsubr
hintmask 1011011011000000
-79 callgsubr
-28 callgsubr
hintmask 1011011100000000
-62 -27 -35 -37 -53 vvcurveto
hintmask 1011101100100000
-64 58 -48 96 vhcurveto
hintmask 1011011011000000
-94 callgsubr
hintmask 1011011100100000
-97 callgsubr
                </CharString>
                <CharString name="oneeighth.afrc">
                    0 callsubr
88 28 callgsubr
132 81 -74 83 51 79 19 79 -76 84 hintmask 1011111101000000
-81 callsubr
214 -617 rmoveto
hintmask 1011111101010000
-66 callsubr
hintmask 1011111011100000
-79 callgsubr
vhcurveto
hintmask 1101111011000000
-28 callgsubr
hintmask 1011111101000000
-37 callsubr
hintmask 1011111011100000
-94 callgsubr
hintmask 1011111101010000
-97 callgsubr
                </CharString>
                <CharString name="onefifth">
                    533 3 -21 27 -21 262 70 45 73 125.5 -19 callsubr
429.5 -43 callgsubr
hintmask 1011101110000000
384 -4 callsubr
93 -3 callgsubr
hintmask 0111011110000000
-79 -6 rlineto
hintmask 0111101110000000
-64 vlineto
-116 -14 2 -58 114 3 rlineto
-245 -125 -70 vlineto
917 -105 -104 callgsubr
                </CharString>
                <CharString name="onefifth.afrc">
                    -3 1 -21 152 73 99 28 callgsubr
63 callgsubr
70 35.5 79 24 75 hintmask 11111110
-81 callsubr
hintmask 11111111
379 -461 -104 callgsubr
                </CharString>
                <CharString name="onehalf">
                    533 0 73 -70 -21 39 -21 250 70 55 74 114.5 -19 callsubr
622 80 hintmask 0101110110000000
34 callsubr
-57 37 rlineto
hintmask 0011110110000000
-429 -687 rlineto
101 -3 callgsubr
hintmask 1001101110000000
-79 -6 rlineto
hintmask 1001110110000000
-64 vlineto
-116 -14 2 -58 114 3 rlineto
-245 -125 -70 vlineto
919 -250 -84 callgsubr
                </CharString>
                <CharString name="onehalf.afrc">
                    -3 -233 68 callsubr
88 28 callgsubr
273 79 8 80 hintmask 11111100
-81 callsubr
381 -606 rmoveto
55 callgsubr
hintmask 11111110
127 91 70 70 82 vvcurveto
74 -64 60 -220 -1 vhcurveto
-6 -74 rlineto
164 -6 46 -26 -49 vvcurveto
-63 -79 -62 -147 -102 vhcurveto
8 -67 rlineto
endchar
                </CharString>
                <CharString name="onequarter">
                    42 callsubr
96 70 243.5 -19 callsubr
402 -25 callgsubr
hintmask 0100110101000000
384 -28 callsubr
-57 37 rlineto
hintmask 0010110101000000
-429 -687 rlineto
93 -3 callgsubr
hintmask 1000101101000000
-79 -6 rlineto
hintmask 0001110101000000
-64 vlineto
-116 -14 2 -58 114 3 rlineto
-245 -125 -70 vlineto
936 -165 rmoveto
hintmask 1000101111000000
6 70 -56 -1 1 145 -77 -6 1 -140 70 callgsubr
rlineto
hintmask 0001101111000000
-46 callgsubr
205 1 rcurveline
hintmask 1000101101000000
-1 -86 rlineto
77 hlineto
hintmask 0001101101000000
-1 86 rlineto
endchar
                </CharString>
                <CharString name="onequarter.afrc">
                    -3 -147.5 15 callsubr
383 28 callgsubr
140 68 65 79 -7.5 76 hintmask 11110100
-81 callsubr
hintmask 11111010
398 -521 -87 callsubr
                </CharString>
                <CharString name="onesixth">
                    533 -11 70 -56 -21 228 60 -20 70 243.5 -19 callsubr
391 75 callsubr
hintmask 0101101110000000
395 -4 callsubr
82 -3 callgsubr
hintmask 1001011110000000
-79 -6 rlineto
hintmask 1001101110000000
-64 vlineto
-116 -14 2 -58 114 3 rlineto
-245 -125 -70 vlineto
760 -261 rmoveto
90 76 63 92 hvcurveto
hintmask 1010011110000000
-37 callgsubr
hintmask 1001101110000000
-118 68 -63 97 vhcurveto
8 70 rmoveto
-53 -41 37 83 -1 hvcurveto
hintmask 1010011110000000
91 54 85 -20 -75 vvcurveto
hintmask 1001101110000000
-50 -34 -29 -47 vhcurveto
endchar
                </CharString>
                <CharString name="onesixth.afrc">
                    -3 -244 80 callgsubr
267 33 callgsubr
hstem
129 78 66 79 31 77 vstem
-81 callsubr
222 -617 -99 callgsubr
                </CharString>
                <CharString name="onethird">
                    533 -12 76 -61 -21 268 70 46 72 125.5 -19 callsubr
638 76 hintmask 01111010
376 -4 callsubr
101 -3 callgsubr
hintmask 10110110
-79 -6 rlineto
hintmask 10111011
-64 vlineto
-116 -14 2 -58 114 3 rlineto
-245 -125 -70 vlineto
619 -262 rmoveto
-105 callgsubr
endchar
                </CharString>
                <CharString name="onethird.afrc">
                    -3 -245 57 callgsubr
99 28 callgsubr
273 79 24 76 hintmask 11111100
-81 callsubr
81 -618 rmoveto
hintmask 11111110
-105 callgsubr
endchar
                </CharString>
                <CharString name="ordfeminine">
                    -22 127 70 77 67 120 62 94 77 hstem
114 83 163 81 vstem
263 341 rmoveto
-40 -26 15 41 47 34 26 129 -12 hvcurveto
1 -32 1 -26 1 -24 rrcurveto
-21 -30 -37 -14 -33 hhcurveto
111 -59 rmoveto
74 4 rlineto
-3 57 -4 58 87 vvcurveto
150 -62 52 -231 4 vhcurveto
-7 -77 160 -5 49 -16 9 -73 rlinecurve
-167 6 -78 -68 -81 vvcurveto
-66 52 -40 71 56 43 23 27 31 vhcurveto
3 -18 3 -20 1 -4 rrcurveto
-264 -85 rmoveto
-70 347 70 vlineto
endchar
                </CharString>
                <CharString name="ordmasculine">
                    -22 127 70 77 71 280 71 hstem
96 81 216 82 vstem
96 476 rmoveto
-129 72 -73 104 112 91 88 132 127 -74 75 -104 -109 -92 -89 -131 vhcurveto
191 -131 rmoveto
-68 -42 45 102 87 35 46 71 70 40 -45 -101 -88 -36 -46 -70 hvcurveto
177 -218 rmoveto
70 -357 -70 vlineto
endchar
                </CharString>
                <CharString name="oslash">
                    41 callgsubr
162 282 -64 callgsubr
                </CharString>
                <CharString name="oslash.sc">
                    -20 callgsubr
163 300 -95 callgsubr
                </CharString>
                <CharString name="oslashacute">
                    41 callgsubr
199 678 -107 callgsubr
-37 -396 -64 callgsubr
                </CharString>
                <CharString name="oslashacute.sc">
                    -20 callgsubr
215 715 -107 callgsubr
-52 -415 -95 callgsubr
                </CharString>
                <CharString name="otilde">
                    26 callsubr
82 85 18 85 -39 -20 hstemhm
66 96 303 96 hintmask 11101110
392 643 -78 callgsubr
hintmask 11110110
-85 callgsubr
hintmask 11101110
19 callgsubr
-95 -657 -98 callgsubr
                </CharString>
                <CharString name="otilde.sc">
                    -33 callsubr
82 85 18 85 hstemhm
64 100 333 100 hintmask 11101100
413 680 -78 callgsubr
hintmask 11111100
-85 callgsubr
hintmask 11101100
19 callgsubr
-98 -693 -107 callsubr
                </CharString>
                <CharString name="p">
                    33 62 callgsubr
87 406 82 -12 -20 32 -20 hstemhm
104 97 261 96 hintmask 01110011
300 73 rmoveto
-30 -34 5 11 -35 hvcurveto
-1 168 -1 96 -2 86 rrcurveto
25 35 40 15 40 hhcurveto
84 66 -71 -137 -130 -65 -68 -97 hvcurveto
-99 -256 rmoveto
171 vlineto
-2 12 11 0 12 hhcurveto
177 145 115 200 158 -91 102 -118 -66 -53 -29 -36 -39 hvcurveto
hintmask 01101011
-7 53 rlineto
hintmask 10100111
-89 -6 rlineto
6 -111 3 88 callgsubr
                </CharString>
                <CharString name="p.sc">
                    -38 callsubr
                </CharString>
                <CharString name="paragraph">
                    180 103 85 411 101 hstem
77 100 178 90 117 94 vstem
562 188 rmoveto
-42 1 -39 3 -36 5 rrcurveto
401 vlineto
35 3 39 0 43 -2 rrcurveto
-385 -201 rmoveto
83 53 72 125 32 vhcurveto
-367 vlineto
-114 36 -64 66 78 vvcurveto
268 -517 rmoveto
228 vlineto
-4 37 39 -2 41 hhcurveto
-206 vlineto
94 10 rlineto
793 vlineto
-358 2 -221 -129 -192 vvcurveto
-122 101 -94 173 -40 vhcurveto
-254 vlineto
endchar
                </CharString>
                <CharString name="parenleft">
                    -107 -228 1028 hstem
76 97 vstem
365 800 -7 callsubr
                </CharString>
                <CharString name="parenleft.cap">
                    -107 789 -20 hstem
76 97 vstem
365 855 -7 callsubr
                </CharString>
                <CharString name="parenright">
                    -107 -228 1028 hstem
311 97 vstem
119 -228 -7 callgsubr
                </CharString>
                <CharString name="parenright.cap">
                    -107 787 -20 hstem
311 97 vstem
119 -174 -7 callgsubr
                </CharString>
                <CharString name="percent">
                    311 7 -21 24 -21 710 -20 25 -20 hstemhm
111 254 -254 682 -255 255 hintmask 01011000
111 552 rmoveto
-88 52 -53 68 74 60 59 92 87 -52 55 -68 -73 -61 -61 -91 vhcurveto
95 -563 rmoveto
hintmask 01100100
549 662 -59 48 -547 -661 rlineto
hintmask 10010010
644 100 rmoveto
88 -52 53 -68 -74 -61 -60 -91 -88 53 -54 69 72 61 61 91 vhcurveto
endchar
                </CharString>
                <CharString name="period">
                    -220 0 84 callsubr
vstem
251 16 callsubr
endchar
                </CharString>
                <CharString name="period.tab">
                    -145 0 134 hstem
155 136 vstem
288 16 callsubr
endchar
                </CharString>
                <CharString name="periodcentered">
                    -220 260 84 callsubr
vstem
253 260 rmoveto
2 17 callsubr
-2 -134 rlineto
endchar
                </CharString>
                <CharString name="periodcentered.tab">
                    -144 260 134 hstem
155 136 vstem
290 260 rmoveto
2 17 callsubr
-2 -134 rlineto
endchar
                </CharString>
                <CharString name="peso">
                    33 21 -21 203 91 107 85 -75 74 128 86 -11 -20 hstemhm
112 96 hintmask 11011010
208 485 rmoveto
125 vlineto
142 16 80 -48 17 -93 rrcurveto
-239 -191 rmoveto
117 239 vlineto
-15 -97 -82 -31 -142 11 rrcurveto
hintmask 11100110
397 107 rmoveto
85 -59 vlineto
-9 163 -150 82 -275 -43 rrcurveto
-202 -78 -85 78 -401 96 203 vlineto
171 12 127 60 33 126 rrcurveto
endchar
                </CharString>
                <CharString name="plus">
                    33 284 87 hstem
266 91 vstem
549 284 rmoveto
1 87 rlineto
-193 200 -91 -200 -192 -87 192 -201 91 201 hlineto
endchar
                </CharString>
                <CharString name="plusminus">
                    33 64 87 175 88 hstem
266 91 vstem
541 64 rmoveto
87 -184 175 185 vlineto
1 88 rlineto
-186 192 -91 -192 -186 -88 186 -175 -184 -87 hlineto
endchar
                </CharString>
                <CharString name="published">
                    327 -34 67 218 71 139 68 126 68 hstem
79 73 189 80 120 80 145 -40 callsubr
267 -188 rmoveto
0 0 43 1 55 vhcurveto
117 9 84 44 96 vvcurveto
95 -101 53 -179 -25 vhcurveto
-370 vlineto
200 235 rmoveto
-57 -42 -17 -79 8 vhcurveto
1 50 0 52 34 vvcurveto
81 13 39 -35 -48 vvcurveto
endchar
                </CharString>
                <CharString name="q">
                    34 -170 -21 29 -21 168 81 406 89 hstemhm
66 95 266 97 hintmask 10111100
427 -191 rmoveto
hintmask 01111100
97 8 rlineto
717 vlineto
18 -44 -44 9 -61 hhcurveto
-158 -151 -120 -197 -160 92 -99 118 62 51 26 33 38 hvcurveto
-114 22 rmoveto
-85 -67 69 138 131 68 68 100 30 33 -5 -12 35 hvcurveto
-347 vlineto
-26 -35 -41 -16 -38 hhcurveto
endchar
                </CharString>
                <CharString name="q.sc">
                    -58 callsubr
                </CharString>
                <CharString name="question">
                    -17 0 126 hstem
180.5 128 88.5 106 vstem
92 657 rmoveto
255 -22 50 -37 -45 vvcurveto
-71 -175 -54 -6 -172 vhcurveto
70 -2 rlineto
10 153 207 42 124 vvcurveto
87 -91 71 -309 20 vhcurveto
204 -751 67 callsubr
                </CharString>
                <CharString name="questiondown">
                    -16 562 126 hstem
72 106 87.5 128 vstem
267 65 callsubr
88 -657 rmoveto
-255 22 -50 38 45 vvcurveto
71 174 53 6 172 vhcurveto
-69 2 rlineto
-11 -153 -206 -42 -124 vvcurveto
-86 90 -72 310 -20 vhcurveto
endchar
                </CharString>
                <CharString name="quotedbl">
                    34 430 317 hstem
149 119 121.5 119 vstem
457 430 rmoveto
53 283 -3 34 rlineto
-118 hlineto
1 -317 rlineto
-174 hmoveto
60 callgsubr
                </CharString>
                <CharString name="quotedblbase">
                    23 75 callgsubr
hstemhm
153 110 128 109 hintmask 01110000
104 -183 rmoveto
hintmask 10110000
5 callgsubr
rlineto
hintmask 01110000
48 1 callgsubr
rrcurveto
238 hmoveto
hintmask 10110000
66 callgsubr
rlineto
hintmask 01110000
49 1 callgsubr
rrcurveto
endchar
                </CharString>
                <CharString name="quotedblleft">
                    23 420 341 hstem
118 110 128 109 vstem
514 745 rmoveto
18 callsubr
11 137 56 73 rlinecurve
-238 hmoveto
18 callsubr
12 137 55 73 rlinecurve
endchar
                </CharString>
                <CharString name="quotedblright">
                    16 409 341 hstem
157 110 128 109 vstem
108 424 rmoveto
5 callgsubr
48 1 callgsubr
rlinecurve
238 hmoveto
66 callgsubr
49 1 callgsubr
rlinecurve
endchar
                </CharString>
                <CharString name="quoteleft">
                    -214 420 341 hstem
118 110 vstem
276 745 rmoveto
18 callsubr
12 137 55 73 rlinecurve
endchar
                </CharString>
                <CharString name="quoteright">
                    -221 409 341 hstem
157 110 vstem
108 424 rmoveto
5 callgsubr
48 1 callgsubr
rlinecurve
endchar
                </CharString>
                <CharString name="quotesinglbase">
                    -214 75 callgsubr
hstemhm
153 110 hintmask 01100000
104 -183 rmoveto
hintmask 10100000
5 callgsubr
rlineto
hintmask 01100000
48 1 callgsubr
rrcurveto
endchar
                </CharString>
                <CharString name="quotesingle">
                    -272 430 317 hstem
121 119 vstem
188 430 rmoveto
60 callgsubr
                </CharString>
                <CharString name="r">
                    50 callgsubr
hstemhm
197 97 hintmask 11010000
439 hmoveto
-19 callgsubr
hintmask 10110000
-7 104 rlineto
hintmask 11010000
-57 callgsubr
endchar
                </CharString>
                <CharString name="r.sc">
                    -54 callsubr
hstemhm
103 99 211 100 hintmask 10011011
455 -9 -76 callgsubr
                </CharString>
                <CharString name="racute">
                    50 callgsubr
137 88 callsubr
97 hintmask 11011000
187 684 -107 callgsubr
252 -684 rmoveto
-19 callgsubr
hintmask 10111000
-7 104 rlineto
hintmask 11011000
-57 callgsubr
endchar
                </CharString>
                <CharString name="racute.sc">
                    -54 callsubr
148 37 callsubr
211 100 hintmask 0011101110000000
170 713 -107 callgsubr
hintmask 1001101110000000
285 -722 rmoveto
hintmask 0011011110000000
107 15 -159 249 rlineto
63 40 47 52 77 vvcurveto
120 -110 77 -300 -36 vhcurveto
hintmask 0101101110000000
-56 callsubr
                </CharString>
                <CharString name="rcaron">
                    50 callgsubr
242 88 callsubr
97 hintmask 11011000
309 631 -103 callsubr
131 -631 rmoveto
-19 callgsubr
hintmask 10111000
-7 104 rlineto
hintmask 11011000
-57 callgsubr
endchar
                </CharString>
                <CharString name="rcaron.sc">
                    -54 callsubr
hstemhm
103 99 211 100 hintmask 00111011
293 660 -103 callsubr
hintmask 10011011
163 -669 -76 callgsubr
                </CharString>
                <CharString name="rcommaaccent">
                    50 callgsubr
hstemhm
197 97 -89 105 hintmask 11010000
439 hmoveto
-19 callgsubr
hintmask 10110000
-7 104 rlineto
hintmask 11010000
-57 callgsubr
hintmask 11001000
112 -292 -103 callgsubr
                </CharString>
                <CharString name="rcommaaccent.sc">
                    -54 callsubr
hstemhm
103 99 63 105 43 100 hintmask 1001101110000000
455 -9 rmoveto
hintmask 0011011110000000
107 15 -159 249 rlineto
63 40 47 52 77 vvcurveto
120 -110 77 -300 -36 vhcurveto
hintmask 0101101110000000
-83 callgsubr
42 -577 -103 callgsubr
                </CharString>
                <CharString name="registered">
                    114 210 54 180.5 163.5 88 54 hstem
85 58 115 65 240 58 vstem
621 487 rmoveto
164 -113 99 -153 -160 -110 -113 -164 -164 105 -99 160 154 117 113 164 vhcurveto
-58 -5 rmoveto
-139 -89 -79 -123 -123 -85 78 136 136 86 82 125 123 86 -77 -137 vhcurveto
-152 -131 rmoveto
70 8 -68 99 rlineto
30 22 21 29 28 vvcurveto
37 -36 51 -170 -22 vhcurveto
-248 65 89 vlineto
32 1 rlineto
endchar
                </CharString>
                <CharString name="registered.alt">
                    327 -34 67 239.5 65 124.5 68 125 68 hstem
79 73 176 79 117 82 160 -40 callsubr
392 -193 rmoveto
84 11 -91 151 rlineto
39 26 30 35 48 vvcurveto
83 -79 46 -199 -24 vhcurveto
-370 79 118 vlineto
68 1 rlineto
-68 186 rmoveto
79 11 38 -24 -42 vvcurveto
-28 -13 -21 -25 -17 vhcurveto
-79 -1 rlineto
endchar
                </CharString>
                <CharString name="ring">
                    -22 610 228 hstem
161 266 vstem
293 838 -82 callsubr
endchar
                </CharString>
                <CharString name="ring.cap">
                    -22 610 228 hstem
161 266 vstem
293 838 -82 callsubr
endchar
                </CharString>
                <CharString name="ruble">
                    33 0 207 -78 78 82 82 235 91 -9 -20 hstemhm
138 100 230 101 hintmask 01110110
468 494 rmoveto
-95 -66 -26 -164 -2 vhcurveto
235 vlineto
152 11 78 -37 -86 vvcurveto
-3 -365 rmoveto
8 78 rlineto
-235 86 hlineto
213 15 118 63 137 vvcurveto
hintmask 01101110
152 -153 61 -278 -33 vhcurveto
-317 -86 -82 86 -78 -86 -82 86 vlineto
hintmask 10110110
-129 100 vlineto
hintmask 01110110
129 vlineto
endchar
                </CharString>
                <CharString name="rupee">
                    370 -8 87 -69 76 callsubr
143.5 87 56 88 -11 -20 hstemhm
106 100 199 100 62 101 121 101 hintmask 0100111011110000
433 -11 rmoveto
hintmask 0001110111110000
38 callgsubr
hintmask 0010111011110000
11 callsubr
656 232 rmoveto
-221 17 -74 -94 -80 vvcurveto
hintmask 1000111011110000
-135 222 -36 -81 vvcurveto
-49 -47 -29 -167 15 vhcurveto
-4 -91 rlineto
243 -10 76 84 82 142 -222 44 76 vvcurveto
43 42 28 155 -18 vhcurveto
endchar
                </CharString>
                <CharString name="rupeeindia">
                    33 2 -21 417 78 125 87 hstem
85 467 vstem
546 35 rmoveto
-154 118 -80 58 -87 28 124 27 75 61 22 71 rrcurveto
96 78 -92 hlineto
-11 53 -35 44 -60 28 rrcurveto
200 hlineto
8 87 rlineto
-453 hlineto
-8 -85 167 -16 71 -47 19 -64 rlinecurve
-254 -78 254 hlineto
-17 -64 -67 -43 -158 -8 -21 -79 rcurveline
141 -41 56 -41 175 -141 rrcurveto
endchar
                </CharString>
                <CharString name="s">
                    61 callsubr
169 99 vstem
-11 callgsubr
endchar
                </CharString>
                <CharString name="s.sc">
                    -71 -8 84 433 84 hstem
75 102 178 -12 callgsubr
endchar
                </CharString>
                <CharString name="sacute">
                    61 callsubr
169 99 vstem
153 676 -107 callgsubr
265 -121 -75 callgsubr
endchar
                </CharString>
                <CharString name="sacute.sc">
                    -71 -8 84 433 84 120 -20 hstem
75 102 178 102 vstem
157 713 -107 callgsubr
-79 -634 rmoveto
-100 callgsubr
endchar
                </CharString>
                <CharString name="scaron">
                    -75 -8 87 389 87 226 -20 hstem
80 98 169 99 vstem
276 623 -103 callsubr
143 -68 -75 callgsubr
endchar
                </CharString>
                <CharString name="scaron.sc">
                    69 callsubr
279 660 -103 callsubr
-200 -581 rmoveto
-100 callgsubr
endchar
                </CharString>
                <CharString name="scedilla">
                    -75 -257 80 169 87 389 87 hstemhm
80 98 98 75 -4 99 hintmask 11110100
-11 callgsubr
-249 -551 rmoveto
hintmask 11111000
-86 callgsubr
                </CharString>
                <CharString name="scedilla.sc">
                    -71 -255 80 167 84 433 84 hstemhm
75 102 99 75 4 102 hintmask 11110100
-68 callsubr
94 -165 rmoveto
hintmask 11111000
-86 callgsubr
                </CharString>
                <CharString name="schwa">
                    -11 -14 87 159 66 175 87 hstem
67 96 254 96 vstem
264 -14 rmoveto
135 114 129 164 178 -89 103 -327 hvcurveto
-11 -87 230 -7 86 -40 14 -123 rlinecurve
-346 -10 rlineto
-185 -18 69 -122 143 hhcurveto
20 87 rmoveto
-82 -35 59 96 -4 hvcurveto
254 8 rlineto
-114 -6 -49 -49 -78 hhcurveto
endchar
                </CharString>
                <CharString name="scommaaccent">
                    61 callsubr
33 105 31 99 vstem
-11 callgsubr
-231 -765 -103 callgsubr
                </CharString>
                <CharString name="scommaaccent.sc">
                    -53 callsubr
                </CharString>
                <CharString name="section">
                    34 -117 90 634 90 hstemhm
71 88 -43 102 188 103 -45 89 hintmask 11101000
159 303 rmoveto
31 49 31 62 20 vhcurveto
hintmask 11100100
93 -36 101 -26 -46 vvcurveto
-32 -48 -31 -60 -19 vhcurveto
hintmask 11101000
-94 36 -103 26 46 vvcurveto
350 -242 rmoveto
44 -35 32 -47 26 vhcurveto
hintmask 11010100
74 33 52 49 58 131 -335 21 76 vvcurveto
35 52 53 246 -12 vhcurveto
-6 90 rlineto
-292 12 -102 -108 -82 vvcurveto
-45 35 -32 48 -26 vhcurveto
hintmask 11101000
-75 -32 -53 -47 -59 -131 335 -22 -76 vvcurveto
-35 -54 -53 -246 12 vhcurveto
-5 -90 rlineto
305 -12 103 108 82 vvcurveto
endchar
                </CharString>
                <CharString name="semicolon">
                    -214 75 callgsubr
595 135 hstemhm
127 136 -105 111 hintmask 01110000
262 -13 callgsubr
                </CharString>
                <CharString name="semicolon.tab">
                    -145 75 callgsubr
595 135 hstemhm
161 136 -105 111 hintmask 01110000
296 -13 callgsubr
                </CharString>
                <CharString name="servicemark">
                    389 289 71 -30 107 164 87 -63 70 hstemhm
74 87 113 86 82 74 278 77 hintmask 01101111
623 330 rmoveto
69 hlineto
98 271 rlineto
5 hlineto
-2 -307 rlineto
78 22 callgsubr
hintmask 10011111
-441 -241 rmoveto
-71 vlineto
200 -4 81 62 60 90 -199 42 49 vvcurveto
23 35 18 135 -4 vhcurveto
-5 70 rlineto
-180 7 -72 -64 -59 -87 200 -44 -46 vvcurveto
-25 -48 -22 -147 5 vhcurveto
endchar
                </CharString>
                <CharString name="seven">
                    33 13 -21 34 -21 592 91 hstemhm
95 457 hintmask 10110000
261 -8 rmoveto
71 205 99 208 121 197 rrcurveto
86 -449 vlineto
-8 -91 rlineto
357 hlineto
3 -5 rlineto
hintmask 01110000
-122 -191 -98 -197 -71 -199 rrcurveto
endchar
                </CharString>
                <CharString name="seven.den">
                    12 -21 31 -21 364 73 hstemhm
25 -44 callsubr
hintmask 10110000
155 -9 rmoveto
hintmask 01101000
-90 callsubr
endchar
                </CharString>
                <CharString name="seven.den_afrc">
                    -3 132 73 hstemhm
142 -44 callsubr
hintmask 11000000
272 -242 rmoveto
hintmask 10100000
-90 callsubr
endchar
                </CharString>
                <CharString name="seven.den_afrc2">
                    416 132 73 hstemhm
351 -44 callsubr
hintmask 11000000
481 -242 rmoveto
hintmask 10100000
-90 callsubr
endchar
                </CharString>
                <CharString name="seven.inf">
                    -81 198 73 hstemhm
103 -44 callsubr
hintmask 11000000
233 -176 rmoveto
hintmask 10100000
-90 callsubr
endchar
                </CharString>
                <CharString name="seven.num">
                    615 73 hstemhm
103 -44 callsubr
hintmask 11000000
233 241 rmoveto
hintmask 10100000
-90 callsubr
endchar
                </CharString>
                <CharString name="seven.num_afrc">
                    -3 837 73 hstemhm
142 -44 callsubr
hintmask 11000000
272 463 rmoveto
hintmask 10100000
-90 callsubr
endchar
                </CharString>
                <CharString name="seven.num_afrc2">
                    416 837 73 hstemhm
351 -44 callsubr
hintmask 11000000
481 463 rmoveto
hintmask 10100000
-90 callsubr
endchar
                </CharString>
                <CharString name="seven.small">
                    12 -21 31 -21 364 73 hstemhm
64 -44 callsubr
hintmask 10110000
194 -9 rmoveto
hintmask 01101000
-90 callsubr
endchar
                </CharString>
                <CharString name="seven.sup">
                    -81 726 73 hstemhm
103 -44 callsubr
hintmask 11000000
233 352 rmoveto
hintmask 10100000
-90 callsubr
endchar
                </CharString>
                <CharString name="seveneighths">
                    79 callsubr
403 64 166 73 0 -20 38 -20 hstemhm
337.5 84.5 285 -47 callsubr
hintmask 0110100100100000
347 -28 callsubr
rlineto
hintmask 0110010100100000
-21 callsubr
-56 222 rmoveto
hintmask 1011001100100000
-90 callsubr
711 -262 rmoveto
-66 callsubr
hintmask 1011000011000000
-79 callgsubr
-28 callgsubr
hintmask 1011000100100000
-62 -27 -35 -37 -53 vvcurveto
hintmask 1011001100100000
-64 58 -48 96 vhcurveto
hintmask 1011000011000000
-94 callgsubr
hintmask 1011000100100000
-97 callgsubr
                </CharString>
                <CharString name="seveneighths.afrc">
                    0 callsubr
88 69 464 73 hstemhm
132 -47 callsubr
-81.5 84.5 hintmask 1011111001000000
272 463 rmoveto
hintmask 1011111000100000
-90 callsubr
-117 -169 -39 callgsubr
214 -617 rmoveto
hintmask 1011111001000000
-66 callsubr
hintmask 1011110110000000
-79 callgsubr
vhcurveto
hintmask 1101110101000000
-28 callgsubr
hintmask 1011111001000000
-62 -27 -35 -37 -53 vvcurveto
hintmask 1011111000100000
-64 58 -48 96 vhcurveto
hintmask 1011110110000000
-94 callgsubr
hintmask 1011111001000000
-97 callgsubr
                </CharString>
                <CharString name="six">
                    33 -14 85 271 76 295 -20 hstem
77 93 286 92 vstem
310 -14 rmoveto
127 111 90 145 190 -210 70 -159 -125 hvcurveto
25 105 78 86 185 77 -44 89 rcurveline
-237 -112 -109 -156 -192 vvcurveto
-174 95 -93 138 vhcurveto
12 85 rmoveto
-86 -66 60 138 hvcurveto
6 0 6 7 vvcurveto
148 97 138 -38 -137 vvcurveto
-89 -58 -50 -76 vhcurveto
endchar
                </CharString>
                <CharString name="six.den">
                    -11 80 callgsubr
hstem
12 75 callsubr
vstem
177 -11 -99 callgsubr
                </CharString>
                <CharString name="six.den_afrc">
                    -3 -244 80 callgsubr
hstem
129 75 callsubr
vstem
294 -244 -99 callgsubr
                </CharString>
                <CharString name="six.den_afrc2">
                    416 -244 80 callgsubr
hstem
338 75 callsubr
vstem
503 -244 -99 callgsubr
                </CharString>
                <CharString name="six.inf">
                    -81 -178 80 callgsubr
hstem
90 75 callsubr
vstem
255 -178 -99 callgsubr
                </CharString>
                <CharString name="six.num">
                    239 80 callgsubr
186 -20 hstem
90 75 callsubr
vstem
255 239 -99 callgsubr
                </CharString>
                <CharString name="six.num_afrc">
                    -3 461 80 callgsubr
-48 -20 hstemhm
129 75 callsubr
hintmask 11011000
294 -30 callsubr
                </CharString>
                <CharString name="six.num_afrc2">
                    416 461 80 callgsubr
-48 -20 hstemhm
338 75 callsubr
hintmask 11011000
503 -30 callsubr
                </CharString>
                <CharString name="six.small">
                    -11 80 callgsubr
hstem
51 75 callsubr
vstem
216 -11 -99 callgsubr
                </CharString>
                <CharString name="six.sup">
                    -81 350 70 120 -20 51 60 -48 -20 hstemhm
90 75 callsubr
hintmask 11101100
255 350 rmoveto
90 76 63 92 hvcurveto
hintmask 11011100
-37 callgsubr
hintmask 11101100
-118 68 -63 97 vhcurveto
8 70 rmoveto
-53 -41 37 83 -1 hvcurveto
91 54 85 -20 -75 vvcurveto
-50 -34 -29 -47 vhcurveto
endchar
                </CharString>
                <CharString name="slash">
                    -81 -162 -21 hstem
-15 539 vstem
442 793 rmoveto
-457 -976 87 -18 452 967 rlineto
endchar
                </CharString>
                <CharString name="slash.tab">
                    33 -162 -21 975 -20 hstem
-12 590 vstem
578 761 rmoveto
-83 31 -507 -975 89 -18 rlineto
endchar
                </CharString>
                <CharString name="space">
                    -283 endchar
                </CharString>
                <CharString name="sterling">
                    33 0 85 212 86 219 104 hstem
72 469 vstem
533 86 rmoveto
-295 -2 24 213 rlineto
200 hlineto
10 86 rlineto
-201 hlineto
24 189 30 24 216 6 -7 104 rcurveline
-272 -18 -61 -87 -26 -218 rrcurveto
-88 hlineto
-9 -86 rlineto
88 hlineto
-22 -214 rlineto
-72 -83 461 hlineto
endchar
                </CharString>
                <CharString name="t">
                    23 callsubr
-15 callsubr
endchar
                </CharString>
                <CharString name="t.sc">
                    -50 21 -21 503 82 hstem
222 99 vstem
321 503 49 callgsubr
                </CharString>
                <CharString name="tcaron">
                    23 callsubr
98 99 hintmask 11011100
319 659 -65 callgsubr
102 -667 rmoveto
10 86 rlineto
-144 3 -47 20 89 vvcurveto
277 182 80 -182 160 vlineto
hintmask 11101100
-98 -9 rlineto
-151 -88 vlineto
-10 -80 rlineto
98 -294 hlineto
hintmask 11011100
-133 70 -52 209 4 vhcurveto
endchar
                </CharString>
                <CharString name="tcaron.sc">
                    -21 callgsubr
                </CharString>
                <CharString name="tcommaaccent">
                    23 callsubr
-5 105 -15 callsubr
hintmask 11010100
-207 -293 -103 callgsubr
                </CharString>
                <CharString name="tcommaaccent.sc">
                    -32 callgsubr
                </CharString>
                <CharString name="thinspace">
                    -455 endchar
                </CharString>
                <CharString name="thorn">
                    32 62 callgsubr
87 -63 -21 490 82 218 57 callsubr
101 97 264 96 hintmask 0110101110000000
300 73 rmoveto
-31 -34 29 callgsubr
-102 -256 rmoveto
hintmask 0101101110000000
172 vlineto
hintmask 0110101110000000
-2 18 19 -1 19 hhcurveto
32 callgsubr
hintmask 1010110110000000
-97 -9 rlineto
-971 vlineto
endchar
                </CharString>
                <CharString name="thorn.sc">
                    -38 callgsubr
                </CharString>
                <CharString name="three">
                    33 -15 96 -75 -21 614 89 hstemhm
446 90 hintmask 01110000
110 -15 rmoveto
298 19 128 85 115 vvcurveto
79 -68 71 -197 33 vhcurveto
250 210 -9 91 rlineto
-400 -89 306 hlineto
-261 -220 rlineto
-50 vlineto
217 -26 72 -56 -55 vvcurveto
hintmask 10110000
-60 -80 -36 -263 -15 vhcurveto
endchar
                </CharString>
                <CharString name="three.den">
                    -12 63 callsubr
259 76 vstem
36 -12 rmoveto
-105 callgsubr
endchar
                </CharString>
                <CharString name="three.den_afrc">
                    -3 -245 63 callsubr
376 76 vstem
153 -245 rmoveto
-105 callgsubr
endchar
                </CharString>
                <CharString name="three.den_afrc2">
                    416 -245 63 callsubr
585 76 vstem
362 -245 rmoveto
-105 callgsubr
endchar
                </CharString>
                <CharString name="three.inf">
                    -81 -179 63 callsubr
337 76 vstem
114 -179 rmoveto
-105 callgsubr
endchar
                </CharString>
                <CharString name="three.num">
                    238 63 callsubr
337 76 vstem
114 238 rmoveto
-105 callgsubr
endchar
                </CharString>
                <CharString name="three.num_afrc">
                    -3 460 63 callsubr
376 76 vstem
153 460 rmoveto
-105 callgsubr
endchar
                </CharString>
                <CharString name="three.num_afrc2">
                    416 460 63 callsubr
585 76 vstem
362 460 rmoveto
-105 callgsubr
endchar
                </CharString>
                <CharString name="three.small">
                    -12 63 callsubr
298 76 vstem
75 -12 rmoveto
-105 callgsubr
endchar
                </CharString>
                <CharString name="three.sup">
                    -81 349 76 131 -20 191 72 hstem
337 76 vstem
114 349 rmoveto
-105 callgsubr
endchar
                </CharString>
                <CharString name="threeeighths">
                    79 callsubr
256 76 71 64 167 72 0 -20 38 -20 hstemhm
337 76 294 -47 callsubr
hintmask 0111010110010000
24 callsubr
hintmask 0111001110010000
-12 callsubr
hintmask 1011100110010000
165 125 -6 68 rlineto
-283 -73 hlineto
190 2 rlineto
-3 vlineto
-155 -121 -1 -48 rlineto
134 -14 54 -26 -31 vvcurveto
-32 -54 -21 -175 -7 vhcurveto
753 -325 rmoveto
-66 callsubr
hintmask 1011100101100000
-79 callgsubr
-28 callgsubr
hintmask 1011100110010000
-37 callsubr
hintmask 1011100101100000
-94 callgsubr
hintmask 1011100110010000
-97 callgsubr
                </CharString>
</ttFont>
